<svg width="96" height="71" viewBox="0 0 96 71" fill="none" xmlns="http://www.w3.org/2000/svg">
<g filter="url(#filter0_d_2091_428)">
<g clip-path="url(#clip0_2091_428)">
<path d="M92 9.27899C92.0005 8.42184 91.8245 7.57374 91.483 6.78733C91.1578 5.90847 90.6471 5.10969 89.9856 4.44516C89.5244 3.97031 88.9692 3.59657 88.3553 3.34775C87.7415 3.09894 87.0824 2.9805 86.4202 2.99999H10.2893C10.0701 2.99927 9.85106 3.01115 9.63326 3.03559H9.50847C8.83336 3.0211 8.16298 3.15116 7.54245 3.41702C6.92192 3.68288 6.36563 4.07836 5.91103 4.57686C5.34321 5.17185 4.89534 5.87035 4.59185 6.63427C4.20178 7.46153 3.99967 8.36465 4 9.27899V59.7174C4.00039 61.0896 4.45404 62.4233 5.29066 63.5119C6.36026 65.0994 7.98963 66.0036 9.65108 66.0036H85.7107C86.02 66.0021 86.3287 65.9771 86.6341 65.9288C87.0013 65.9363 87.368 65.8969 87.7251 65.8113C88.5832 65.5686 89.3699 65.1223 90.018 64.5106C90.6661 63.8989 91.1565 63.1398 91.4474 62.2981C91.8118 61.4889 92.0002 60.6118 92 59.7246V9.27899Z" fill="white"/>
<g opacity="0.46">
<g filter="url(#filter1_i_2091_428)">
<path d="M50.8737 57.6387C50.4434 53.571 48.7866 49.7295 46.1223 46.6222C43.4581 43.5148 39.9119 41.288 35.9527 40.2362C35.5961 40.1436 35.2396 40.0617 34.9116 39.987C37.6987 38.9883 40.0434 37.0396 41.5326 34.4842C43.0218 31.9289 43.56 28.9308 43.0523 26.0182C42.5446 23.1056 41.0236 20.4652 38.7573 18.5624C36.491 16.6595 33.6247 15.6162 30.6635 15.6162C27.7022 15.6162 24.836 16.6595 22.5697 18.5624C20.3034 20.4652 18.7824 23.1056 18.2747 26.0182C17.767 28.9308 18.3051 31.9289 19.7943 34.4842C21.2835 37.0396 23.6282 38.9883 26.4154 39.987C21.5421 41.0134 17.2137 43.785 14.2468 47.7788C11.1806 51.8972 10.0754 56.5495 10.2465 61.6147C10.3463 64.4374 11.8081 66.0035 14.6961 66.0035C20.0203 66.0035 25.3422 66.0035 30.6617 66.0035C36.0917 66.0035 41.5218 66.0035 46.9554 66.0035C49.362 66.0035 51.0306 64.3341 51.0412 61.9243C51.0663 60.4938 51.0103 59.0629 50.8737 57.6387Z" fill="#EBEBEB"/>
</g>
<g opacity="0.29">
<path d="M50.8737 57.6387C50.4434 53.571 48.7866 49.7295 46.1223 46.6222C43.4581 43.5148 39.9119 41.288 35.9527 40.2362C35.5961 40.1436 35.2396 40.0617 34.9116 39.987C37.6987 38.9883 40.0434 37.0396 41.5326 34.4842C43.0218 31.9289 43.56 28.9308 43.0523 26.0182C42.5446 23.1056 41.0236 20.4652 38.7573 18.5624C36.491 16.6595 33.6247 15.6162 30.6635 15.6162C27.7022 15.6162 24.836 16.6595 22.5697 18.5624C20.3034 20.4652 18.7824 23.1056 18.2747 26.0182C17.767 28.9308 18.3051 31.9289 19.7943 34.4842C21.2835 37.0396 23.6282 38.9883 26.4154 39.987C21.5421 41.0134 17.2137 43.785 14.2468 47.7788C11.1806 51.8972 10.0754 56.5495 10.2465 61.6147C10.3463 64.4374 11.8081 66.0035 14.6961 66.0035C20.0203 66.0035 25.3422 66.0035 30.6617 66.0035C36.0917 66.0035 41.5218 66.0035 46.9554 66.0035C49.362 66.0035 51.0306 64.3341 51.0412 61.9243C51.0663 60.4938 51.0103 59.0629 50.8737 57.6387Z" fill="black"/>
</g>
</g>
<path d="M81.4609 25.2826H51.0271C50.5118 25.2826 50.0175 25.0782 49.6531 24.7144C49.2887 24.3506 49.084 23.8572 49.084 23.3427C49.084 22.8282 49.2887 22.3347 49.6531 21.9709C50.0175 21.6071 50.5118 21.4027 51.0271 21.4027H81.4609C81.9763 21.4027 82.4705 21.6071 82.8349 21.9709C83.1993 22.3347 83.4041 22.8282 83.4041 23.3427C83.4041 23.8572 83.1993 24.3506 82.8349 24.7144C82.4705 25.0782 81.9763 25.2826 81.4609 25.2826Z" fill="#A778AE"/>
<g filter="url(#filter2_d_2091_428)">
<path d="M81.4609 33.5834H51.0271C50.5118 33.5834 50.0175 33.379 49.6531 33.0152C49.2887 32.6514 49.084 32.158 49.084 31.6435C49.084 31.129 49.2887 30.6355 49.6531 30.2717C50.0175 29.9079 50.5118 29.7035 51.0271 29.7035H81.4609C81.9763 29.7035 82.4705 29.9079 82.8349 30.2717C83.1993 30.6355 83.4041 31.129 83.4041 31.6435C83.4041 32.158 83.1993 32.6514 82.8349 33.0152C82.4705 33.379 81.9763 33.5834 81.4609 33.5834Z" fill="#EBEBEB"/>
</g>
<g filter="url(#filter3_d_2091_428)">
<path d="M81.4609 42.3683H51.0271C50.5118 42.3683 50.0175 42.1639 49.6531 41.8001C49.2887 41.4363 49.084 40.9429 49.084 40.4284C49.084 39.9139 49.2887 39.4204 49.6531 39.0566C50.0175 38.6928 50.5118 38.4884 51.0271 38.4884H81.4609C81.9763 38.4884 82.4705 38.6928 82.8349 39.0566C83.1993 39.4204 83.4041 39.9139 83.4041 40.4284C83.4041 40.9429 83.1993 41.4363 82.8349 41.8001C82.4705 42.1639 81.9763 42.3683 81.4609 42.3683Z" fill="#EBEBEB"/>
</g>
</g>
</g>
<defs>
<filter id="filter0_d_2091_428" x="0" y="0" width="96" height="71" filterUnits="userSpaceOnUse" color-interpolation-filters="sRGB">
<feFlood flood-opacity="0" result="BackgroundImageFix"/>
<feColorMatrix in="SourceAlpha" type="matrix" values="0 0 0 0 0 0 0 0 0 0 0 0 0 0 0 0 0 0 127 0" result="hardAlpha"/>
<feOffset dy="1"/>
<feGaussianBlur stdDeviation="2"/>
<feComposite in2="hardAlpha" operator="out"/>
<feColorMatrix type="matrix" values="0 0 0 0 0 0 0 0 0 0 0 0 0 0 0 0 0 0 0.09 0"/>
<feBlend mode="normal" in2="BackgroundImageFix" result="effect1_dropShadow_2091_428"/>
<feBlend mode="normal" in="SourceGraphic" in2="effect1_dropShadow_2091_428" result="shape"/>
</filter>
<filter id="filter1_i_2091_428" x="10.2295" y="15.6162" width="40.8176" height="51.3873" filterUnits="userSpaceOnUse" color-interpolation-filters="sRGB">
<feFlood flood-opacity="0" result="BackgroundImageFix"/>
<feBlend mode="normal" in="SourceGraphic" in2="BackgroundImageFix" result="shape"/>
<feColorMatrix in="SourceAlpha" type="matrix" values="0 0 0 0 0 0 0 0 0 0 0 0 0 0 0 0 0 0 127 0" result="hardAlpha"/>
<feOffset dy="1"/>
<feGaussianBlur stdDeviation="1.3"/>
<feComposite in2="hardAlpha" operator="arithmetic" k2="-1" k3="1"/>
<feColorMatrix type="matrix" values="0 0 0 0 0 0 0 0 0 0 0 0 0 0 0 0 0 0 0.32 0"/>
<feBlend mode="normal" in2="shape" result="effect1_innerShadow_2091_428"/>
</filter>
<filter id="filter2_d_2091_428" x="48.084" y="29.7035" width="36.3201" height="5.87988" filterUnits="userSpaceOnUse" color-interpolation-filters="sRGB">
<feFlood flood-opacity="0" result="BackgroundImageFix"/>
<feColorMatrix in="SourceAlpha" type="matrix" values="0 0 0 0 0 0 0 0 0 0 0 0 0 0 0 0 0 0 127 0" result="hardAlpha"/>
<feOffset dy="1"/>
<feGaussianBlur stdDeviation="0.5"/>
<feComposite in2="hardAlpha" operator="out"/>
<feColorMatrix type="matrix" values="0 0 0 0 0 0 0 0 0 0 0 0 0 0 0 0 0 0 0.15 0"/>
<feBlend mode="normal" in2="BackgroundImageFix" result="effect1_dropShadow_2091_428"/>
<feBlend mode="normal" in="SourceGraphic" in2="effect1_dropShadow_2091_428" result="shape"/>
</filter>
<filter id="filter3_d_2091_428" x="48.084" y="38.4884" width="36.3201" height="5.87988" filterUnits="userSpaceOnUse" color-interpolation-filters="sRGB">
<feFlood flood-opacity="0" result="BackgroundImageFix"/>
<feColorMatrix in="SourceAlpha" type="matrix" values="0 0 0 0 0 0 0 0 0 0 0 0 0 0 0 0 0 0 127 0" result="hardAlpha"/>
<feOffset dy="1"/>
<feGaussianBlur stdDeviation="0.5"/>
<feComposite in2="hardAlpha" operator="out"/>
<feColorMatrix type="matrix" values="0 0 0 0 0 0 0 0 0 0 0 0 0 0 0 0 0 0 0.15 0"/>
<feBlend mode="normal" in2="BackgroundImageFix" result="effect1_dropShadow_2091_428"/>
<feBlend mode="normal" in="SourceGraphic" in2="effect1_dropShadow_2091_428" result="shape"/>
</filter>
<clipPath id="clip0_2091_428">
<rect x="4" y="3" width="88" height="63" rx="5" fill="white"/>
</clipPath>
</defs>
</svg>
