<svg width="28" height="28" viewBox="0 0 28 28" fill="none" xmlns="http://www.w3.org/2000/svg">
<path fill-rule="evenodd" clip-rule="evenodd" d="M7.00004 3.20834C4.90596 3.20834 3.20837 4.90593 3.20837 7.00001C3.20837 9.09409 4.90596 10.7917 7.00004 10.7917C9.09412 10.7917 10.7917 9.09409 10.7917 7.00001C10.7917 4.90593 9.09412 3.20834 7.00004 3.20834ZM1.45837 7.00001C1.45837 3.93943 3.93946 1.45834 7.00004 1.45834C10.0606 1.45834 12.5417 3.93943 12.5417 7.00001C12.5417 10.0606 10.0606 12.5417 7.00004 12.5417C3.93946 12.5417 1.45837 10.0606 1.45837 7.00001ZM21 3.20834C18.906 3.20834 17.2084 4.90593 17.2084 7.00001C17.2084 9.09409 18.906 10.7917 21 10.7917C23.0941 10.7917 24.7917 9.09409 24.7917 7.00001C24.7917 4.90593 23.0941 3.20834 21 3.20834ZM15.4584 7.00001C15.4584 3.93943 17.9395 1.45834 21 1.45834C24.0606 1.45834 26.5417 3.93943 26.5417 7.00001C26.5417 10.0606 24.0606 12.5417 21 12.5417C17.9395 12.5417 15.4584 10.0606 15.4584 7.00001ZM7.00004 17.2083C4.90596 17.2083 3.20837 18.9059 3.20837 21C3.20837 23.0941 4.90596 24.7917 7.00004 24.7917C9.09412 24.7917 10.7917 23.0941 10.7917 21C10.7917 18.9059 9.09412 17.2083 7.00004 17.2083ZM1.45837 21C1.45837 17.9394 3.93946 15.4583 7.00004 15.4583C10.0606 15.4583 12.5417 17.9394 12.5417 21C12.5417 24.0606 10.0606 26.5417 7.00004 26.5417C3.93946 26.5417 1.45837 24.0606 1.45837 21ZM21 17.2083C18.906 17.2083 17.2084 18.9059 17.2084 21C17.2084 23.0941 18.906 24.7917 21 24.7917C23.0941 24.7917 24.7917 23.0941 24.7917 21C24.7917 18.9059 23.0941 17.2083 21 17.2083ZM15.4584 21C15.4584 17.9394 17.9395 15.4583 21 15.4583C24.0606 15.4583 26.5417 17.9394 26.5417 21C26.5417 24.0606 24.0606 26.5417 21 26.5417C17.9395 26.5417 15.4584 24.0606 15.4584 21Z" fill="#282930"/>
</svg>
