<svg width="87" height="88" viewBox="0 0 87 88" fill="none" xmlns="http://www.w3.org/2000/svg">
<g clip-path="url(#clip0_2091_442)">
<g filter="url(#filter0_d_2091_442)">
<path d="M86.9627 41.7587C86.934 40.1238 86.2787 38.564 85.1349 37.4078C83.9911 36.2516 82.448 35.5892 80.8306 35.5602C79.3614 35.4849 77.8816 35.5602 76.5721 35.5602C75.5927 33.1551 74.938 30.9759 73.8521 29.0497C72.83 27.2472 72.9365 26.058 74.5547 24.7452C77.0619 22.7328 78.531 19.9026 77.1257 16.9217C75.5128 13.4512 73.011 10.2229 68.8324 9.77628C67.2355 9.59872 65.2979 10.5834 63.7968 11.5035C62.6523 12.2029 61.9444 13.6557 61.1353 14.6135C58.9209 13.5804 57.308 12.402 55.5407 12.0899C52.2511 11.5142 51.6709 9.67943 51.8146 6.67167C51.9903 2.82453 49.3873 0.306397 45.6079 0.0642695C38.8583 -0.371561 35.574 1.361 34.9405 5.7462C34.8692 6.4612 34.8461 7.18028 34.8713 7.89845C34.8713 8.78625 34.8713 9.67943 34.8713 10.5888C33.0721 11.2829 31.257 11.6649 29.8144 12.6065C27.1103 14.4036 25.2632 13.9785 23.134 11.5304C20.8557 8.8831 17.2786 8.86696 14.7395 10.8955C9.62941 14.9524 8.16557 18.5951 10.2096 22.1947C10.3001 22.3508 10.3533 22.5606 10.4864 22.6467C14.5532 25.2886 13.8399 28.5493 11.7107 32.0198C11.6041 32.1655 11.5346 32.3355 11.5084 32.5148C11.3008 35.2051 9.66667 35.5925 7.3192 35.5279C2.24101 35.388 0.0585536 37.7286 0 42.8994C0 43.884 0 44.8741 0 45.8587C0.127753 50.1632 2.54974 52.5791 6.88271 52.6867C8.10701 52.6867 9.33131 52.6867 10.4385 52.6867C11.1784 54.6399 11.5457 56.4531 12.4932 57.9382C14.2232 60.5908 13.7654 62.3718 11.4286 64.438C8.80965 66.7678 8.43704 70.2168 10.4385 72.6918C14.0262 77.1416 16.3577 79.5198 20.4033 78.3092C21.3824 77.9121 22.2836 77.3418 23.0648 76.6251C23.826 76.0171 24.3796 75.1239 25.194 74.5912C25.4846 74.3937 25.8118 74.2579 26.1559 74.1922C26.5 74.1266 26.8537 74.1323 27.1955 74.2092C29.7346 75.1938 32.2098 76.3614 34.8607 77.5183C34.8607 78.8042 34.8128 80.144 34.8607 81.4784C35.0097 84.8628 36.9899 87.5316 39.9495 87.763C46.4649 88.2687 49.4884 88.3494 51.3462 84.0503C51.6341 83.2088 51.7852 82.3257 51.7933 81.4353C51.8678 80.5422 51.6656 79.6059 51.8625 78.745C51.9337 78.3982 52.0718 78.069 52.2691 77.7763C52.4665 77.4836 52.719 77.2332 53.0123 77.0394C55.4982 75.8987 58.0586 74.9356 60.9969 73.7518C61.9035 74.8852 62.8757 75.9632 63.9086 76.9802C66.4477 79.2347 69.7639 79.1647 72.4255 76.9533C77.3387 72.7941 78.728 69.216 76.7318 65.8369C76.6248 65.5894 76.4648 65.3689 76.2634 65.1913C72.4468 62.7162 73.0696 59.6869 75.1562 56.4531C75.2435 56.2971 75.2996 56.1253 75.3212 55.9474C75.7204 53.2571 77.1577 52.4715 79.8777 52.6114C84.4609 52.8374 86.9414 50.1309 86.9947 45.5305C86.9947 44.2714 87.0319 43.0124 86.9627 41.7587Z" fill="white"/>
<path d="M43.4361 66.9941C56.0715 66.9941 66.3146 56.6403 66.3146 43.8682C66.3146 31.0961 56.0715 20.7423 43.4361 20.7423C30.8007 20.7423 20.5576 31.0961 20.5576 43.8682C20.5576 56.6403 30.8007 66.9941 43.4361 66.9941Z" fill="white"/>
<g filter="url(#filter1_i_2091_442)">
<path d="M43.5 20.7423C48.0514 20.7412 52.501 22.1045 56.2859 24.6597C60.0709 27.215 63.0212 30.8474 64.7637 35.0976C66.5062 39.3478 66.9626 44.0248 66.0753 48.5373C65.188 53.0497 62.9968 57.1948 59.7788 60.4484C56.5608 63.7019 52.4605 65.9178 47.9966 66.8158C43.5326 67.7137 38.9055 67.2534 34.7004 65.493C30.4952 63.7326 26.901 60.7513 24.3722 56.926C21.8435 53.1008 20.4937 48.6034 20.4937 44.0027C20.4937 37.8346 22.9174 31.919 27.2318 27.557C31.5461 23.195 37.3978 20.7437 43.5 20.7423ZM43.5 14.7375C37.7738 14.7375 32.1762 16.4539 27.415 19.6696C22.6539 22.8853 18.943 27.4559 16.7517 32.8034C14.5604 38.1509 13.987 44.0351 15.1042 49.712C16.2213 55.3889 18.9787 60.6035 23.0277 64.6963C27.0768 68.7891 32.2355 71.5763 37.8517 72.7055C43.4678 73.8347 49.2891 73.2552 54.5794 71.0402C59.8697 68.8252 64.3914 65.0742 67.5727 60.2615C70.754 55.4489 72.452 49.7908 72.452 44.0027C72.4436 36.2437 69.3906 28.8049 63.9628 23.3185C58.5351 17.8321 51.1759 14.746 43.5 14.7375Z" fill="#EBEBEB"/>
</g>
<mask id="mask0_2091_442" style="mask-type:luminance" maskUnits="userSpaceOnUse" x="14" y="14" width="59" height="60">
<path d="M43.5 20.7423C48.0514 20.7412 52.501 22.1045 56.2859 24.6597C60.0709 27.215 63.0212 30.8474 64.7637 35.0976C66.5062 39.3478 66.9626 44.0248 66.0753 48.5373C65.188 53.0497 62.9968 57.1948 59.7788 60.4484C56.5608 63.7019 52.4605 65.9178 47.9966 66.8158C43.5326 67.7137 38.9055 67.2534 34.7004 65.493C30.4952 63.7326 26.901 60.7513 24.3722 56.926C21.8435 53.1008 20.4937 48.6034 20.4937 44.0027C20.4937 37.8346 22.9174 31.919 27.2318 27.557C31.5461 23.195 37.3978 20.7437 43.5 20.7423ZM43.5 14.7375C37.7738 14.7375 32.1762 16.4539 27.415 19.6696C22.6539 22.8853 18.943 27.4559 16.7517 32.8034C14.5604 38.1509 13.987 44.0351 15.1042 49.712C16.2213 55.3889 18.9787 60.6035 23.0277 64.6963C27.0768 68.7891 32.2355 71.5763 37.8517 72.7055C43.4678 73.8347 49.2891 73.2552 54.5794 71.0402C59.8697 68.8252 64.3914 65.0742 67.5727 60.2615C70.754 55.4489 72.452 49.7908 72.452 44.0027C72.4436 36.2437 69.3906 28.8049 63.9628 23.3185C58.5351 17.8321 51.1759 14.746 43.5 14.7375Z" fill="white"/>
</mask>
<g mask="url(#mask0_2091_442)">
<path opacity="0.1" d="M56.238 24.6325L75.3158 42.6844C75.3158 42.6844 67.7996 72.7244 67.5282 72.7244C67.2567 72.7244 41.6102 75.0166 41.6102 75.0166L27.4456 60.6503L56.238 24.6325Z" fill="black"/>
</g>
<path d="M43.5 69.9803C57.6936 69.9803 69.1997 58.3497 69.1997 44.0027C69.1997 29.6556 57.6936 18.0251 43.5 18.0251C29.3064 18.0251 17.8003 29.6556 17.8003 44.0027C17.8003 58.3497 29.3064 69.9803 43.5 69.9803Z" stroke="#A778AE" stroke-width="2" stroke-miterlimit="10"/>
</g>
</g>
<defs>
<filter id="filter0_d_2091_442" x="-4" y="-3.00095" width="95.0046" height="96.0029" filterUnits="userSpaceOnUse" color-interpolation-filters="sRGB">
<feFlood flood-opacity="0" result="BackgroundImageFix"/>
<feColorMatrix in="SourceAlpha" type="matrix" values="0 0 0 0 0 0 0 0 0 0 0 0 0 0 0 0 0 0 127 0" result="hardAlpha"/>
<feOffset dy="1"/>
<feGaussianBlur stdDeviation="2"/>
<feComposite in2="hardAlpha" operator="out"/>
<feColorMatrix type="matrix" values="0 0 0 0 0 0 0 0 0 0 0 0 0 0 0 0 0 0 0.09 0"/>
<feBlend mode="normal" in2="BackgroundImageFix" result="effect1_dropShadow_2091_442"/>
<feBlend mode="normal" in="SourceGraphic" in2="effect1_dropShadow_2091_442" result="shape"/>
</filter>
<filter id="filter1_i_2091_442" x="14.5479" y="14.7375" width="57.9043" height="58.5304" filterUnits="userSpaceOnUse" color-interpolation-filters="sRGB">
<feFlood flood-opacity="0" result="BackgroundImageFix"/>
<feBlend mode="normal" in="SourceGraphic" in2="BackgroundImageFix" result="shape"/>
<feColorMatrix in="SourceAlpha" type="matrix" values="0 0 0 0 0 0 0 0 0 0 0 0 0 0 0 0 0 0 127 0" result="hardAlpha"/>
<feOffset/>
<feGaussianBlur stdDeviation="0.35"/>
<feComposite in2="hardAlpha" operator="arithmetic" k2="-1" k3="1"/>
<feColorMatrix type="matrix" values="0 0 0 0 0 0 0 0 0 0 0 0 0 0 0 0 0 0 0.1 0"/>
<feBlend mode="normal" in2="shape" result="effect1_innerShadow_2091_442"/>
</filter>
<clipPath id="clip0_2091_442">
<rect width="87" height="88" fill="white"/>
</clipPath>
</defs>
</svg>
