<svg width="201" height="200" viewBox="0 0 201 200" fill="none" xmlns="http://www.w3.org/2000/svg">
    <path d="M66.7271 183.333H133.454C166.985 183.333 172.99 169.917 174.742 153.583L180.998 86.9167C183.25 66.5833 177.411 50 141.795 50H58.3862C22.7704 50 16.9317 66.5833 19.1838 86.9167L25.4395 153.583C27.1911 169.917 33.1965 183.333 66.7271 183.333Z" fill="#D3D3D3"/>
    <path d="M66.7275 50V43.3334C66.7275 28.5834 66.7275 16.6667 93.4186 16.6667H106.764C133.455 16.6667 133.455 28.5834 133.455 43.3334V50" stroke="#D3D3D3" stroke-width="3" stroke-miterlimit="10" stroke-linecap="round" stroke-linejoin="round"/>
    <path d="M116.773 108.333V116.667C116.773 116.75 116.773 116.75 116.773 116.833C116.773 125.917 116.69 133.333 100.091 133.333C83.5763 133.333 83.4094 126 83.4094 116.917V108.333C83.4094 100 83.4094 100 91.7504 100H108.432C116.773 100 116.773 100 116.773 108.333Z" fill="#D3D3D3" stroke="#EFEFEF" stroke-width="3" stroke-miterlimit="10" stroke-linecap="round" stroke-linejoin="round"/>
    <path d="M180.581 91.6667C161.314 105.667 139.294 114 116.773 116.833L180.581 91.6667Z" fill="#D3D3D3"/>
    <path d="M180.581 91.6667C161.314 105.667 139.294 114 116.773 116.833" stroke="#EFEFEF" stroke-width="3" stroke-miterlimit="10" stroke-linecap="round" stroke-linejoin="round"/>
    <path d="M21.8533 93.9167C40.6204 106.75 61.8064 114.5 83.4094 116.917L21.8533 93.9167Z" fill="#D3D3D3"/>
    <path d="M21.8533 93.9167C40.6204 106.75 61.8064 114.5 83.4094 116.917" stroke="#EFEFEF" stroke-width="3" stroke-miterlimit="10" stroke-linecap="round" stroke-linejoin="round"/>
</svg>
