<svg width="200" height="200" viewBox="0 0 200 200" fill="none" xmlns="http://www.w3.org/2000/svg">
    <g clip-path="url(#clip0_129_186)">
        <path d="M183.063 152.75C183.145 155.868 182.526 158.966 181.25 161.812C179.797 164.918 177.879 167.785 175.563 170.312C171.814 174.579 167.159 177.954 161.938 180.188C156.779 182.289 151.257 183.35 145.688 183.312C136.297 183.079 127.05 180.954 118.5 177.062C108.339 172.675 98.714 167.139 89.8125 160.562C80.1589 153.55 71.0305 145.842 62.5 137.5C54.0897 129.001 46.3185 119.893 39.25 110.25C32.7835 101.399 27.3129 91.8626 22.9375 81.8125C19.0463 73.2407 16.9207 63.9733 16.6875 54.5625C16.6501 49.0657 17.6686 43.6128 19.6875 38.5C21.7781 33.1717 25.0472 28.3856 29.25 24.5C31.466 22.1054 34.1402 20.1801 37.114 18.8381C40.0878 17.4961 43.3008 16.7648 46.5625 16.6875C48.897 16.6707 51.2049 17.1836 53.3125 18.1875C55.5691 19.1956 57.5123 20.7933 58.9375 22.8125L78.25 50C79.5823 51.8206 80.6943 53.7927 81.5625 55.875C82.2904 57.467 82.6941 59.1879 82.75 60.9375C82.7934 63.1475 82.1847 65.3213 81 67.1875C79.7013 69.3425 78.1254 71.3177 76.3125 73.0625L70.0625 79.6875C69.6204 80.1143 69.2745 80.6306 69.0482 81.2019C68.8218 81.7732 68.7202 82.3862 68.75 83C68.6586 83.6426 68.6586 84.2949 68.75 84.9375C68.9919 85.4657 69.2006 86.0084 69.375 86.5625C71.6208 90.358 74.2154 93.9359 77.125 97.25C80.875 101.562 84.875 106 89.25 110.437C93.625 114.875 98.0625 118.938 102.5 122.938C105.808 125.847 109.411 128.403 113.25 130.562L114.75 131.25C115.431 131.38 116.131 131.38 116.813 131.25C117.448 131.263 118.08 131.147 118.671 130.911C119.261 130.675 119.798 130.323 120.25 129.875L126.5 123.625C128.312 121.73 130.423 120.146 132.75 118.938C134.608 117.735 136.788 117.125 139 117.188C140.741 117.202 142.462 117.564 144.063 118.25C146.099 119.145 148.046 120.234 149.875 121.5L177.5 141.125C179.474 142.45 181.051 144.286 182.062 146.438C182.781 148.462 183.12 150.602 183.063 152.75Z" fill="#D3D3D3"/>
    </g>
    <defs>
        <clipPath id="clip0_129_186">
            <rect width="200" height="200" fill="white"/>
        </clipPath>
    </defs>
</svg>
