<svg width="250" height="250" viewBox="0 0 250 250" fill="none" xmlns="http://www.w3.org/2000/svg">
    <g clip-path="url(#clip0_147_3)">
        <mask id="mask0_147_3" style="mask-type:luminance" maskUnits="userSpaceOnUse" x="0" y="0" width="250" height="250">
            <path d="M250 0H0V250H250V0Z" fill="white"/>
        </mask>
        <g mask="url(#mask0_147_3)">
            <path d="M97.9 14.6C97.9 15.5 97.6 16.3 97.2 17C96.7 17.7 96 18.3 95.2 18.6C94.4 18.9 93.5 19 92.7 18.8C91.9 18.6 91.1 18.2 90.5 17.6C89.9 17 89.5 16.2 89.3 15.4C89.1 14.6 89.2 13.7 89.5 12.9C89.8 12.1 90.4 11.4 91.1 10.9C91.8 10.4 92.7 10.2 93.5 10.2C94.7 10.2 95.8 10.7 96.6 11.5C97.5 12.4 97.9 13.5 97.9 14.6ZM96.2 14.6C96.2 14.1 96 13.6 95.8 13.1C95.5 12.7 95.1 12.3 94.6 12.1C94.1 11.9 93.6 11.8 93.1 12C92.6 12.1 92.1 12.4 91.8 12.7C91.4 13.1 91.2 13.5 91.1 14C91 14.5 91.1 15 91.2 15.5C91.4 16 91.7 16.4 92.2 16.7C92.7 17 93.1 17.1 93.7 17.1C94.4 17.1 95.1 16.8 95.6 16.3C95.9 16 96.2 15.3 96.2 14.6Z" fill="#C8C8C8"/>
            <path d="M124.9 21.5V19.3H126.3H126.4C126.4 19.3 126.4 19.3 126.4 19.4V21.5V21.6H126.5H128.7C128.7 21.6 128.7 21.6 128.8 21.6C128.8 21.6 128.8 21.6 128.8 21.7C128.8 21.7 128.8 21.7 128.8 21.8V23.1V23.2C128.8 23.2 128.8 23.2 128.8 23.3C128.8 23.3 128.8 23.3 128.7 23.3C128.7 23.3 128.7 23.3 128.6 23.3H126.4V25.5V25.6C126.4 25.6 126.4 25.6 126.3 25.6H125V23.4C125 23.4 125 23.3 124.9 23.3L124.8 23.2H122.7H122.6C122.6 23.2 122.6 23.2 122.6 23.1C122.5 22.6 122.5 22.2 122.6 21.7V21.6C122.6 21.6 122.6 21.6 122.7 21.6L124.9 21.5C124.8 21.6 124.8 21.6 124.9 21.5Z" fill="#D5D5D5"/>
            <path d="M61.4 46.2C61.1 46 60.8 45.7 60.7 45.4C60.3 44.7 59.9 44 59.6 43.3C59.2 42.6 59 41.8 58.9 41C58.8 39.5 59.4 38.3 60.7 37.3C61.3 36.9 61.8 36.4 62.3 35.9C63.7 34.5 64 33 63.2 31.4C62.9 30.8 62.5 30.4 62 30C61.5 29.7 60.8 29.5 60.2 29.5C59.4 29.5 58.5 29.6 57.8 29.9C57.2 30.1 56.7 30.4 56.3 30.8C55.9 31.3 55.6 31.8 55.5 32.4C55.3 33.3 55.3 34.3 55.4 35.2C55.5 35.6 55.4 36 55.3 36.4C55.2 36.8 54.9 37.1 54.6 37.4C54 37.9 53.3 38.1 52.6 38C52 38 51.4 37.7 50.9 37.3C50.5 36.9 50.2 36.4 50 35.8C49.5 34.7 49.3 33.5 49.4 32.2C49.5 31 49.8 29.8 50.5 28.8C51.3 27.5 52.3 26.3 53.6 25.4C54.9 24.5 56.3 23.9 57.8 23.6C59.1 23.3 60.5 23.3 61.9 23.4C64 23.7 66 24.8 67.3 26.4C68 27.3 68.7 28.2 69.2 29.2C69.7 30.2 70 31.3 70.1 32.4C70.2 34.3 69.7 36.3 68.7 37.9C68.3 38.5 67.9 39.1 67.6 39.5L67.1 40.1C66.5 40.9 66.1 41.8 66.1 42.8C66.1 43.1 66.2 43.5 66.2 43.8C66.2 44 66.2 44.3 66.2 44.5C66.1 44.7 66 44.9 65.9 45.1C65.3 45.8 64.5 46.3 63.6 46.4C63.3 46.5 62.9 46.4 62.6 46.4C62 46.6 61.7 46.4 61.4 46.2Z" fill="#C8C8C8"/>
            <path d="M190.1 175.8C189.9 175.8 189.9 175.8 189.9 175.7V175.6V175.5C187.7 169.6 183.7 164.6 178.5 161.1C174.9 158.8 170.9 157.3 166.6 156.7C166.6 132.5 166.6 108.2 166.6 84C166.6 83.9 166.6 83.9 166.7 83.9C166.8 83.9 166.9 83.9 166.9 83.8C166.9 83.8 166.9 83.7 166.8 83.7C159 76.5 151.3 69.2 143.5 62C143.3 61.8 143 61.6 142.8 61.4C142.8 61.4 142.8 61.4 142.7 61.4H96.2C95.9 61.4 95.6 61.4 95.4 61.4C95.4 58.1 95.4 54.7 95.4 51.4C95.4 49.2 95.4 47.9 95.5 47.3C95.7 46 96.1 44.7 96.8 43.6C97.5 42.5 98.4 41.5 99.4 40.7C100.6 39.8 102 39.1 103.5 38.8C104.8 38.6 106.2 38.5 107.6 38.6H180.2C181.6 38.6 182.9 38.7 184.3 38.9C185.6 39.2 186.8 39.7 187.9 40.5C189 41.3 189.9 42.2 190.6 43.3C191.3 44.3 191.8 45.5 192 46.7C192.2 47.9 192.3 49.1 192.2 50.3C192.2 90 192.2 129.8 192.2 169.5C192.2 171.7 191.5 174 190.1 175.8Z" fill="#D5D5D5"/>
            <path d="M64.8 53C64.4 52.7 64.1 52.4 63.9 51.9C63.8 51.5 63.7 51 63.7 50.6C63.7 50 63.9 49.4 64.3 48.9C64.7 48.4 65.2 48.1 65.8 47.9C66.2 47.8 66.7 47.8 67.1 47.9C67.8 48.1 68.4 48.5 68.9 49.1C69.1 49.4 69.2 49.7 69.3 50C69.4 50.3 69.4 50.7 69.3 51C69.3 51.4 69.1 51.8 68.9 52.1C68.7 52.4 68.3 52.7 68 52.9C67.5 53.2 67 53.3 66.4 53.3C65.8 53.4 65.3 53.3 64.8 53Z" fill="#CCCCCC"/>
            <path d="M95.4 61.4C95.7 61.4 96 61.4 96.2 61.4H142.7C142.7 61.4 142.7 61.4 142.8 61.4C142.5 65.9 142.3 70.3 142 74.8C142 74.8 141.9 75.4 141.8 76.4C141.5 79 142.4 81 144.4 82.3C145.3 82.9 146.3 83.2 147.3 83.5C148.3 83.7 149.4 83.8 150.4 83.8C155.8 83.8 161.2 83.8 166.6 83.8C166.5 83.8 166.5 83.8 166.5 83.9C166.5 108.1 166.5 132.4 166.5 156.6C158.3 155.7 151 157.8 144.6 162.8C144.3 162.8 144.1 162.7 143.8 162.7H82.8C82.8 162.7 82.7 162.7 82.7 162.8V162.9V166.6V166.7C82.7 166.7 82.7 166.7 82.8 166.7H141C139.6 168.4 138.4 170.2 137.4 172.1C137.1 172 136.9 172 136.6 172C135 172.1 133.1 172.1 130.9 172.1C115.2 172.1 99.2 172.1 83.1 172.1C83 172.1 83 172.1 82.9 172.2C82.9 172.2 82.8 172.3 82.8 172.4V176C99.6 176 116.4 176 133.1 176C133.3 176 133.7 176 134.3 176C134.7 176 135.1 176 135.5 176C134.2 180 133.8 184.3 134.3 188.5H80.2C78 188.5 75.8 187.8 74.1 186.4C73 185.6 72 184.5 71.3 183.3C70.6 182.1 70.2 180.7 70 179.3C69.9 178.8 69.9 177.7 69.9 176.2C69.9 141.3 69.9 106.4 69.9 71.5C69.9 69.9 70.3 68.3 71 66.8C71.7 65.3 72.8 64.1 74.1 63.1C76.1 61.7 78.5 61 80.9 61.1C82.4 61.5 87.3 61.5 95.4 61.4ZM86.2 74.5C86.1 74.4 86.1 74.3 86.1 74.2C86.1 74.1 86.1 74.1 86.1 74L86.2 73.9C87.3 72.8 88.5 71.6 89.7 70.3C89.9 70.1 90 70 90.1 69.7C90.1 69.6 90.1 69.4 90.1 69.3C90.1 69.2 90 69.1 89.9 69C89.7 68.9 89.6 68.8 89.5 68.6C89.2 68.3 88.9 68.2 88.7 68.3C88.5 68.4 88.3 68.6 88.1 68.8C86.9 70 85.7 71.2 84.5 72.4L80.3 68.2L80.2 68.1C80.1 68.1 80.1 68.1 80 68.1C79.9 68.1 79.9 68.1 79.8 68.1C79.7 68.1 79.7 68.2 79.7 68.2L78.9 69C78.8 69.1 78.8 69.1 78.7 69.2C78.7 69.3 78.6 69.4 78.6 69.4C78.6 69.5 78.6 69.6 78.7 69.6C78.7 69.7 78.8 69.7 78.9 69.8L82.9 73.8L78.9 77.9C78.8 77.9 78.8 78 78.8 78.1C78.8 78.2 78.8 78.2 78.8 78.3C78.8 78.4 78.8 78.4 78.8 78.5C78.8 78.6 78.9 78.6 78.9 78.7L79.7 79.5C79.7 79.6 79.8 79.6 79.9 79.7C80 79.7 80.1 79.8 80.1 79.8C80.2 79.8 80.3 79.8 80.3 79.7C80.4 79.7 80.4 79.6 80.5 79.5L84.4 75.6L84.5 75.5C84.6 75.5 84.6 75.5 84.6 75.6L88.6 79.6L88.7 79.7C88.8 79.7 88.8 79.7 88.9 79.7C89 79.7 89 79.7 89.1 79.7C89.2 79.7 89.2 79.6 89.3 79.6C89.6 79.4 89.8 79.1 90 78.9C90.1 78.8 90.1 78.7 90.2 78.6C90.3 78.5 90.3 78.4 90.3 78.3C90.3 78.2 90.3 78.1 90.2 78C90.2 77.9 90.1 77.8 90 77.7C88.8 77 87.6 75.8 86.2 74.5ZM103 101C103 100.3 102.8 99.7 102.4 99.1C102 98.5 101.5 98.1 100.9 97.9C100.3 97.6 99.6 97.6 98.9 97.7C98.2 97.8 97.6 98.2 97.2 98.6C96.7 99.1 96.4 99.7 96.3 100.3C96.2 101 96.2 101.6 96.5 102.3C96.8 102.9 97.2 103.4 97.7 103.8C98.3 104.2 98.9 104.4 99.6 104.4C100.5 104.4 101.4 104 102 103.4C102.7 102.8 103 101.9 103 101ZM137.8 101C137.8 100.3 137.6 99.7 137.2 99.1C136.8 98.5 136.3 98.1 135.7 97.9C135.1 97.6 134.4 97.6 133.7 97.7C133 97.8 132.4 98.2 132 98.6C131.5 99.1 131.2 99.7 131.1 100.3C131 101 131 101.6 131.3 102.3C131.6 102.9 132 103.4 132.5 103.8C133.1 104.2 133.7 104.4 134.4 104.4C134.8 104.4 135.3 104.3 135.7 104.1C136.1 103.9 136.5 103.7 136.8 103.4C137.1 103.1 137.4 102.7 137.5 102.3C137.7 101.9 137.8 101.5 137.8 101ZM119.4 108.4C121.9 109 124 110.6 125.4 112.8C126.1 114 126.6 115.2 126.9 116.6V116.7C126.9 116.7 126.9 116.7 127 116.7H128.5C127.8 113.1 126.1 110.3 123.2 108.4C122.1 107.6 120.8 107.1 119.5 106.7C118 106.3 116.3 106.2 114.8 106.5C113.2 106.7 111.7 107.3 110.4 108.2C107.4 110.1 105.5 112.9 104.8 116.6C104.8 116.6 104.8 116.6 104.8 116.7C104.8 116.7 104.8 116.7 104.8 116.8C104.8 116.8 104.8 116.8 104.9 116.8H106.4H106.5C106.5 116.8 106.5 116.8 106.5 116.7C106.9 114.5 108 112.5 109.6 111C111.2 109.5 113.2 108.5 115.3 108.2C116.7 107.9 118.1 108 119.4 108.4ZM154.8 135.1C154.8 135 154.7 135 154.7 135H83.1V138.8H154.8H154.9C154.9 138.8 154.9 138.8 154.9 138.7L154.8 135.1ZM154.8 144.4L83 144.3V148.2H154.8V144.4ZM154.8 153.7L83 153.6V157.5H154.8V153.7Z" fill="#EDEDED"/>
            <path d="M142.9 61.5C143.2 61.7 143.4 61.8 143.6 62.1C151.4 69.3 159.1 76.5 166.9 83.8L167 83.9C167 84 167 84 166.8 84C161.4 84 156 83.9 150.6 84C149.5 84 148.5 83.9 147.5 83.7C146.5 83.5 145.5 83.1 144.6 82.5C142.6 81.2 141.7 79.2 142 76.6C142.1 75.5 142.2 75 142.2 75C142.4 70.4 142.7 66 142.9 61.5Z" fill="#BABABA"/>
            <path d="M86.2 74.5C87.6 75.8 88.8 77 89.8 78.1C89.9 78.2 89.9 78.3 90 78.4C90 78.5 90.1 78.6 90.1 78.7C90.1 78.8 90.1 78.9 90 79C90 79.1 89.9 79.2 89.8 79.3C89.6 79.6 89.3 79.8 89.1 80C89.1 80 89 80.1 88.9 80.1C88.8 80.1 88.8 80.1 88.7 80.1C88.6 80.1 88.6 80.1 88.5 80.1C88.4 80.1 88.4 80 88.4 80L84.4 76L84.3 75.9C84.2 75.9 84.2 75.9 84.2 76L80.3 79.9C80.3 80 80.2 80 80.1 80.1C80 80.1 79.9 80.2 79.9 80.2C79.8 80.2 79.7 80.2 79.7 80.1C79.6 80.1 79.6 80 79.5 79.9L78.6 79C78.5 79 78.5 78.9 78.5 78.8C78.5 78.7 78.5 78.7 78.5 78.6C78.5 78.5 78.5 78.5 78.5 78.4C78.5 78.3 78.6 78.3 78.6 78.2L82.6 74.1L78.6 70.1C78.5 70 78.5 70 78.4 69.9C78.4 69.8 78.3 69.7 78.3 69.7C78.3 69.6 78.3 69.5 78.4 69.5C78.4 69.4 78.5 69.4 78.6 69.3L79.5 68.5L79.6 68.4C79.7 68.4 79.7 68.4 79.8 68.4C79.9 68.4 79.9 68.4 80 68.4C80.1 68.4 80.1 68.5 80.1 68.5L84.3 72.7C85.5 71.5 86.7 70.3 87.9 69.1C88.1 68.9 88.3 68.8 88.5 68.6C88.8 68.5 89 68.6 89.3 68.9C89.4 69 89.6 69.2 89.7 69.3C89.8 69.4 89.9 69.5 89.9 69.6C89.9 69.7 90 69.9 89.9 70C89.8 70.2 89.7 70.4 89.5 70.6C88.3 71.9 87.1 73.1 86 74.2L85.9 74.3C85.9 74.3 85.9 74.4 85.9 74.5C85.9 74.6 85.9 74.6 85.9 74.7C86.2 74.4 86.2 74.5 86.2 74.5Z" fill="#C8C8C8"/>
            <path d="M65.8 72.6C65.9 73.1 65.9 73.5 65.8 74C65.8 74.1 65.8 74.1 65.7 74.2C65.7 74.2 65.6 74.3 65.5 74.3C63.7 74.2 61.9 74.3 60.2 74.7H60.1C60.1 74.7 60.1 74.7 60 74.6L59.6 73.2C59.6 73.2 59.6 73.2 59.6 73.1C59.6 73.1 59.6 73.1 59.6 73C59.6 73 59.6 73 59.6 72.9C59.6 72.8 59.6 72.9 59.7 72.9C60.9 72.6 62.1 72.4 63.4 72.4C63.8 72.4 64.2 72.4 64.5 72.4C64.8 72.4 65.2 72.4 65.6 72.4H65.7C65.8 72.5 65.8 72.5 65.8 72.6Z" fill="#BDBDBD"/>
            <path d="M55.5 77.4C55.6 77.5 55.6 77.6 55.5 77.6C54.5 78.9 53.9 80.5 53.8 82.2V82.3H53.7H52.2H52.1V82.2C52.1 80.1 52.9 78.1 54.3 76.4L55.5 77.4Z" fill="#BDBDBD"/>
            <path d="M53.8 94.3C53.8 94.4 53.8 94.4 53.8 94.3C53.7 94.4 53.8 94.4 53.8 94.3L52.2 94.4H52.1C52.1 94.4 52.1 94.4 52.1 94.3V88.5V88.4C52.1 88.4 52.1 88.4 52.2 88.4H53.7H53.8C53.8 88.4 53.8 88.4 53.8 88.5V94.3Z" fill="#BDBDBD"/>
            <path d="M206.2 92.8V90.7V90.6V90.5C206.2 90.5 206.2 90.5 206.3 90.4H206.4H207.7V92.4C207.7 92.5 207.7 92.5 207.8 92.6C207.8 92.7 207.9 92.7 208 92.7H210.1H210.2C210.2 92.7 210.2 92.7 210.2 92.8V94.1V94.2C210.2 94.2 210.2 94.2 210.1 94.2H207.9H207.8C207.8 94.2 207.8 94.2 207.8 94.3V96.5V96.6C207.8 96.6 207.8 96.6 207.7 96.6H206.4H206.3C206.3 96.6 206.3 96.6 206.2 96.6C206.2 96.6 206.2 96.6 206.2 96.5C206.2 96.5 206.2 96.5 206.2 96.4V94.4V94.3H206.1H204H203.9V94.2L203.8 92.9C203.8 92.9 203.8 92.9 203.8 92.8C203.8 92.8 203.8 92.8 203.8 92.7C203.8 92.7 203.8 92.7 203.9 92.7C204 92.7 203.9 92.7 204 92.7H206.2C206.1 92.9 206.1 92.9 206.2 92.8C206.2 92.9 206.1 92.9 206.2 92.8Z" fill="#D5D5D5"/>
            <path d="M103 101C103 101.7 102.8 102.3 102.4 102.9C102 103.5 101.5 103.9 100.9 104.1C100.3 104.4 99.6 104.4 98.9 104.3C98.2 104.2 97.6 103.8 97.2 103.4C96.7 102.9 96.4 102.3 96.3 101.7C96.2 101 96.2 100.4 96.5 99.7C96.8 99.1 97.2 98.6 97.7 98.2C98.3 97.8 98.9 97.6 99.6 97.6C100 97.6 100.5 97.7 100.9 97.9C101.3 98.1 101.7 98.3 102 98.6C102.3 98.9 102.6 99.3 102.7 99.7C102.9 100.1 103 100.6 103 101Z" fill="#BABABA"/>
            <path d="M137.8 101C137.8 101.7 137.6 102.3 137.2 102.9C136.8 103.5 136.3 103.9 135.7 104.1C135.1 104.4 134.4 104.4 133.7 104.3C133 104.2 132.4 103.8 132 103.4C131.5 102.9 131.2 102.3 131.1 101.7C131 101 131 100.4 131.3 99.7C131.6 99.1 132 98.6 132.5 98.2C133.1 97.8 133.7 97.6 134.4 97.6C135.3 97.6 136.2 98 136.8 98.6C137.5 99.3 137.8 100.1 137.8 101Z" fill="#BABABA"/>
            <path d="M53.8 106.3C53.7 106.4 53.7 106.4 53.8 106.3L52.2 106.4H52.1V106.3V100.5V100.4H52.2H53.7H53.8V100.5V106.3Z" fill="#BDBDBD"/>
            <path d="M115.4 108.1C113.2 108.4 111.2 109.3 109.7 110.9C108.1 112.4 107 114.4 106.6 116.6V116.7C106.6 116.7 106.6 116.7 106.5 116.7H105C105 116.7 105 116.7 104.9 116.7C104.9 116.7 104.9 116.7 104.9 116.6C104.9 116.6 104.9 116.6 104.9 116.5C105.6 112.7 107.5 109.9 110.5 108.1C111.9 107.3 113.4 106.7 114.9 106.5C116.5 106.3 118.1 106.3 119.6 106.7C120.9 107 122.2 107.6 123.3 108.3C126.2 110.2 128 113 128.6 116.6H127.1H127V116.5C126.8 115.2 126.3 113.9 125.5 112.7C124.1 110.5 122 109 119.5 108.3C118.1 108 116.8 107.9 115.4 108.1Z" fill="#BABABA"/>
            <path d="M224.6 116.7C224.6 117.7 224.3 118.6 223.8 119.5C223.3 120.4 222.5 121 221.6 121.3C220.7 121.6 219.7 121.8 218.7 121.6C217.7 121.4 216.8 120.9 216.1 120.2C215.4 119.5 214.9 118.6 214.7 117.6C214.5 116.6 214.6 115.6 215 114.7C215.4 113.8 216 113 216.8 112.5C217.6 112 218.6 111.7 219.6 111.7C220.3 111.7 220.9 111.8 221.5 112.1C222.1 112.4 222.7 112.7 223.1 113.2C223.6 113.7 223.9 114.2 224.2 114.8C224.5 115.4 224.6 116 224.6 116.7ZM222.9 116.7C222.9 116.1 222.7 115.4 222.4 114.9C222 114.4 221.5 113.9 220.9 113.7C220.3 113.5 219.6 113.4 219 113.5C218.4 113.6 217.8 113.9 217.3 114.4C216.8 114.9 216.5 115.4 216.4 116.1C216.3 116.7 216.3 117.4 216.6 118C216.8 118.6 217.3 119.1 217.8 119.5C218.3 119.9 219 120.1 219.6 120.1C220.5 120.1 221.3 119.8 221.9 119.1C222.6 118.4 222.9 117.6 222.9 116.7Z" fill="#C8C8C8"/>
            <path d="M53.8 118.3C53.8 118.4 53.8 118.4 53.8 118.3L52.2 118.4C52.2 118.4 52.2 118.4 52.1 118.4C52.1 118.4 52.1 118.4 52.1 118.3V112.5C52.1 112.5 52.1 112.5 52.1 112.4C52.1 112.4 52.1 112.4 52.2 112.4H53.7C53.7 112.4 53.7 112.4 53.8 112.4C53.8 112.4 53.8 112.4 53.8 112.5V118.3Z" fill="#BDBDBD"/>
            <path d="M53.8 130.2C53.8 130.3 53.8 130.3 53.8 130.2C53.7 130.3 53.7 130.3 53.7 130.3H52.2V124.5H53.7L53.8 130.2Z" fill="#BDBDBD"/>
            <path d="M154.8 138.8C154.8 138.9 154.8 138.9 154.8 138.8C154.8 138.9 154.7 138.9 154.7 138.9H83.1V135.1H154.8H154.9C154.9 135.1 154.9 135.1 154.9 135.2L154.8 138.8Z" fill="#D3D3D3"/>
            <path d="M53.8 142.2C53.8 142.3 53.8 142.3 53.8 142.2L52.2 142.3C52.2 142.3 52.2 142.3 52.1 142.3C52.1 142.3 52.1 142.3 52.1 142.2V136.4C52.1 136.4 52.1 136.4 52.1 136.3C52.1 136.2 52.1 136.3 52.2 136.3H53.7C53.7 136.3 53.7 136.3 53.8 136.3C53.8 136.3 53.8 136.3 53.8 136.4V142.2Z" fill="#BDBDBD"/>
            <path d="M39.1 141.9V139.7H40.4C40.4 139.7 40.4 139.7 40.5 139.7C40.5 139.7 40.5 139.7 40.6 139.7C40.6 139.7 40.6 139.7 40.6 139.8C40.6 139.8 40.6 139.8 40.6 139.9V141.9V142C40.6 142 40.6 142 40.6 142.1C40.6 142.1 40.6 142.1 40.7 142.1C40.7 142.1 40.7 142.1 40.8 142.1H42.9H43C43 142.1 43 142.1 43 142.2V143.1C43 143.2 43 143.2 43 143.3C43.1 143.5 43 143.7 42.7 143.7C42 143.7 41.3 143.7 40.7 143.7H40.6C40.6 143.7 40.6 143.7 40.6 143.8C40.5 144.4 40.5 145 40.6 145.6C40.7 146 40.5 146.2 40.2 146.2H39.9H39.1C39.1 146.2 39 146.2 39 146.1L38.9 146V143.8H36.7C36.7 143.8 36.7 143.8 36.7 143.7V142.4C36.7 142.3 36.7 142.3 36.7 142.3L36.8 142.2H39H39.1C39.1 142 39.1 142 39.1 141.9Z" fill="#C8C8C8"/>
            <path d="M154.8 148.2C154.8 148.3 154.8 148.3 154.8 148.2L83 148.3V144.4H154.8V148.2Z" fill="#D3D3D3"/>
            <path d="M53.8 154.2C53.7 154.3 53.7 154.3 53.7 154.3H52.2H52.1V154.2V148.5V148.4H52.2H53.7H53.8V148.5V154.2Z" fill="#BDBDBD"/>
            <path d="M154.8 157.5L83 157.6V153.7H154.8V157.5Z" fill="#D3D3D3"/>
            <path d="M166.7 156.8C170.9 157.3 175 158.8 178.6 161.2C183.8 164.7 187.8 169.7 190 175.6V175.7V175.8C189.9 175.9 190 176 190.2 175.9V176V176.1L190.3 176.3C191.9 181.2 192.1 186.4 191 191.4C189.9 196.4 187.4 201 183.9 204.7C182.7 205.9 181.4 207.1 180 208.1C176 211.1 171.3 212.9 166.4 213.5C162.8 213.9 159.1 213.7 155.6 212.8C154.3 212.5 153 212 151.8 211.5C146.8 209.4 142.5 205.8 139.4 201.4C139.4 201.4 139.4 201.4 139.3 201.3H139.2H136.9H136.8C136.8 201.3 136.8 201.3 136.8 201.2C136.7 200.7 136.7 200.3 136.8 199.8C136.8 199.7 136.8 199.7 136.9 199.6C137 199.5 137 199.5 137.1 199.5H138.3C136.3 196 135.1 192.2 134.6 188.2C134.2 184.2 134.6 180.2 135.9 176.4L137.5 172.5C138.5 170.6 139.7 168.8 141.1 167.1C142.3 165.7 143.6 164.4 145 163.2C151.2 158 158.5 155.9 166.7 156.8ZM145.5 172.3C144.6 173.5 143.8 174.8 143.2 176.2C141.8 179.3 141.1 182.7 141.3 186C141.3 186.8 141.4 187.7 141.5 188.5C141.5 188.5 141.5 188.5 141.5 188.6C142.1 192 143.5 195.2 145.5 198C146.3 199.1 147.2 200.1 148.2 201C151.6 204.1 155.8 206.1 160.4 206.6C161.7 206.8 163.1 206.8 164.5 206.7C169 206.4 173.2 204.7 176.7 201.9C179 200.1 180.9 197.8 182.3 195.2C184.8 190.5 185.5 185 184.2 179.8V179.7C184.2 179.7 184.2 179.6 184.1 179.6C184 179.6 184 179.6 183.9 179.6C184 179.6 184 179.5 184 179.5C184 179.4 184 179.4 184 179.3C183 175.5 180.9 172 178 169.3C174.9 166.3 171 164.3 166.8 163.6H166.7C166.7 163.6 166.7 163.6 166.6 163.6C166.5 163.5 166.4 163.5 166.3 163.5C162.4 162.9 158.4 163.3 154.8 164.8C154.8 164.8 154.7 164.8 154.7 164.9V165V166.7C154.7 166.7 154.7 166.7 154.7 166.8C154.7 166.8 154.7 166.8 154.7 166.9C154.7 166.9 154.7 166.9 154.6 166.9C154.6 166.9 154.6 166.9 154.5 166.9H151.2C151.1 166.9 150.9 166.9 150.8 167C148.8 168.4 147 170.2 145.5 172.3Z" fill="#BABABA"/>
            <path d="M53.8 166.2L52.1 166.3C52.1 166.3 52.1 166.3 52 166.3C52 166.3 52 166.3 52 166.2V160.4C52 160.4 52 160.4 52 160.3C52 160.3 52 160.3 52.1 160.3H53.7C53.7 160.3 53.7 160.3 53.8 160.3C53.9 160.3 53.8 160.3 53.8 160.4V166.2Z" fill="#BDBDBD"/>
            <path d="M144.8 163C143.4 164.2 142.1 165.5 140.9 166.9H83.1H83C83 166.9 83 166.9 83 166.8V163.1V163C83 163 83.1 163 83.1 162.9H144.1C144.3 162.9 144.6 162.9 144.8 163Z" fill="#D3D3D3"/>
            <path d="M166.8 163.8C166.8 164.1 166.7 164.3 166.7 164.6V178.7C166.7 178.9 166.7 179.1 166.7 179.4C166.7 179.6 166.7 179.9 166.7 180.1C166.3 182.5 165.2 184.6 163.4 186.2C162.4 187.1 161.3 187.8 160.1 188.2C158.8 188.6 157.5 188.8 156.2 188.8C151.4 188.8 146.6 188.8 141.7 188.8C141.7 188.8 141.7 188.8 141.7 188.7C141.6 187.9 141.5 187 141.5 186.2C141.3 182.8 142 179.4 143.4 176.4H154.8H154.9H155C155 176.4 155 176.4 155.1 176.3V176.2V172.6V172.5C155.1 172.5 155.1 172.5 155 172.5H145.8C147.3 170.4 149.2 168.6 151.3 167.2C151.4 167.1 151.6 167.1 151.7 167.1H155C155 167.1 155.1 167.1 155.1 167L155.2 166.9V165.2V165.1C155.2 165.1 155.2 165 155.3 165C159 163.6 162.9 163.1 166.8 163.7C166.6 163.6 166.7 163.7 166.8 163.8Z" fill="#D5D5D5"/>
            <path d="M183.9 179.7C183.1 179.9 182.4 179.9 181.6 179.9C176.6 179.9 171.6 179.9 166.6 179.9C166.6 179.7 166.6 179.4 166.6 179.2C166.6 179 166.6 178.8 166.6 178.5V164.4C166.6 164.1 166.6 163.9 166.7 163.6C166.7 163.6 166.7 163.6 166.8 163.6H166.9C171.1 164.3 175 166.3 178.1 169.3C181 172 183 175.5 184.1 179.3C184.1 179.4 184.1 179.4 184.1 179.5C184 179.7 184 179.7 183.9 179.7Z" fill="#C6C6C6"/>
            <path d="M35.1 170C35.1 171 34.8 172.1 34.2 172.9C33.6 173.8 32.8 174.5 31.8 174.9C30.8 175.3 29.8 175.4 28.7 175.2C27.7 175 26.7 174.5 26 173.8C25.3 173.1 24.8 172.1 24.6 171.1C24.4 170.1 24.5 169 24.9 168C25.3 167 26 166.2 26.8 165.6C27.7 165 28.7 164.7 29.7 164.7C31.1 164.7 32.4 165.3 33.4 166.2C34.5 167.3 35.1 168.6 35.1 170ZM33.4 170C33.4 169.3 33.2 168.6 32.8 168C32.4 167.4 31.8 167 31.2 166.7C30.5 166.4 29.8 166.4 29.1 166.5C28.4 166.6 27.8 167 27.3 167.5C26.8 168 26.5 168.6 26.3 169.3C26.2 170 26.2 170.7 26.5 171.4C26.8 172.1 27.2 172.6 27.8 173C28.4 173.4 29.1 173.6 29.8 173.6C30.8 173.6 31.7 173.2 32.3 172.6C33 171.9 33.4 171 33.4 170Z" fill="#C8C8C8"/>
            <path d="M53.8 178.1C53.7 178.2 53.7 178.2 53.8 178.1L52.2 178.2H52.1C52.1 178.2 52.1 178.2 52.1 178.1V172.3H53.6L53.8 178.1Z" fill="#BDBDBD"/>
            <path d="M137.4 172.3L135.8 176.2C135.4 176.2 135 176.2 134.6 176.2C134 176.2 133.6 176.2 133.4 176.2C116.7 176.1 99.9 176.1 83.1 176.2V172.6C83.1 172.5 83.1 172.5 83.2 172.4C83.2 172.4 83.3 172.3 83.4 172.3C99.5 172.3 115.4 172.3 131.2 172.3C133.4 172.3 135.3 172.3 136.9 172.2C136.9 172.2 137.2 172.2 137.4 172.3Z" fill="#D3D3D3"/>
            <path d="M143.2 176.2C143.8 174.8 144.5 173.5 145.5 172.3H154.7H154.8C154.8 172.3 154.8 172.3 154.8 172.4V176V176.1V176.2C154.8 176.2 154.8 176.2 154.7 176.2H154.6H143.2Z" fill="#C6C6C6"/>
            <path d="M183.9 179.7C184 179.7 184 179.7 184.1 179.7C184.1 179.7 184.2 179.7 184.2 179.8V179.9C185.5 185.1 184.8 190.6 182.3 195.3C180.9 197.9 179 200.2 176.7 202C173.3 204.8 169 206.5 164.5 206.8C163.1 206.9 161.8 206.9 160.4 206.7C155.9 206.2 151.6 204.3 148.2 201.1C147.2 200.2 146.3 199.2 145.5 198.1C143.4 195.3 142.1 192.1 141.5 188.7C146.3 188.7 151.1 188.7 156 188.7C157.3 188.7 158.6 188.5 159.9 188.1C161.1 187.7 162.3 187 163.2 186.1C165 184.5 166.1 182.4 166.5 180C171.5 179.9 176.5 179.9 181.5 180C182.4 180 183.1 179.9 183.9 179.7ZM147.5 196.5C147.7 196.6 147.8 196.7 147.9 196.8C148.1 197.1 148.3 197.1 148.4 197C148.5 196.9 148.6 196.8 148.7 196.7C149.9 195.1 150.5 193.2 150.5 191.3V191.2C150.5 191.2 150.5 191.2 150.4 191.2C149.9 191.1 149.4 191.1 148.9 191.2H148.8V191.3C148.7 192.8 148.2 194.3 147.3 195.6C147.2 195.7 147.2 195.8 147.1 195.8C147 196.1 147 196.3 147.5 196.5Z" fill="#BFBFBF"/>
            <path d="M53.8 190.1C53.7 190.2 53.8 190.2 53.8 190.1L52.2 190.2V184.4V184.3H52.3H53.8H53.9V184.4V190.1H53.8Z" fill="#BDBDBD"/>
            <path d="M147.5 196.5C147.1 196.3 147 196.1 147.3 195.8C147.4 195.7 147.4 195.6 147.5 195.6C148.4 194.3 148.9 192.8 149 191.3V191.2C149 191.2 149 191.2 149.1 191.2C149.6 191.1 150.1 191.1 150.6 191.2H150.7V191.3C150.7 193.3 150.1 195.2 148.9 196.7C148.8 196.8 148.7 196.9 148.6 197C148.4 197.1 148.3 197.1 148.1 196.8C147.8 196.7 147.7 196.6 147.5 196.5Z" fill="#D3D3D3"/>
            <path d="M55.4 198.2C54.8 197.7 54.3 197.1 53.8 196.4C53.8 196.4 53.8 196.4 53.8 196.3V196.2L55 195.4H55.1C55.1 195.4 55.2 195.4 55.2 195.5C56.2 196.9 57.6 198 59.2 198.6L59.3 198.7C59.3 198.7 59.3 198.8 59.3 198.9L58.8 200.1L58.7 200.2C58.7 200.2 58.6 200.2 58.5 200.2C57.4 199.8 56.3 199.1 55.4 198.2Z" fill="#BDBDBD"/>
            <path d="M70.9 201C70.9 201.1 70.9 201.1 70.9 201C70.8 201.1 70.8 201.1 70.8 201.1H65.1C65.1 201.1 65.1 201.1 65 201.1C65 201.1 65 201.1 65 201V199.6C65 199.6 65 199.6 65 199.5C65 199.5 65 199.5 65.1 199.5H70.8H70.9V199.6V201Z" fill="#BDBDBD"/>
            <path d="M82.9 201.1C82.8 201.2 82.8 201.2 82.9 201.1L77 201.2H76.9V201.1V199.6V199.5H77H82.8H82.9V199.6V201.1Z" fill="#BDBDBD"/>
            <path d="M94.9 201C94.9 201.1 94.9 201.1 94.9 201C94.8 201.1 94.8 201.1 94.8 201.1C94.8 201.1 94.8 201.1 94.7 201.1H89C89 201.1 89 201.1 88.9 201.1C88.9 201.1 88.9 201.1 88.9 201V199.5V199.4H89H94.7C94.7 199.4 94.7 199.4 94.8 199.4C94.8 199.4 94.8 199.4 94.8 199.5L94.9 201Z" fill="#BDBDBD"/>
            <path d="M106.9 201V201.1H106.8H101H100.9V201V199.6C100.9 199.6 100.9 199.6 100.9 199.5C100.9 199.5 100.9 199.5 101 199.5H106.7C106.7 199.5 106.7 199.5 106.8 199.5C106.8 199.5 106.8 199.5 106.8 199.6L106.9 201Z" fill="#BDBDBD"/>
            <path d="M118.8 201C118.8 201.1 118.8 201.1 118.8 201C118.7 201.1 118.7 201.1 118.7 201.1H113H112.9V201V199.5V199.4H113H118.7C118.7 199.4 118.7 199.4 118.8 199.4C118.8 199.4 118.8 199.4 118.8 199.5V201Z" fill="#BDBDBD"/>
            <path d="M130.8 201C130.8 201.1 130.8 201.1 130.8 201C130.7 201.1 130.7 201.1 130.7 201.1H124.9H124.8V201V199.5V199.4H124.9H130.7H130.8V199.5V201Z" fill="#BDBDBD"/>
            <path d="M183.9 204.7L186.3 207.1C186.4 207.2 186.4 207.2 186.5 207.2C186.6 207.2 186.6 207.2 186.7 207.1C187.2 206.7 187.8 206.3 188.4 206H188.5H188.6C189.3 206.4 190 206.9 190.5 207.6C196.2 214.3 204.5 224.1 215.5 236.9C215.5 237 215.6 237 215.6 237.1C215.8 238.7 215.6 240.2 214.9 241.7C214.6 242.5 214 243.1 213.2 243.4C212.5 243.7 211.7 243.9 211 243.9C210 243.9 208.9 243.8 208 243.4C207.6 243.3 207.3 243.1 207 242.8L206.8 242.6C198.2 232.9 189.5 223.1 180.9 213.4V213.3V213.2L182.7 210.9V210.8V210.7L180.1 208.1C181.4 207.1 182.7 205.9 183.9 204.7Z" fill="#C8C8C8"/>
        </g>
    </g>
    <defs>
        <clipPath id="clip0_147_3">
            <rect width="250" height="250" fill="white"/>
        </clipPath>
    </defs>
</svg>
