<svg width="60" height="60" viewBox="0 0 60 60" fill="none" xmlns="http://www.w3.org/2000/svg">
    <circle cx="30" cy="30" r="30" fill="#FFD9E6"/>
    <g clip-path="url(#clip0_0_1)">
        <path d="M47.6125 40.55C47.629 41.1737 47.5051 41.7931 47.25 42.3625C46.9594 42.9837 46.5758 43.5569 46.1125 44.0625C45.3629 44.9159 44.4318 45.5907 43.3875 46.0375C42.3558 46.4577 41.2514 46.6701 40.1375 46.6625C38.2593 46.6159 36.4099 46.1907 34.7 45.4125C32.6678 44.5351 30.7428 43.4279 28.9625 42.1125C27.0318 40.7101 25.2061 39.1685 23.5 37.5C21.8179 35.8003 20.2637 33.9787 18.85 32.05C17.5567 30.2799 16.4626 28.3725 15.5875 26.3625C14.8092 24.6482 14.3841 22.7947 14.3375 20.9125C14.33 19.8131 14.5337 18.7226 14.9375 17.7C15.3556 16.6343 16.0094 15.6771 16.85 14.9C17.2932 14.4211 17.828 14.036 18.4228 13.7676C19.0175 13.4992 19.6601 13.353 20.3125 13.3375C20.7794 13.3341 21.241 13.4367 21.6625 13.6375C22.1138 13.8391 22.5024 14.1587 22.7875 14.5625L26.65 20C26.9164 20.3641 27.1388 20.7585 27.3125 21.175C27.4581 21.4934 27.5388 21.8376 27.55 22.1875C27.5586 22.6295 27.4369 23.0643 27.2 23.4375C26.9402 23.8685 26.625 24.2635 26.2625 24.6125L25.0125 25.9375C24.924 26.0229 24.8549 26.1261 24.8096 26.2404C24.7643 26.3546 24.744 26.4772 24.75 26.6C24.7317 26.7285 24.7317 26.859 24.75 26.9875C24.7983 27.0931 24.8401 27.2017 24.875 27.3125C25.3241 28.0716 25.843 28.7872 26.425 29.45C27.175 30.3125 27.975 31.2 28.85 32.0875C29.725 32.975 30.6125 33.7875 31.5 34.5875C32.1615 35.1694 32.8821 35.6805 33.65 36.1125L33.95 36.25C34.0862 36.276 34.2262 36.276 34.3625 36.25C34.4896 36.2525 34.616 36.2295 34.7341 36.1822C34.8522 36.135 34.9596 36.0645 35.05 35.975L36.3 34.725C36.6623 34.346 37.0847 34.0292 37.55 33.7875C37.9216 33.5471 38.3575 33.425 38.8 33.4375C39.1482 33.4405 39.4924 33.5127 39.8125 33.65C40.2198 33.8291 40.6091 34.0468 40.975 34.3L46.5 38.225C46.8948 38.49 47.2101 38.8572 47.4125 39.2875C47.5561 39.6925 47.6239 40.1205 47.6125 40.55Z" stroke="#FF387B" stroke-width="2" stroke-miterlimit="10"/>
    </g>
    <defs>
        <clipPath id="clip0_0_1">
            <rect width="40" height="40" fill="white" transform="translate(11 10)"/>
        </clipPath>
    </defs>
</svg>
