<svg width="74" height="95" viewBox="0 0 74 95" fill="none" xmlns="http://www.w3.org/2000/svg">
    <g opacity="0.2" clip-path="url(#clip0_129_28)">
        <path d="M111.668 93.1775C111.718 95.0798 111.341 96.9691 110.562 98.7056C109.676 100.6 108.506 102.349 107.093 103.891C104.807 106.493 101.967 108.552 98.7818 109.914C95.6353 111.196 92.2667 111.844 88.8693 111.821C83.141 111.678 77.5003 110.382 72.2849 108.008C66.0868 105.332 60.2155 101.955 54.7856 97.9431C48.8969 93.6657 43.3285 88.9638 38.1249 83.875C32.9946 78.6909 28.2542 73.135 23.9424 67.2525C19.9979 61.8536 16.6608 56.0362 13.9918 49.9056C11.6182 44.6769 10.3216 39.0237 10.1793 33.2831C10.1565 29.9301 10.7778 26.6038 12.0093 23.485C13.2846 20.2348 15.2787 17.3152 17.8424 14.945C19.1942 13.4843 20.8254 12.3098 22.6395 11.4912C24.4535 10.6726 26.4134 10.2265 28.4031 10.1794C29.8271 10.1691 31.2349 10.482 32.5206 11.0944C33.8971 11.7093 35.0824 12.6839 35.9518 13.9156L47.7324 30.5C48.5452 31.6106 49.2234 32.8136 49.7531 34.0837C50.1971 35.0548 50.4433 36.1046 50.4774 37.1719C50.5039 38.52 50.1326 39.846 49.4099 40.9844C48.6177 42.2989 47.6564 43.5038 46.5506 44.5681L42.7381 48.6094C42.4684 48.8697 42.2574 49.1846 42.1193 49.5331C41.9812 49.8816 41.9192 50.2556 41.9374 50.63C41.8817 51.022 41.8817 51.4199 41.9374 51.8119C42.085 52.1341 42.2123 52.4651 42.3187 52.8031C43.6886 55.1184 45.2713 57.3009 47.0462 59.3225C49.3337 61.9531 51.7737 64.66 54.4424 67.3669C57.1112 70.0737 59.8181 72.5519 62.5249 74.9919C64.5427 76.7666 66.7405 78.3255 69.0824 79.6431L69.9974 80.0625C70.4131 80.1418 70.8399 80.1418 71.2556 80.0625C71.6434 80.0702 72.0289 79.9999 72.3891 79.8558C72.7493 79.7118 73.0769 79.4968 73.3524 79.2238L77.1649 75.4113C78.2702 74.2553 79.5582 73.2892 80.9774 72.5519C82.111 71.8185 83.4404 71.4463 84.7899 71.4844C85.8521 71.4934 86.9019 71.7137 87.8781 72.1325C89.1205 72.6787 90.3078 73.3426 91.4237 74.115L108.275 86.0863C109.479 86.8945 110.441 88.0146 111.058 89.3269C111.496 90.5621 111.703 91.8674 111.668 93.1775Z" stroke="#91069C" stroke-width="3" stroke-miterlimit="10"/>
    </g>
    <defs>
        <clipPath id="clip0_129_28">
            <rect width="122" height="122" fill="white"/>
        </clipPath>
    </defs>
</svg>
