<svg width="60" height="60" viewBox="0 0 60 60" fill="none" xmlns="http://www.w3.org/2000/svg">
    <circle cx="30" cy="30" r="30" fill="#FFD9E6"/>
    <path d="M40.25 32.5875C39.8996 32.9352 39.6302 33.3597 39.4617 33.8294C39.2932 34.2991 39.2301 34.8018 39.277 35.3C39.3823 36.1725 39.7987 36.9738 40.4458 37.5488C41.0929 38.1238 41.9245 38.4316 42.7797 38.4125H45.8689V40.4C45.8689 42.0576 45.2283 43.6473 44.0878 44.8194C42.9474 45.9915 41.4007 46.65 39.7879 46.65H21.1554C19.5426 46.65 17.9959 45.9915 16.8554 44.8194C15.715 43.6473 15.0743 42.0576 15.0743 40.4V29.15C15.0743 27.4924 15.715 25.9027 16.8554 24.7306C17.9959 23.5585 19.5426 22.9 21.1554 22.9H39.7635C40.5621 22.9 41.3529 23.0617 42.0907 23.3758C42.8284 23.6898 43.4988 24.1502 44.0635 24.7306C44.6282 25.311 45.0761 25.9999 45.3817 26.7582C45.6873 27.5165 45.8446 28.3292 45.8446 29.15V31.55H42.6216C42.1784 31.5474 41.7393 31.6381 41.3314 31.8166C40.9235 31.995 40.5555 32.2574 40.25 32.5875Z" stroke="#FF387B" stroke-width="2" stroke-linecap="round" stroke-linejoin="round"/>
    <path d="M15.05 30.6875V23.0625C15.0507 22.0964 15.3373 21.1534 15.8717 20.3586C16.406 19.5638 17.1629 18.9548 18.0419 18.6125L30.9095 13.6125C31.3769 13.4328 31.8798 13.3721 32.375 13.4357C32.8702 13.4993 33.343 13.6853 33.753 13.9777C34.1631 14.2701 34.498 14.6602 34.7293 15.1147C34.9606 15.5692 35.0813 16.0746 35.0811 16.5875V22.9125" stroke="#FF387B" stroke-width="2" stroke-linecap="round" stroke-linejoin="round"/>
    <path d="M47.5838 33.2875V36.7125C47.5839 37.1569 47.4147 37.5838 47.1123 37.9015C46.81 38.2193 46.3986 38.4027 45.9662 38.4125H42.7797C41.9245 38.4316 41.0929 38.1238 40.4458 37.5488C39.7987 36.9738 39.3823 36.1725 39.277 35.3C39.2349 34.8262 39.289 34.3485 39.4358 33.8973C39.5827 33.446 39.819 33.031 40.13 32.6785C40.441 32.326 40.8197 32.0437 41.2423 31.8494C41.665 31.6552 42.1222 31.5532 42.5851 31.55H45.9662C46.1835 31.5549 46.3976 31.6037 46.5965 31.6937C46.7954 31.7836 46.975 31.913 47.1253 32.0743C47.2755 32.2357 47.3933 32.4259 47.472 32.634C47.5506 32.8422 47.5886 33.0642 47.5838 33.2875Z" stroke="#FF387B" stroke-width="2" stroke-linecap="round" stroke-linejoin="round"/>
    <path d="M22.3473 30H33.7067" stroke="#FF387B" stroke-width="2" stroke-linecap="round" stroke-linejoin="round"/>
</svg>
