<svg width="80" height="102" viewBox="0 0 80 102" fill="none" xmlns="http://www.w3.org/2000/svg">
    <g opacity="0.2">
        <path d="M89.2124 68.8919C88.1438 69.9523 87.3219 71.2471 86.808 72.6796C86.2942 74.1121 86.1017 75.6454 86.2449 77.165C86.5658 79.8261 87.836 82.2701 89.8096 84.0238C91.7832 85.7776 94.3198 86.7163 96.9281 86.6581H106.35V92.72C106.35 97.7757 104.396 102.624 100.918 106.199C97.4395 109.774 92.7219 111.783 87.8029 111.783H30.9739C26.0549 111.783 21.3373 109.774 17.859 106.199C14.3807 102.624 12.4266 97.7757 12.4266 92.72V58.4075C12.4266 53.3518 14.3807 48.5032 17.859 44.9283C21.3373 41.3534 26.0549 39.345 30.9739 39.345H87.7287C90.1643 39.345 92.5761 39.8381 94.8264 40.796C97.0767 41.754 99.1213 43.1582 100.844 44.9283C102.566 46.6984 103.932 48.7998 104.864 51.1126C105.796 53.4254 106.276 55.9042 106.276 58.4075V65.7275H96.4459C95.0939 65.7196 93.7546 65.9963 92.5106 66.5405C91.2666 67.0847 90.1442 67.8849 89.2124 68.8919Z" stroke="#91069C" stroke-width="3" stroke-linecap="round" stroke-linejoin="round"/>
        <path d="M12.3525 63.0969V39.8406C12.3547 36.894 13.2286 34.0178 14.8585 31.5937C16.4883 29.1696 18.7969 27.3122 21.4778 26.2681L60.7239 11.0181C62.1495 10.47 63.6831 10.285 65.1935 10.4789C66.7039 10.6729 68.1461 11.2401 69.3966 12.1319C70.6472 13.0237 71.6689 14.2137 72.3743 15.5999C73.0798 16.9862 73.448 18.5275 73.4473 20.0919V39.3831" stroke="#91069C" stroke-width="3" stroke-linecap="round" stroke-linejoin="round"/>
        <path d="M34.6093 61H69.2556" stroke="#91069C" stroke-width="3" stroke-linecap="round" stroke-linejoin="round"/>
    </g>
</svg>
