<svg width="60" height="60" viewBox="0 0 60 60" fill="none" xmlns="http://www.w3.org/2000/svg">
    <circle cx="30" cy="30" r="30" fill="#FFD9E6"/>
    <path d="M23.3332 44.6667H36.6665C43.3665 44.6667 44.5665 41.9833 44.9165 38.7167L46.1665 25.3833C46.6165 21.3167 45.4498 18 38.3331 18H21.6665C14.5499 18 13.3832 21.3167 13.8332 25.3833L15.0832 38.7167C15.4332 41.9833 16.6332 44.6667 23.3332 44.6667Z" stroke="#FF387B" stroke-width="1.5" stroke-miterlimit="10" stroke-linecap="round" stroke-linejoin="round"/>
    <path d="M23.3334 18V16.6667C23.3334 13.7167 23.3334 11.3333 28.6667 11.3333H31.3334C36.6667 11.3333 36.6667 13.7167 36.6667 16.6667V18" stroke="#FF387B" stroke-width="1.5" stroke-miterlimit="10" stroke-linecap="round" stroke-linejoin="round"/>
    <path d="M33.3333 29.6667V31.3333C33.3333 31.35 33.3333 31.35 33.3333 31.3667C33.3333 33.1833 33.3166 34.6667 30 34.6667C26.7 34.6667 26.6666 33.2 26.6666 31.3833V29.6667C26.6666 28 26.6666 28 28.3333 28H31.6666C33.3333 28 33.3333 28 33.3333 29.6667Z" stroke="#FF387B" stroke-width="1.5" stroke-miterlimit="10" stroke-linecap="round" stroke-linejoin="round"/>
    <path d="M46.0834 26.3333C42.2334 29.1333 37.8334 30.8 33.3334 31.3667" stroke="#FF387B" stroke-width="1.5" stroke-miterlimit="10" stroke-linecap="round" stroke-linejoin="round"/>
    <path d="M14.3667 26.7833C18.1167 29.35 22.35 30.9 26.6667 31.3833" stroke="#FF387B" stroke-width="1.5" stroke-miterlimit="10" stroke-linecap="round" stroke-linejoin="round"/>
</svg>
