<svg width="30" height="30" viewBox="0 0 30 30" fill="none" xmlns="http://www.w3.org/2000/svg">
    <circle cx="15" cy="15" r="15" fill="#FFD9E6"/>
    <path d="M15.05 11H14.95" stroke="#FF387B" stroke-width="2" stroke-linecap="round" stroke-linejoin="round"/>
    <path d="M15 16V19M6 15C6 12.6131 6.94821 10.3239 8.63604 8.63604C10.3239 6.94821 12.6131 6 15 6C17.3869 6 19.6761 6.94821 21.364 8.63604C23.0518 10.3239 24 12.6131 24 15C24 17.3869 23.0518 19.6761 21.364 21.364C19.6761 23.0518 17.3869 24 15 24C12.6131 24 10.3239 23.0518 8.63604 21.364C6.94821 19.6761 6 17.3869 6 15Z" stroke="#FF387B" stroke-width="1.5" stroke-linecap="round" stroke-linejoin="round"/>
</svg>
