<svg width="30" height="30" viewBox="0 0 30 30" fill="none" xmlns="http://www.w3.org/2000/svg">
    <circle cx="15" cy="15" r="15" fill="#FFD9E6"/>
    <path d="M23 12L26 15L23 18" stroke="#FF387B" stroke-width="1.5" stroke-linecap="round" stroke-linejoin="round"/>
    <path d="M26 15H12M19 19V22C19 22.2652 18.8946 22.5196 18.7071 22.7071C18.5196 22.8946 18.2652 23 18 23H9C8.73478 23 8.48043 22.8946 8.29289 22.7071C8.10536 22.5196 8 22.2652 8 22V8C8 7.73478 8.10536 7.48043 8.29289 7.29289C8.48043 7.10536 8.73478 7 9 7H18C18.2652 7 18.5196 7.10536 18.7071 7.29289C18.8946 7.48043 19 7.73478 19 8V11" stroke="#FF387B" stroke-width="1.5" stroke-linecap="round" stroke-linejoin="round"/>
</svg>
