<svg width="60" height="60" viewBox="0 0 60 60" fill="none" xmlns="http://www.w3.org/2000/svg">
    <circle cx="30" cy="30" r="30" fill="#FFD9E6"/>
    <g clip-path="url(#clip0_0_1)">
        <path d="M30.2625 28.1125H29.7125C27.7717 28.0404 25.9367 27.2096 24.6022 25.7986C23.2677 24.3877 22.5402 22.5093 22.5762 20.5676C22.6123 18.6258 23.4089 16.7757 24.7949 15.4153C26.1808 14.0548 28.0454 13.2926 29.9875 13.2926C31.9296 13.2926 33.7941 14.0548 35.18 15.4153C36.566 16.7757 37.3626 18.6258 37.3987 20.5676C37.4347 22.5093 36.7072 24.3877 35.3727 25.7986C34.0382 27.2096 32.2032 28.0404 30.2625 28.1125Z" stroke="#FF387B" stroke-width="2" stroke-linecap="round" stroke-linejoin="round"/>
        <path d="M21.9375 34.2625C17.9 36.9625 17.9 41.3625 21.9375 44.05C24.4577 45.5564 27.339 46.3519 30.275 46.3519C33.2111 46.3519 36.0924 45.5564 38.6125 44.05C42.65 41.35 42.65 36.95 38.6125 34.2625C36.0892 32.7651 33.2092 31.9749 30.275 31.9749C27.3409 31.9749 24.4609 32.7651 21.9375 34.2625Z" stroke="#FF387B" stroke-width="2" stroke-linecap="round" stroke-linejoin="round"/>
    </g>
    <defs>
        <clipPath id="clip0_0_1">
            <rect width="40" height="40" fill="white" transform="translate(10 10)"/>
        </clipPath>
    </defs>
</svg>
