<svg width="87" height="102" viewBox="0 0 87 102" fill="none" xmlns="http://www.w3.org/2000/svg">
    <g opacity="0.2" clip-path="url(#clip0_129_47)">
        <path d="M74.9712 67.0162H72.9362C65.7554 66.7497 58.966 63.6755 54.0283 58.455C49.0905 53.2345 46.3989 46.2846 46.5322 39.1C46.6655 31.9155 49.6132 25.0703 54.7412 20.0365C59.8692 15.0028 66.768 12.1826 73.9537 12.1826C81.1395 12.1826 88.0382 15.0028 93.1663 20.0365C98.2943 25.0703 101.242 31.9155 101.375 39.1C101.509 46.2846 98.8169 53.2345 93.8792 58.455C88.9414 63.6755 82.152 66.7497 74.9712 67.0162Z" stroke="#91069C" stroke-width="3" stroke-linecap="round" stroke-linejoin="round"/>
        <path d="M44.1688 89.7712C29.23 99.7612 29.23 116.041 44.1688 125.985C53.4934 131.559 64.154 134.502 75.0175 134.502C85.8811 134.502 96.5416 131.559 105.866 125.985C120.805 115.995 120.805 99.715 105.866 89.7712C96.53 84.2309 85.8739 81.3072 75.0175 81.3072C64.1611 81.3072 53.5051 84.2309 44.1688 89.7712Z" stroke="#91069C" stroke-width="3" stroke-linecap="round" stroke-linejoin="round"/>
    </g>
    <defs>
        <clipPath id="clip0_129_47">
            <rect width="148" height="148" fill="white"/>
        </clipPath>
    </defs>
</svg>
