<?xml version="1.0" encoding="utf-8"?><!-- Generator: Adobe Illustrator 25.0.0, SVG Export Plug-In . SVG Version: 6.00 Build 0)  -->
<svg version="1.1" id="Layer_1" xmlns="http://www.w3.org/2000/svg"
    xmlns:xlink="http://www.w3.org/1999/xlink" x="0px" y="0px" viewBox="0 0 512 512"
    style="enable-background:new 0 0 512 512;" xml:space="preserve">

    <rect fill="#FFFFFF" width="512" height="512" />
    <g>
	<path fill="#DCE0EB" d="M376.3,121.1c-1.1-0.2-1.9-0.5-2.6-1c-0.6-4.1-4.1-7.2-8.3-7.2c-4.7,0-8.4,3.8-8.4,8.4c0,4.7,3.8,8.4,8.4,8.4
		c3.6,0,6.7-2.3,7.9-5.5c3,0.6,5.9,1,8.7,1.7c2.4,0.6,4.7,1.5,7,2.2c0.2-1.5,0.3-3.1,0.5-4.6C385.1,122.7,380.7,121.7,376.3,121.1z" />
        <circle fill="#F9F8FC" cx="299.2" cy="325.7" r="8.9" />
        <circle fill="#F9F8FC" cx="343.4" cy="403.3" r="8.9" />
        <circle fill="#F9F8FC" cx="184.3" cy="400.4" r="8.9" />
        <circle fill="#F9F8FC" cx="342.9" cy="228.2" r="8.2" />
        <circle fill="#F9F8FC" cx="166.6" cy="227.7" r="8.2" />
        <circle fill="#F9F8FC" cx="257.1" cy="277.1" r="30.4" />
        <path fill="#DCE0EB" d="M135.4,171.5c1-1.3,2-2.5,2.9-3.8c5.3-7.3,13-10.1,21.5-11c15.2-1.5,29.2,3.3,43.1,8.7
		c1.3,0.5,2.7,0.8,3.8,1.6c2.2,1.5,2.8,0.3,3.5-1.5c4.5-12,10.4-23.3,18.5-33.3c0.8-1,1.9-1.8,2.9-2.7c-1.5-2.7-2.2-5.2-1.5-8.2
		c0.9-3.8,3.2-6,6.7-7.1c3.8-1.2,7.3-0.4,10.1,2.5c1.3,1.5,2.5,1.4,4.3,1.2c8.2-1.2,15.6,0.9,22.2,5.8c6.3,4.6,11.1,10.6,15.4,17.1
		c5.3,7.9,8.9,16.7,12.6,25.4c0.6,1.5,1.2,1.9,2.7,1.2c8.4-3.7,16.9-7.1,26-8.8c5.5-1.1,11.2-2,16.8-2.1c8.5,0,16.6,1.9,23.2,8
		c3.8,3.5,6.3,7.6,7.8,12.5c2.4,7.6,2,15.4,0.9,23.2c-1.7,11.6-5.7,22.4-10.5,33c-0.1,0.2-0.1,0.4-0.2,0.7c3.5,1.5,7.1,2.8,10.5,4.4
		c11.1,5,21.7,10.9,30.1,19.9c6,6.4,10.2,13.8,9.9,22.9c-0.3,7-3,13.2-7.4,18.6c-5.9,7.4-13.5,12.9-21.7,17.4
		c-6.5,3.5-13.4,6.2-20.2,9.2c-0.4,0.2-0.8,0.4-1.1,0.6c2.3,6,4.7,11.9,6.7,17.9c3.3,9.8,5.2,19.8,4.6,30.2
		c-0.6,9.5-3.9,17.9-11.9,23.5c-3.6,2.5-8.2,3.7-12.4,5.1c-1.4,0.5-2.2,0.9-2.4,2.3c-0.5,3.9-6.1,7.9-10.3,7.5
		c-4.6-0.4-8.4-4-9.2-8.6c-0.1-0.7-0.8-1.7-1.4-1.9c-6.8-2.2-13.7-4.1-20.6-6.3c-2.6-0.8-5.1-2-7.6-3.1c-1.2-0.5-1.7-0.3-2.2,0.9
		c-2.7,6.2-5.1,12.6-8.4,18.5c-3.1,5.5-6.8,10.8-10.8,15.6c-3.2,3.9-7.1,7.6-11.3,10.2c-3.7,2.3-8.3,3.9-12.6,4.4
		c-9.8,1.1-17.9-2.9-25-9.7c-7.8-7.5-13.4-16.4-17.9-26.1c-2.2-4.8-4.3-9.6-6.5-14.5c-3.4,1.4-6.9,3.1-10.6,4.3
		c-3,1-4.7,2.2-5.3,5.7c-0.6,3.4-3.5,5.6-6.9,6.3c-4.1,0.8-7.8-0.2-10.3-3.9c-0.9-1.3-1.6-1.4-3.2-1.3c-9.5,1-19,0.9-27.5-4.4
		c-7.1-4.4-11-11.1-12.7-19.1c-2.3-11.8-0.1-23.1,3.5-34.2c2-6.4,4.6-12.6,7-19.2c-1.4-0.7-3-1.4-4.7-2.2c0.2-0.9,0.4-1.8,0.6-2.7
		c1.4,0.7,2.7,1.3,4.1,2c1.2,0.7,1.8,0.1,2.3-1c1.8-3.6,3.5-7.3,5.6-10.8c5.2-8.6,10.6-17.1,16-25.6c1.4-2.2,2.9-4.2,4.4-6.3
		c-1.9-2.5-3.8-4.7-5.3-7.1c-4.8-7.5-9.5-15.1-14.1-22.7c-1.9-3.2-3.3-6.6-5-10c1.2,0.4,2.4,0.7,3.6,1.1c0.3,0.9,0.4,1.8,0.9,2.6
		c4.3,7.3,8.6,14.5,13.1,21.7c2.6,4.2,5.6,8.1,8.4,12.1c0.5-0.3,0.7-0.3,0.7-0.4c5.1-6.3,10-12.7,15.3-18.8
		c2.9-3.3,4.1-6.8,4.1-11.2c0-3.9,0.7-7.9,1.2-11.8c0.4-4,0.9-7.9,1.4-12.1c-6.1,1.1-12,2.2-17.9,3.3c-1.1,0.2-1.8,0.8-1.9,2.1
		c-0.2,2.9-1.5,5.5-4,7.1c-1.3,0.9-2.8,1.5-4.2,2.2c-2.3-0.6-4.6-1.2-6.9-1.8c-2.5-1.8-4.9-3.6-7.4-5.4c0.9-0.5,1.7-1.1,2.7-1.6
		c0.1-1.1,0-2.4,0.4-3.5c1.1-3.8,3.6-6.5,7.5-7.3c3.9-0.8,7.2,0.5,9.7,3.7c1,1.3,1.8,2.5,3.9,2c5.5-1.2,11-2.2,16.6-3.2
		c1.3-0.2,2.2-0.8,2.4-2.3c0.3-2.2,0.7-4.4,1.1-6.5c1-0.3,1.9-0.5,2.9-0.8c-0.5,2.8-0.9,5.6-1.4,8.6c0.9-0.1,1.4-0.1,1.9-0.2
		c4.7-0.5,9.4-1.2,14.1-1.6c4.4-0.4,8.8-0.6,13.2-1c1-0.1,2.1-0.8,3-1.5c3.6-3,7.2-6.1,10.8-9.1c3.7-3,7.4-6,11.5-9.2
		c-2.6-1.7-5.1-3.4-7.5-5c-0.5-0.3-0.9-0.7-1.4-1c-10.7-7.5-21.9-14.1-33.8-19.8c-0.5,1.6-0.9,2.8-1.3,4.2
		c-1.9,6.6-3.8,13.2-5.6,19.8c-0.2,0.6,0.3,1.3,0.5,2c-1.3,0.2-2.6,0.4-3.9,0.5c2.5-8.9,5-17.7,7.5-26.6c0.1-0.4-0.6-1.5-1.1-1.6
		c-7.1-2.7-14.2-5.7-21.5-7.9c-9.5-2.9-19.2-4.3-29.1-2.2c-7.6,1.6-13.8,5.1-17.6,12.3c-1.1-0.1-2.2-0.3-3.3-0.4
		C135.3,171.7,135.3,171.6,135.4,171.5z M241.8,344.1c-2.3-0.1-4.7-0.3-7-0.4c-0.1,0.2-0.2,0.5-0.3,0.7c7,5.6,14,11.2,21.1,16.8
		c7.3-5.5,14.5-10.9,21.1-17c-0.1-0.2-0.2-0.4-0.3-0.6c-2,0.1-4,0.3-6.1,0.4c-0.6-0.1-1.1-0.4-1.7-0.4c-8.4,0-16.7,0-25.1,0
		C242.9,343.7,242.4,344,241.8,344.1z M291,331.7c-0.4-0.8-0.6-1.2-0.8-1.7c-2-4.4-0.4-9.6,3.6-12.3c3.1-2.1,6.2-2.1,9.6-0.8
		c0.7,0.3,2,0.1,2.5-0.4c2.4-2.3,4.7-4.8,6.9-7.3c1.3-1.6,3.1-3.3,3.4-5.2c0.6-4.5,0.6-9.2,0.6-13.7c-0.1-11.1-0.3-22.2-0.5-33.3
		c0-0.8-0.4-1.8-1-2.4c-3.2-3.6-6.3-7.2-9.7-10.6c-7.2-7.2-14.5-14.3-21.8-21.3c-1.2-1.1-2.7-2.5-4.1-2.6c-8.7-0.5-17.4-0.8-26.1-1
		c-3.7-0.1-7.5,0.3-11.2,0.4c-3.5,0.2-7,0.3-10.5,0.5c-0.7,0-1.6,0.3-2.1,0.8c-4,3.6-8,7.1-11.8,10.8c-6.3,6.3-12.5,12.6-18.6,19.1
		c-1.7,1.8-3.6,3.9-4,6.1c-0.8,5.5-1,11.1-1,16.7c0,9.4,0.2,18.8,0.4,28.3c0.1,2.5,0.5,4.8,2.7,6.5c1.4,1.1,2.6,2.5,3.9,3.9
		c3,3.2,5.8,6.6,9,9.7c6.3,6.2,12.8,12.3,19.2,18.3c0.5,0.5,1.5,0.9,2.2,0.9c5.3,0.2,10.6,0.5,15.8,0.5c10.4,0,20.8-0.3,31.3-0.5
		c0.8,0,1.8-0.2,2.4-0.7C284.5,337.4,287.7,334.6,291,331.7z M367.1,324.7c6.4-3,12.8-5.8,18.9-8.9c8.4-4.3,16.2-9.5,22.3-16.8
		c6.4-7.6,9.5-16.2,6.4-25.9c-2.5-7.9-7.8-14.3-14.6-19c-6.1-4.3-12.6-8.1-19.2-11.6c-4.5-2.4-9.3-4.1-14.1-6.1
		c-1.9,3.6-3.5,7-5.4,10.2c-3.5,6.2-7,12.3-10.8,18.3c-3,4.8-6.4,9.3-9.7,13.9c-0.8,1.1-0.8,2,0,3.1c1.8,2.3,3.4,4.7,5,7.1
		c3.6,5.4,7.3,10.8,10.6,16.4C360.3,311.4,363.4,317.8,367.1,324.7z M299.7,391.6c-5.4-2.8-10.7-5.3-15.7-8.3
		c-9-5.5-17.7-11.4-26.5-17.3c-1.4-0.9-2.1-1-3.4-0.1c-5.2,3.7-10.4,7.6-15.9,10.9c-8,4.8-16.1,9.2-24.3,13.6c-2,1.1-2.2,2-1.3,3.9
		c3.4,7,6.4,14.2,10.2,21c4.6,8.5,10.5,16,18.9,21.2c8.4,5.3,17.2,5.8,26,1.2c7.9-4.1,13.6-10.7,18.4-18
		C291.8,410.8,296.1,401.4,299.7,391.6z M299.9,169c-2.7-5.9-5.1-11.8-8-17.5c-5.3-10.2-11.4-19.8-21.3-26.4
		c-6.5-4.4-13.5-6.2-20.9-4.1c-0.1,1.8,0,3.5-0.4,5c-1.8,6.6-8.3,9.3-14.8,6.1c-1.1-0.5-1.7-0.4-2.3,0.4
		c-3.7,5.3-7.9,10.3-11.1,15.9c-3.4,6.1-5.9,12.7-8.9,19.1c-0.6,1.3-0.4,2.1,1,2.7c4.1,2,8.2,3.7,12,6.1c9.6,6,19.1,12.4,28.6,18.6
		c0.8,0.5,2,0.8,2.8,0.6c1.2-0.4,2.2-1.4,3.2-2.2c9.5-7,19.4-13.2,29.8-18.7C293,172.7,296.2,170.9,299.9,169z M303.4,170.4
		c2.3,8.4,4.8,16.5,6.8,24.7c1.9,7.7,3.3,15.5,4.7,23.3c0.3,1.6,0.6,2.5,2.3,2.7c4.2,0.7,8.4,1.4,12.6,2.3c2.2,0.4,4,0.5,5.3-1.9
		c2.3-4.2,10.9-4.4,14.1-0.7c2,2.4,3,4.9,3.3,7.8c3.3,1.1,6.5,2,9.6,3.2c3,1.1,3.4,1,4.7-1.9c3.7-8.6,7-17.5,8.8-26.7
		c1.6-8.4,2.5-16.9-0.2-25.3c-2.3-7.2-6.6-12.9-13.8-16c-8.8-3.8-17.9-3.6-27-1.9C323.7,162.1,313.4,165.9,303.4,170.4z
		 M353.1,401.1c0.1,0,0.2,0.1,0.2,0c1.3-0.3,2.5-0.5,3.8-0.9c8.3-2.4,14.5-7.3,17.5-15.5c2.9-7.8,2.8-16,1.4-24.1
		c-1.9-11.4-5.9-22.2-10.8-32.9c-1.4,0.5-2.9,1.1-4.3,1.5c-14.4,4.5-29.1,8.1-44,10.3c-0.7,0.1-1.8,1-1.9,1.7
		c-2.1,13.3-5,26.4-8.9,39.2c-1,3.2-2,6.3-3,9.5c9.5,4.5,19.2,7.8,29.2,10.1c0.5,0.1,1.3-0.5,1.8-0.9c1-1.1,1.6-2.7,2.7-3.6
		C343.2,391,350.1,393.4,353.1,401.1z M193.4,396.3c4.7-1.9,9.3-3.8,13.8-5.8c0.4-0.2,0.7-1.4,0.5-2c-2.7-10.2-5.7-20.4-8.3-30.7
		c-1.3-5.2-2-10.6-3-15.9c-0.2-1.3-0.7-2.1-2.3-2.4c-4-0.5-8-1-11.9-2c-11.4-2.9-22.7-5.9-34.1-9.1c-1.6-0.4-2.4-0.3-3,1.2
		c-1.5,3.8-3.1,7.5-4.5,11.3c-4.4,11.9-7.4,23.9-5.7,36.7c1.4,9.9,6.1,17.5,15.8,21.2c3.2,1.2,6.7,1.5,9.9,2.5
		c4.6,1.4,8.8-0.5,13.3-0.4c0-7.6,4.5-10.7,7.8-11.3C186.8,388.8,191.1,391.1,193.4,396.3z M312.4,220.2
		c-2.6-16.6-6.1-32.7-11.8-48.4c-15.1,7.4-29.2,16.1-42.3,25.8c6.8,5.7,13.5,11.3,20.4,16.8c1.6,1.3,3.4,2.6,5.2,3
		c2.9,0.6,5.9,0.3,8.9,0.6c3.5,0.3,7,0.8,10.4,1.2C306.1,219.5,309,219.8,312.4,220.2z M210.7,388.9c15.2-7.3,29.1-16.1,42.3-25.8
		c-7.6-6.3-14.8-12.5-22.2-18.5c-0.8-0.7-2-1.2-3.1-1.3c-2.8-0.3-5.6-0.3-8.5-0.5c-3.6-0.3-7.3-0.8-10.9-1.2
		c-3.1-0.3-6.1-0.7-9.5-1.1C201.6,357,205.1,373.1,210.7,388.9z M147.3,325.4c15.8,5.3,31.8,9.2,48.3,11.6c-0.6-5-1.2-9.7-1.7-14.5
		c-0.4-4.2-0.5-8.5-1.1-12.8c-0.2-1.8-0.9-3.8-2-5.2c-3.5-4.5-7.3-8.8-10.9-13.2c-2.3-2.8-4.5-5.7-6.7-8.6
		C166.6,290.4,150.4,317.1,147.3,325.4z M311.9,340.6c-0.3,0-0.7-0.2-1.1-0.1c-9.2,0.9-18.3,1.8-27.5,2.8c-0.8,0.1-1.8,0.5-2.4,1.1
		c-3.6,2.9-7,5.8-10.6,8.7c-4,3.3-8.1,6.6-12.3,9.9c13.6,9.6,27.4,18.7,42.4,25.7C304.3,380.9,312.7,345.4,311.9,340.6z
		 M364.2,325.3c-7.5-15-16-29.1-25.9-42.2c-6.1,7.3-12,14.3-17.9,21.3c-1.2,1.5-2,3.1-1.9,5.2c0.1,2.4-0.2,4.9-0.5,7.3
		c-0.8,6.7-1.6,13.4-2.4,20.2C332.2,334.5,348.2,331,364.2,325.3z M315.7,223.5c0.4,3.1,0.9,5.9,1.2,8.8c0.7,7,1.2,14,1.9,20.9
		c0.1,0.6,0.4,1.3,0.8,1.8c5.1,6.2,10.2,12.4,15.3,18.5c1.1,1.4,2.2,2.8,3.4,4.5c9.9-13.6,18.6-27.5,26-42.6
		c-2.2-0.8-4.2-1.5-6.3-2.1c-2.1-0.7-4.2-1.3-6.3-1.9c-2.2,4.9-6.7,7.3-11.7,6.3c-4.1-0.8-7.3-4.7-7.6-9.5c-0.1-1.3-0.5-1.8-1.8-2
		C325.8,225.4,320.9,224.5,315.7,223.5z M233.8,216.8c14.7,0,28.9,0,43.8,0c-7.6-6.1-14.7-11.7-22-17.5
		C248.3,205.2,241.2,210.9,233.8,216.8z M315.9,249.3c-0.9-8.4-1.8-17.2-2.8-26.3c-9.1-1-18.1-1.9-25.7-2.8
		C296.5,229.6,306.3,239.6,315.9,249.3z M225,219.8c0.2,0.1,0.4,0.3,0.6,0.4c-1.9,0.2-3.9,0.3-5.8,0.6c-6.3,0.7-12.5,1.6-18.8,2.1
		c-2.4,0.2-2.8,1.5-3,3.3c-0.5,4.8-1.2,9.6-1.8,14.5c-0.3,3-0.4,6.1-0.6,8.2C205.2,239.4,215.1,229.6,225,219.8z M319.4,301.5
		c0.3-0.3,0.6-0.4,0.8-0.6c2.8-3.5,5.5-7,8.3-10.5c2.1-2.7,4.3-5.3,6.5-7.9c1.3-1.5,1.3-2.7,0-4.2c-2.4-2.8-4.5-5.7-6.8-8.6
		c-2.8-3.5-5.7-7-8.8-10.8C319.4,273.3,319.4,287.3,319.4,301.5z M195.5,311c0.4,4.7,0.8,9.4,1.3,14.1c0.3,3.2,0.8,6.3,1.2,9.5
		c0.2,1.6,0.4,3,2.6,3.2c4.3,0.4,8.6,1.2,12.9,1.7c4,0.4,8,0.7,10.8,0.9C215.2,331,205.5,321.1,195.5,311z M192,258.5
		c-5.6,7-11.1,14-16.5,21c-0.3,0.4,0,1.6,0.4,2.1c3.4,4.4,6.8,8.8,10.3,13.1c1.7,2.1,3.5,4.1,5.2,6.2c0.2-0.1,0.5-0.2,0.7-0.3
		C192,286.7,192,272.8,192,258.5z M315.9,310.6c-0.1-0.1-0.3-0.2-0.4-0.3c-2.8,3-5.7,6.1-8.5,9.1c3,4.4,3,9.7-0.4,13
		c-4.1,3.9-7.5,4.4-13.8,1.3c-2.3,2.1-4.7,4.2-7,6.3c0.1,0.2,0.2,0.4,0.3,0.5c1.8-0.2,3.6-0.4,5.4-0.6c6.6-0.8,13.3-1.6,19.9-2.3
		c1.4-0.1,1.7-0.7,1.8-2c0.5-4.5,1.2-9,1.7-13.6C315.3,318.3,315.5,314.4,315.9,310.6z M335.2,227.8c0,4.6,2.9,7.7,7.2,7.7
		c3.9,0,7.5-3.5,7.4-7.5c-0.1-3.5-3.4-7.5-7.1-7.3C338.2,220.8,335.2,223.5,335.2,227.8z M239.7,116.2c-4,0-7,3.3-7.2,7.3
		c-0.2,3.9,3.1,7.2,7.2,7.4c3.9,0.2,7.6-3.6,7.6-7.4C247.2,119.5,243.8,116.2,239.7,116.2z M183.8,406.8c4.2,0,7.3-3.1,7.3-7.4
		c0-4.1-3.1-7.3-7.2-7.4c-3.7-0.1-7.6,3.8-7.6,7.4C176.5,403.4,179.9,406.7,183.8,406.8z M299.1,333.1c4.3,0,7.5-3.2,7.6-7.5
		c0-3.5-3.9-7.2-7.6-7.2c-3.7,0-7.2,3.5-7.1,7.2C292,329.9,295,333.1,299.1,333.1z M165.8,221.2c-3.6-0.6-7.4,3.1-7.4,7.1
		c0,4,3.2,7.2,7.5,7.3c3.9,0.1,7.4-3.8,7.3-7.5C173.2,224.6,169.5,220.5,165.8,221.2z M350.5,403.5c0.1-4-3.1-7.8-6.6-7.7
		c-4.8,0.1-8,3.1-8,7.6c-0.1,3.5,3.3,7,7.2,7.2C347.5,410.7,350.6,406.8,350.5,403.5z" />
        <path fill="#2E4777" d="M135.4,171.5c-0.1,0.1-0.1,0.2-0.1,0.4c-1.9-0.1-3.8-0.3-5.7-0.3c-2.9-0.1-3.7,0.9-2.7,3.6
		c0.5,1.4,1.5,2.6,2.3,4c-3.6,0.8-6.5-0.6-9-2.9c-0.5-0.8-1-1.6-1.4-2.4c-0.7-2.9-0.6-5.7,0.8-8.3c0.8-1.4,1.6-2.7,2.4-4.1
		c1.8-2.1,4-4,5.3-6.4c4.9-8.8,2.5-20-8.8-23.6c-2.8-0.9-5.6-1.8-8.2-2.9c-1.3-0.6-2.1-0.2-3,0.7c-2,2.2-3.4,4.7-3.4,7.8
		c0,2,0,4,0,6c-1.3-0.6-2.2-1.3-3.1-1.5c-2.2-0.5-3,0.5-2.3,2.6c0.5,1.5,1.2,3,2,4.4c2.1,3.6,4.4,7,6.3,10.6
		c0.8,1.4,1.1,3.2,1.3,4.8c0.4,3-1.3,5.2-2.8,7.6c-1.1,0.7-2.1,1.5-3.2,2.1c-1.4,0.7-2.8,1.4-3.7-0.7c-0.1-0.3-1-0.5-1.6-0.5
		c-2.2,0.1-4.4,0.3-6.6,0.5c-1.4-10.4-1.1-20.8-0.1-31.2c0.5-5,0.5-10.2,1.7-15c1.8-7.8,6.4-13.6,14.8-15.2c6-1.1,11.8-0.3,17.1,2.9
		c3.9,2.3,5.6,6.5,6.9,10.5c1,3,1.3,6.3,2,9.4c0.2,0.9,0.3,1.8,0.6,2.6c2.9,7.2,2.9,14.4,0.9,21.9c-0.4,1.6-0.4,3.4-0.1,5.1
		C134.2,166.4,134.9,168.9,135.4,171.5z" />
        <path fill="#C8DCEC" d="M17.5,478.1c-2-0.9-2-2.1,0-3.6c0.8,0.1,1.6,0.4,2.4,0.4c4.9,0,9.8,0,14.7,0c0.7,0.5,1.3,1.3,2,1.3
		c8.6,0.1,17.3,0.1,25.9,0c0.7,0,1.4-0.9,2-1.3c14.2,0,28.3,0,42.5,0c0.9,0,1.7-0.3,2.6-0.4c0.2,0,0.3,0,0.5,0
		c0.7,0.6,1.4,1.8,2.1,1.8c11.7,0.1,23.4,0.1,35.1,0.1c1.3,0,2-0.6,2-1.9c0.1,0,0.3,0,0.4,0c0.9,0.1,1.7,0.4,2.6,0.4
		c96.2,0,192.4,0,288.6,0c1.1,0,2.1,0,3.2-0.1c7.4,0,14.9,0,22.3,0c9.2,0,18.5,0,27.7,0.1c1.5,1.3,1.3,2.3-0.5,3.2
		c-1.3-0.1-2.7-0.4-4-0.4c-156.6,0-313.2,0-469.8,0C19.1,477.7,18.3,478,17.5,478.1z" />
        <path fill="#E94D92" d="M90.2,172.8c2.2-0.2,4.4-0.4,6.6-0.5c0.5,0,1.4,0.1,1.6,0.5c0.9,2.2,2.4,1.5,3.7,0.7c1.1-0.6,2.2-1.4,3.2-2.1
		c0.2,0.4,0.4,0.9,0.6,1.3c0.1,0.2,0.2,0.4,0.3,0.5c0,6.3-0.1,12.6-0.1,19c-0.5-0.3-1.1-0.6-1.4-1c-2-2.3-3.8-4.7-5.8-7
		c-0.5-0.5-1.3-0.8-2-1.2c-0.2,0.7-0.7,1.3-0.7,2c-0.1,4.7-0.1,9.5,0,14.2c0,1.9-0.5,4.2,0.3,5.5c3,4.7,6.5,9.1,9.9,13.6
		c-0.3,4-2,7.4-5.9,8.4c-3.5,0.9-7.4,0.6-11,0.8c-0.3-1.9-0.5-3.3-0.6-4.7c-0.9-3.1-1.2-6.4-2.7-9.1c-2.1-3.9-3.1-7.9-3.7-12.2
		c-0.3-2.4-0.4-4.9-0.5-7.3c0-2.8-0.2-5.4-1.9-8c-2.9-4.7,0.2-10.8,6-12.5C87.5,173.4,88.9,173.1,90.2,172.8z" />
        <path fill="#5580AC" d="M51.7,445c-0.9-0.3-1.7-0.5-2.8-0.9c0.8-6,1.3-11.9,2.4-17.7c2.6-14.1,5.3-28.3,8.3-42.3
		c1.4-6.4,4-12.6,5.3-19c1.2-5.9,1.6-12,1.9-18c1.2-22.7,2.7-45.4,6-67.9c1.8-11.9,6.8-22.5,11.8-33.2c1.5-3.2,3.2-6.3,4.8-9.4
		c0.9,0.4,1.8,0.8,2.7,1.2c-0.4,0.8-0.7,1.7-1.1,2.5c-4.7,10.2-10.4,20.1-12.7,31.2c-1.9,9.1-3.2,18.3-4.1,27.5
		c-1.5,15.9-2.7,31.9-3.5,47.9c-0.6,10.3-2.1,20.3-5.2,30.2c-6.9,22.1-9.8,45-13,67.9C52.1,444.9,51.9,444.9,51.7,445z" />
        <path fill="#E8EDF4" d="M52.4,444.9c3.2-22.8,6.1-45.8,13-67.9c3.1-9.9,4.6-19.9,5.2-30.2c0.9-16,2-32,3.5-47.9
		c0.9-9.2,2.2-18.4,4.1-27.5c2.3-11.1,8.1-21,12.7-31.2c0.4-0.8,0.7-1.7,1.1-2.5c0.6-1,1.2-1.9,1.9-3.2c-1.5-0.1-2.5-0.3-3.6-0.4
		c-1.4-0.5-1.9-1.4-1.5-3c0.5-2.1-0.2-4.6-1-5.3c0.4-1,0.8-1.9,1.1-2.8c0.2,1.4,0.4,2.8,0.6,4.7c3.6-0.2,7.5,0,11-0.8
		c4-1,5.6-4.4,5.9-8.4c1.5,1.7,2.8,3.8,4.7,4.9c4.2,2.5,8.8,4.5,13.2,6.6c1.1,0.6,2.3,1.3,3.4,1.9c4.1,1.9,8.2,3.9,12.3,5.8
		c-2.2,1-4.4,1.9-6.6,2.9c-0.9-1.5-1.8-3-2.6-4.6c-0.6-0.4-1.3-1.3-1.8-1.2c-2.7,0.5-5.3,1.3-7.9,1.9c-0.3,0.1-0.6,0.1-0.9,0.2
		c-1,0-2.1,0-3.3,0c-0.1,1.1-0.1,2.1-0.2,3c-1.1,0.6-2.8,0.9-3.2,1.7c-0.6,1.2-0.1,2.8-0.1,4.3c0,1,0.2,2,0.2,3
		c0,0.4-0.2,0.9-0.3,1.3c-0.4-2.6-0.5-5.1-0.4-7.5c0-1.4-0.2-2.3-1.9-2c-0.5,0.1-1-0.1-1.6-0.2c-0.2-1.2-0.4-2.3-0.6-3.8
		c-1.3,0-2.6,0-3.8,0c-0.4,0-0.7-0.1-1.1-0.1c-2.1-0.4-4.2-0.6-6.2-1.3c-2.5-0.9-3.7,0-4.2,2.4l0,0c-0.1,0.3-0.3,0.6-0.4,1
		c-2,4.1-4.1,8.2-6.1,12.3c-4.4,9.2-8.1,18.7-9.6,28.9c-3.1,21.1-4.6,42.4-5.7,63.7c-0.5,9.9-0.8,19.8-4,29.3
		c-4.4,12.7-7,25.7-9.2,38.9c-1.9,11-3.4,22.1-5.1,33.2C53,444.9,52.7,444.9,52.4,444.9z M109,237.1c0.7,1.2,1.1,2.7,1.7,2.8
		c1.7,0.3,3.4,0.1,5.2,0.1c0-1.2,0-2,0-2.9C113.8,237.1,111.9,237.1,109,237.1z" />
        <path fill="#5580AC" d="M130.7,236c0.9,1.5,1.8,3,2.6,4.6c0,0.1,0.1,0.3,0.1,0.4c8.6,19.2,10.4,39.4,8.4,60c-0.7,7-1.9,13.9-2.9,20.9
		c-0.2,0.9-0.4,1.8-0.6,2.7c-4.3,16.4-8.1,33-10.3,49.8c-2.5,19.2-3.7,38.6-2.1,58c0.3,3.8,0.7,7.6,1.1,11.6
		c-0.6,0.1-1.3,0.2-1.9,0.2c-0.3-0.1-0.5-0.2-0.8-0.3c-0.6-8.9-1.6-17.9-1.7-26.8c-0.1-8.7,0.5-17.5,1.1-26.2
		c1.2-17.2,4-34.1,8.2-50.7c5.1-20.1,9-40.4,7.6-61.3c-0.8-11.2-2.7-22-6.8-32.5c-1.1-2.8-2.4-5.6-3.5-8.4
		C129.8,237.4,130.3,236.7,130.7,236z" />
        <path fill="#F3ADBC" d="M124.4,444c0.3,0.1,0.5,0.2,0.8,0.3c1.2,4.9,2.2,9.7,3.5,14.6c0.9,3.5,3.1,6.1,6.2,7.9
		c-2.9,3.7-6.8,4.1-11,3.4c-4.5-0.8-8.9-2-13.4-3c0.2-1.3,0.1-2.7,0.6-3.8c2.7-6.1,3-12.5,3-19c3.1-0.1,6.2-0.2,9.3-0.2
		C123.8,444,124.1,444,124.4,444z" />
        <path fill="#EB609E" d="M456.4,445.8c0.9,0,1.8,0,2.7,0c0.3,0,0.6,0,0.9,0c0.6,0.1,1.3,0.1,1.9,0.2c0.6,0.3,1.1,0.5,1.8,0.8
		c-0.9,1.8-1.6,3.6-2.5,5.2c-2.7,4.9-5.4,9.8-8.1,14.7c-2.1,3.8-4.8,6.7-9.5,6.8c0-9.1,0-18.1,0-27.4c0.9-0.1,1.8-0.2,2.7-0.3
		c1.1,0,2.2,0,3.3,0c0.3,0,0.6,0,0.8,0C452.4,445.8,454.4,445.8,456.4,445.8z" />
        <path fill="#EB609E" d="M443.6,473.6c4.7-0.1,7.4-3,9.5-6.8c2.7-4.9,5.4-9.8,8.1-14.7c0.9-1.7,1.6-3.4,2.5-5.2
		c-0.6-0.3-1.2-0.5-1.8-0.8c1.1-0.1,2.1-0.1,3.2-0.2c0.6,0.5,1.7,1,1.7,1.5c0.1,8.8,0,17.6,0,26.4c0,0.2-0.1,0.4-0.1,0.7
		c-0.1,0.1-0.2,0.3-0.2,0.4c-7.4,0-14.9,0-22.3,0c-0.2-0.1-0.4-0.3-0.6-0.4C443.6,474.1,443.6,473.9,443.6,473.6z" />
        <path fill="#2E4777" d="M110.6,467.1c4.5,1,8.9,2.2,13.4,3c4.1,0.7,8.1,0.3,11-3.4c2.9,0.4,5.9,0.5,8.6,1.3c3,0.9,4.5,3.6,5.7,6.4
		c0,1.3-0.7,1.9-2,1.9c-11.7,0-23.4,0-35.1-0.1c-0.7,0-1.4-1.2-2.1-1.8C110.2,472,110.4,469.5,110.6,467.1z" />
        <path fill="#F3ADBC" d="M52.4,444.9c0.3,0,0.6,0,0.9,0.1c2.7,0.7,5.5,1.3,8.2,2c-0.4,0.5-1.2,0.9-1.2,1.4c-0.2,4.6-0.1,9.2,1.7,13.5
		c0.8,2,1.3,4.2,2,6.3c-3.1,2.7-6.4,2.9-9.9,0.7c-1.4-0.9-2.8-1.9-4.3-2.6c-1.7-0.7-3.6-1.1-5.4-1.6c1.4-2.5,3.1-4.8,4-7.5
		c1.4-4,2.2-8.2,3.3-12.3C51.9,444.9,52.1,444.9,52.4,444.9z" />
        <path fill="#2E4777" d="M44.3,464.7c1.8,0.5,3.7,0.8,5.4,1.6c1.5,0.6,2.9,1.7,4.3,2.6c3.5,2.2,6.8,1.9,9.9-0.7
		c0.2,2.1,0.3,4.2,0.5,6.3c0,0.2,0,0.3,0,0.5c-0.7,0.5-1.3,1.3-2,1.3c-8.6,0.1-17.3,0.1-25.9,0c-0.7,0-1.3-0.9-2-1.3
		c0-0.2,0-0.3,0-0.5c0.8-1.5,1.5-3,2.3-4.4C38.6,467.2,40.9,465.2,44.3,464.7z" />
        <path fill="#DCE0EB" d="M449.5,445.8c-0.2-5.9-0.3-11.8-0.5-17.7c-0.2-5.1-0.4-10.2-1-15.3c-0.5-4.4-2.3-6.7-7.5-5.2
		c-1.6,0.5-3.3,0.7-4.9,1c-0.4,0.1-0.9,0.3-1.3,0.4c-6.6,1.5-13.2,2.9-19,6.7c-3.5,2.3-5.4,5.7-6.3,9.7c-0.1,0.5,0.4,1.3,0.8,1.5
		c0.4,0.2,1.1-0.1,1.6-0.4c0.7-0.3,1.2-0.9,1.9-1.3c3.5-2,7.1-0.9,10.7-0.4c2.8,0.4,5.6,1.6,8.4-0.1c-0.5-0.3-1-0.5-1.6-0.8
		c0.5,0.3,1.1,0.6,1.6,0.8c1.4-0.8,3.1-1.3,4.1-2.5c2.1-2.5,3.8-5.4,5.7-8c0.4-0.6,1.2-0.9,1.9-1.4c0.4,0.8,1.1,1.6,1.2,2.4
		c0.4,6.2,0.6,12.5,1,18.7c0.1,1.5,0.4,3,0.4,4.6c0,2.4-0.2,4.8-0.3,7.3C447.4,445.8,448.4,445.8,449.5,445.8z" />
        <path fill="#DCE0EB" d="M408.5,150.2c-1.2,0.3-2.5,0.6-3.7,0.9c-1.2-3.9-2.5-7.8-3.5-11.8c-0.5-1.8-1.2-2.8-3.2-2.5
		c-0.5,0.1-1-0.2-1.5-0.4c2.4-0.3,4.9-0.7,7.3-1C405.4,140.4,407,145.3,408.5,150.2z" />
        <path fill="#DCE0EB" d="M408,130.5c0.2-1.2,0.4-2.5,0.6-3.7c5,0.7,10,1.3,14.9,2c-0.1,1.2-0.2,2.4-0.3,3.6c-4.1-0.5-8.2-1.1-12.3-1.6
		C409.9,130.6,409,130.5,408,130.5z" />
        <path fill="#DCE0EB" d="M394.6,103c1.3-0.1,2.5-0.1,3.8-0.2c0.3,4.1,0.5,8.1,1,12.2c0.1,0.9,1.1,1.7,1.7,2.5c-1.7,0-3.4,0-5.1,0
		C395.5,112.6,395.1,107.8,394.6,103z" />
        <path fill="#CAC9CE" d="M466.4,474.9c0.1-0.1,0.2-0.3,0.2-0.4c8.4,0,16.7,0,25.1,0c0.8,0,1.6,0.3,2.4,0.4
		C484.9,474.9,475.7,474.9,466.4,474.9z" />
        <path fill="#2E4777" d="M90.3,234.1c1.1,0.1,2.2,0.2,3.6,0.4c-0.8,1.3-1.4,2.3-1.9,3.2c-0.9-0.4-1.8-0.8-2.7-1.2
		C89.6,235.7,89.9,234.9,90.3,234.1z" />
        <path fill="#E8EDF4"
            d="M429.2,347.8c-0.2,0.3-0.3,0.6-0.5,0.9C428.9,348.4,429,348.1,429.2,347.8z" />
        <path fill="#E8EDF4"
            d="M442.1,348.7c-0.2-0.3-0.3-0.6-0.5-0.9C441.8,348.1,442,348.4,442.1,348.7z" />
        <path fill="#DCE0EB"
            d="M404.8,151.2c-0.2,0.1-0.3,0.3-0.5,0.4C404.5,151.5,404.6,151.3,404.8,151.2z" />
        <path fill="#E94D92" d="M138.6,172.2c3.5,0.7,5.7,3.1,7.9,5.6c0.5,1.9,1.2,3.7,1.3,5.6c0.3,4.1,0.4,8.2,0.5,12.3
		c0,1.1-0.2,2.1-0.2,3.1c-1.9-0.8-3.4-1.4-4.8-2.1c-0.6-0.3-1.2-0.7-1.4-0.8c-1.2,5.6-2.4,11-3.6,16.4c-0.6,0.9-1.3,1.9-1.9,2.8
		c-1.2,1.1-2.4,2.1-3.6,3.2c-2.3-0.9-4.6-1.8-6.9-2.8c-1.7-1.1-3.4-2.2-5-3.2c0-0.8,0-1.6,0.1-2.3c0,0,0.1-0.1,0.1-0.1
		c0-0.1-0.1-0.2-0.1-0.3c0-1.2-0.1-2.4-0.1-3.7c-0.1-9.9-0.3-19.9-0.4-29.8c2.6,2.2,5.4,3.7,9,2.9c-0.8-1.3-1.8-2.6-2.3-4
		c-1-2.8-0.2-3.8,2.7-3.6c1.9,0.1,3.8,0.2,5.7,0.3C136.4,171.9,137.5,172.1,138.6,172.2z" />
        <path fill="#E94D92" d="M141.9,224.3c3.8,2.3,7.6,4.5,11.4,6.8c2.5,1.8,4.9,3.6,7.4,5.4c-0.3,0.6-0.6,1.2-0.9,1.7
		c-1,1.7-1.2,4.1-3.6,4.7c-1.9-0.4-3.7-0.9-5.6-1.3c-1.2-0.4-2.4-0.7-3.6-1.1c-2.3-0.9-4.6-1.8-6.9-2.7c-4.1-1.9-8.2-3.8-12.3-5.8
		c-1.2-0.6-2.3-1.2-3.4-1.9c0.1-3.1,0.2-6.2,0.5-9.3c0.1-1.7,0.6-3.4,0.9-5c2.3,0.9,4.6,1.8,6.9,2.8c2,1.2,4,2.5,6,3.7
		C139.7,222.8,140.8,223.6,141.9,224.3z" />
        <path fill="#E94D92" d="M204.1,197.8c4.1-0.3,8.2-0.7,12.3-1c0.7,0.1,1.5,0.1,2,0.2c0.6,2.6,1.1,4.9,1.7,7.1c-6.6,2.5-13.2,5-19.7,7.5
		c-0.9,0.3-1.9,0.5-2.9,0.8c-4.4,1-8.7,2-13.1,2.9c-0.5,0.1-1,0.2-1.6,0.2c0.7-0.4,1.4-0.8,2.1-1.2c0-0.4-0.1-1-0.1-1.5
		c0.1-2.7,0.4-5.4,0.3-8.1c-0.1-1.1-1.1-2.2-1.8-3.3c5.1-0.9,10.1-1.8,15.2-2.7c0.6-0.1,1.2-0.2,1.8-0.3
		C201.5,198.1,202.8,198,204.1,197.8z" />
        <path fill="#F3ADBC" d="M220.1,204.1c-0.5-2.3-1.1-4.6-1.7-7.1c-0.5,0-1.2-0.1-2-0.2c2.2-0.6,4.6-1,6.7-1.9c1.8-0.8,3.4-2.1,5.1-3.2
		c2.4-1.5,4.9-3,7.3-4.4c0.3-0.2,0.8,0,1.6,0.5c-1,1-2,2.1-3.1,3.3c3.4,1,6.8,1.8,10.3,0.6c0.5,0.3,0.9,0.7,1.4,1
		c-1.4,2.2-2.8,4.3-4.2,6.5c-1.4,2.2-3.8,1.9-5.8,2.1c-2.9,0.4-5.9,0-8.8,0.5C224.7,202.2,222.4,203.3,220.1,204.1z" />
        <path fill="#F3ADBC" d="M156.1,242.8c2.4-0.6,2.6-2.9,3.6-4.7c0.3-0.6,0.6-1.2,0.9-1.7c2.3,0.6,4.6,1.2,6.9,1.8c2.5,0,5-0.1,7.5,0.1
		c1.4,0.1,2.7,0.8,4,1.3c-0.8,3-2.9,1.1-4.6,1.7c2.3,2.4,3.7,5.4,6.9,6.6c0.5,0.2,0.9,0.9,1.4,1.3c-0.5,0.4-0.9,1-1.4,1.2
		c-1.2,0.6-2.6,1-3.9,1.4c-2.2,0.8-4.5,1-6.5-0.5c-2.4-1.8-4.7-3.7-7.2-5.2c-2-1.2-4.2-1.9-6.4-2.8
		C156.9,243.1,156.5,243,156.1,242.8z" />
        <path fill="#CAC9CE" d="M270.3,344.1c-9.5,0-19,0-28.5,0c0.6-0.1,1.1-0.4,1.7-0.4c8.4,0,16.7,0,25.1,0
		C269.1,343.7,269.7,344,270.3,344.1z" />
        <path fill="#F3ADBC" d="M105.9,172.7c-0.2-0.4-0.4-0.9-0.6-1.3c1.5-2.3,3.2-4.6,2.8-7.6c-0.2-1.6-0.6-3.4-1.3-4.8
		c-2-3.6-4.3-7.1-6.3-10.6c-0.8-1.4-1.4-2.9-2-4.4c-0.7-2.1,0.1-3,2.3-2.6c1,0.2,1.9,0.9,3.1,1.5c0-2,0-4,0-6c0-3.1,1.3-5.6,3.4-7.8
		c0.9-0.9,1.7-1.3,3-0.7c2.7,1.1,5.5,2,8.2,2.9c11.3,3.6,13.7,14.8,8.8,23.6c-1.3,2.4-3.5,4.3-5.3,6.4c-3.3-0.3-6.5-0.6-9.6-0.8
		c1.3,2.7,3.4,4.2,7.1,5c-1.3,2.7-1.5,5.5-0.8,8.3c-4.6,3-9.4,2.6-12.3-0.9C106.3,172.8,106.1,172.8,105.9,172.7z M117.5,144.8
		c-0.3-0.1-0.5-0.1-0.8-0.2c-0.5,1.5-1.1,3-1.6,4.6c-0.1,0.3,0.4,1,0.6,1c1,0,2.1-0.1,3.1-0.2c-0.1-0.9-0.1-1.9-0.3-2.8
		C118.4,146.4,117.9,145.6,117.5,144.8z M110.6,152c0.5,0.9,0.8,1.7,1.3,2.2c2.1,1.8,3.5,1.9,5.3,0.4
		C115.3,153.9,113.3,153.1,110.6,152z M121.4,137.2c-0.1,0.4-0.1,0.8-0.2,1.3c1.7,0.2,3.5,0.5,5.2,0.7c0.1-0.4,0.1-0.8,0.2-1.2
		C124.9,137.7,123.1,137.5,121.4,137.2z M113.9,138.5c-0.1-0.4-0.1-0.8-0.2-1.2c-1.8,0.2-3.5,0.4-5.3,0.7c0,0.4,0.1,0.8,0.1,1.2
		C110.4,138.9,112.1,138.7,113.9,138.5z" />
        <path fill="#E8EDF4" d="M106.4,172.9c2.9,3.6,7.8,3.9,12.3,0.9c0.5,0.8,1,1.6,1.4,2.4c0.1,9.9,0.3,19.9,0.4,29.8
		c0,1.2,0.1,2.4,0.1,3.7c-0.1,0.2-0.1,0.3,0,0.4c0,0.8,0,1.6-0.1,2.3c-0.3-0.3-0.8-0.5-1-0.8c-3.7-5-7.4-10-11.1-15.1
		c-1-1.3-1.6-2.9-2.4-4.3c0-6.3,0.1-12.6,0.1-19C106.3,173.2,106.4,173,106.4,172.9z" />
        <path fill="#F097A8"
            d="M119.5,165.5c-3.7-0.7-5.8-2.2-7.1-5c3.1,0.3,6.3,0.5,9.6,0.8C121.2,162.7,120.4,164.1,119.5,165.5z" />
        <path fill="#E94D92" d="M106.1,192.2c0.8,1.4,1.5,3,2.4,4.3c3.6,5.1,7.4,10.1,11.1,15.1c0.3,0.3,0.7,0.6,1,0.8c1.7,1.1,3.4,2.1,5,3.2
		c-0.3,1.7-0.8,3.3-0.9,5c-0.3,3.1-0.3,6.2-0.5,9.3c-4.4-2.2-9-4.1-13.2-6.6c-1.9-1.1-3.2-3.2-4.7-4.9c-3.3-4.5-6.9-8.9-9.9-13.6
		c-0.9-1.4-0.3-3.6-0.3-5.5c0-4.7,0-9.5,0-14.2c0-0.7,0.5-1.3,0.7-2c0.7,0.4,1.5,0.6,2,1.2c2,2.3,3.8,4.7,5.8,7
		C105.1,191.7,105.7,191.9,106.1,192.2z" />
        <path fill="#EB609E"
            d="M106.4,172.9c0,0.2-0.1,0.3-0.2,0.4c-0.1-0.2-0.2-0.4-0.3-0.5C106.1,172.8,106.3,172.8,106.4,172.9z" />
        <path fill="#DCE0EB" d="M456.4,445.8c0-4.3,0-8.5-0.1-12.8c-0.1-1-0.3-1.9-0.4-2.9c0.1,1,0.3,1.9,0.4,2.9c0-4.4,0-8.9,0-13.3
		c-0.1-8.8-0.3-17.7-0.5-26.5c-0.1-3.5-0.3-7-0.4-10.5c0-0.9,0.3-1.8,0.4-2.7c0-1.7,0-3.4,0-5.2c0.2-9.7-3.6-17.7-10.7-24.1
		c-0.9-0.8-2.1-1.4-3.1-2c-0.2-0.3-0.3-0.6-0.5-0.9c-0.2,0-0.3,0-0.5,0c-1.5-1.6-2.8-3.3-4.4-4.8c-0.6-0.5-1.8-0.8-2.5-0.6
		c-2.5,0.9-4.3,2.7-5,5.4c0.3,0.3,0.9,0.7,0.8,0.8c-1,2.7,0.5,3.4,2.8,3.6c-1.1,0.2-2.1,0.5-3.2,0.7c1.4,0.3,3.2,0.1,4.1,1
		c1.1,1.1,1.3,3,2,4.5c1.6,3.6,2.9,7.3,6.4,9.7c0.3,0.5,0.6,0.9,1,1.4c0.5,0.5,0.9,0.9,1.4,1.4c2.5,1.8,5,3.6,7.5,5.5
		c0.6,0.4,1.1,1.2,1.2,1.9c0.3,2.9,0.5,5.8,0.5,8.7c0.2,15.1,0.3,30.1,0.5,45.2c0,4,0,8,0,12c-0.1,0.4-0.3,0.8-0.4,1.2
		c-0.1,0-0.2-0.1-0.4-0.1c-0.2-5-0.4-9.9-0.6-14.9c0-4,0-8,0-11.9c0,0,0,0,0,0c-0.1-5.2-0.3-10.4-0.4-15.5c-0.1-2.5-0.3-5-0.5-7.5
		c-0.6-6.2-4.8-9.3-10-11.5c-0.7,0-1.3,0.1-2,0.1c0,1-0.1,1.9-0.4,2.7c0.3-0.8,0.4-1.7,0.4-2.7c0.7,0,1.3-0.1,2-0.1
		c-1.4-0.8-2.7-1.7-4.2-2.3c-3.9-1.7-7.9-3.2-12.3-2.3c-4.2,0.9-7,4.3-6.2,8.3c3-1.6,4.9,0.5,6.9,2.1c1.8,1.4,3.3,3.4,5.2,4.5
		c3.5,1.9,7.3,3.4,11.5,2.2c-0.8-0.1-1.5-0.2-2.3-0.3c0.8,0.1,1.5,0.2,2.3,0.3c0.9,0,1.8,0,2.8,0c2.5,0,3.7,0.9,4.1,3.3
		c0.3,2.1,0.5,4.2,0.5,6.4c0.1,5-0.1,9.9,0.1,14.9c0.1,4.3,0.7,8.6,0.8,13c0.1,4-0.3,8.1-0.4,12.1
		C452.4,445.8,454.4,445.8,456.4,445.8z M441.4,364c-0.1-0.5-0.1-0.9-0.1-1.4c0-0.3,0-0.7,0-1c0-1,0.2-2,0.2-3
		c-0.1-1.1-0.2-2.3-0.3-3.4c0.1,1.1,0.2,2.3,0.3,3.4c0.1,1-0.1,2-0.2,3c0,0.3,0,0.7,0,1C441.3,363.1,441.4,363.5,441.4,364
		c0.1,0.9,0.3,1.8,0.4,2.7C441.7,365.8,441.6,364.9,441.4,364z M454.2,433.1c0.2,1,0.3,2.1,0.3,3.1
		C454.5,435.2,454.4,434.2,454.2,433.1z M438.9,387.4c-0.4,0.8-0.8,1.5-1.4,2.2C438.1,388.9,438.6,388.1,438.9,387.4z" />
        <path fill="#DCE0EB" d="M457.5,418.3c0.1-5.2,0.2-10.4,0.5-15.5c0.1-2.5,0.3-5,0.5-7.5c0.6-6.2,4.8-9.4,10-11.5
		c1.4-0.8,2.8-1.7,4.2-2.3c3.9-1.7,7.9-3.2,12.3-2.3c4.2,0.9,7,4.3,6.2,8.3c-3-1.6-4.9,0.5-6.9,2.1c-1.8,1.4-3.3,3.4-5.2,4.5
		c-3.5,1.9-7.3,3.4-11.5,2.2c-0.9,0-1.8,0-2.8,0c-2.5,0-3.7,0.9-4.1,3.3c-0.3,2.1-0.5,4.2-0.5,6.4c-0.1,5,0.1,10-0.1,14.9
		c-0.1,4.3-0.8,8.6-0.8,13c-0.1,4,0.3,8.1,0.4,12.1c-0.9,0-1.8,0-2.7,0v-5.6c0.1-3.3,0.3-6.6,0.4-9.9
		C457.5,426.3,457.5,422.3,457.5,418.3z" />
        <path fill="#5580AC" d="M100.4,311.4c-4.6,14.3-9.6,28.4-13.7,42.8c-3,10.3-4.4,21.1-7.3,31.5c-5.4,19.7-11.4,39.2-17.1,58.8
		c-0.2,0.8-0.5,1.6-0.7,2.4c-2.7-0.7-5.5-1.3-8.2-2c1.7-11.1,3.3-22.1,5.1-33.2c2.2-13.2,4.9-26.2,9.2-38.9c3.3-9.5,3.6-19.4,4-29.3
		c1-21.3,2.6-42.5,5.7-63.7c1.5-10.2,5.2-19.7,9.6-28.9c2-4.1,4-8.2,6.1-12.3c0.1-0.3,0.3-0.6,0.4-1c0,0,0,0,0,0
		c2.3,0.4,4.6,0.9,6.9,1.3c2,0.4,3.5,0.1,3.5-2.4c0.4,0,0.7,0.1,1.1,0.1c-0.1,0.9-0.1,1.7-0.2,2.3c1.7,0.5,3.2,1,4.6,1.4
		c0.5,0.1,1.1,0.2,1.6,0.2c1.7-0.2,1.9,0.6,1.9,2c-0.1,2.5,0,5,0.4,7.5c0.1-0.4,0.3-0.9,0.3-1.3c0-1-0.2-2-0.2-3
		c0-1.4-0.4-3.1,0.1-4.3c0.4-0.9,2.1-1.2,3.2-1.7c1.1-0.2,2.2-0.4,3.4-0.7c0-0.9,0-1.6,0-2.4c0.3-0.1,0.6-0.1,0.9-0.2
		c0.1,0.7,0.2,1.5,0.3,2.5c2.3-0.4,4.3-0.7,6.4-1.1c0.4,0.6,0.9,1.2,1.2,1.9c2.3,6.5,5.2,12.8,6.8,19.5c5,21.1,3.7,42.2-0.6,63.2
		c-2.9,14-6.5,27.9-9,42c-4.6,26.2-6.2,52.7-2.7,79.2c-3.1,0.1-6.2,0.2-9.3,0.2c-0.7-0.1-1.3-0.2-2.2-0.3
		c-0.8-6.6-1.9-13.1-2.2-19.6c-0.7-12.5-1.3-25-1.3-37.5c0-5.9,1.9-11.8,2.2-17.7c0.5-10.5,0.7-21,0.6-31.5c0-7-0.7-13.9-1-20.9
		c0-0.2-0.1-0.4-0.1-0.7c0-0.6,0-1.3,0-1.9c-0.3-4.9-0.6-9.8-0.9-14.7c-0.1-0.8-0.2-1.6-0.3-2.4c-0.1-2.4-0.3-4.8-0.4-7.2
		c-0.2,0-0.3,0-0.5,0c-0.8,2.4-1.6,4.9-2.4,7.3c-0.4,1-0.8,1.9-1.2,2.9c-0.8,2.4-1.7,4.9-2.5,7.3
		C101.3,308.7,100.8,310.1,100.4,311.4z" />
        <path fill="#2E4777" d="M103.8,236.7c0,2.5-1.5,2.8-3.5,2.4c-2.3-0.4-4.6-0.9-6.9-1.3c0.5-2.3,1.7-3.2,4.2-2.4
		C99.6,236.1,101.7,236.3,103.8,236.7z" />
        <path fill="#2E4777" d="M127.8,238.2c-2.1,0.3-4.1,0.7-6.4,1.1c-0.1-1-0.2-1.7-0.3-2.5c2.6-0.7,5.3-1.4,7.9-1.9
		c0.5-0.1,1.2,0.8,1.8,1.2c-0.5,0.7-1,1.4-1.4,2.1C128.8,238.1,128.3,238.1,127.8,238.2z" />
        <path fill="#2E4777"
            d="M109,237.1c2.9,0,4.8,0,6.9,0c0,0.9,0,1.7,0,2.9c-1.8,0-3.6,0.2-5.2-0.1C110.1,239.8,109.7,238.3,109,237.1z" />
        <path fill="#2E4777" d="M109.4,240.5c-1.5-0.5-3-0.9-4.6-1.4c0-0.6,0.1-1.5,0.2-2.3c1.3,0,2.5,0,3.8,0
		C109,238.2,109.2,239.4,109.4,240.5z" />
        <path fill="#2E4777" d="M120.1,236.9c0,0.8,0,1.5,0,2.4c-1.2,0.2-2.3,0.5-3.4,0.7c0-1,0.1-1.9,0.2-3
		C118,236.9,119.1,236.9,120.1,236.9z" />
        <path fill="#2E4777"
            d="M93.4,237.7c-0.1,0.3-0.3,0.6-0.4,1C93.2,238.4,93.3,238.1,93.4,237.7z" />
        <path fill="#E8EDF4" d="M127.8,238.2c0.5,0,1-0.1,1.5-0.1c1.2,2.8,2.4,5.6,3.5,8.4c4.1,10.4,6,21.3,6.8,32.5
		c1.4,20.9-2.5,41.2-7.6,61.3c-4.2,16.7-7.1,33.6-8.2,50.7c-0.6,8.7-1.2,17.5-1.1,26.2c0.1,8.9,1.1,17.9,1.7,26.8
		c-0.3,0-0.6,0-0.9,0c-3.5-26.6-2-53,2.7-79.2c2.5-14.1,6.1-28,9-42c4.3-21,5.7-42.1,0.6-63.2c-1.6-6.7-4.4-13-6.8-19.5
		C128.7,239.4,128.2,238.8,127.8,238.2z" />
        <path fill="#DCE0EB" d="M500.7,425.6c-0.9-4-2.8-7.4-6.3-9.7c-5.8-3.8-12.4-5.2-19-6.7c-0.4-0.1-0.9-0.3-1.3-0.4
		c-1.6-0.3-3.3-0.5-4.9-1c-5.2-1.5-7,0.9-7.5,5.2c-0.5,5.1-0.8,10.2-1,15.3c-0.3,5.9-0.4,11.8-0.5,17.7c0.4,0,0.7,0,1.1,0
		c0,0,0,0,0,0c0.3,0,0.6,0,0.9,0c0,0,0,0,0,0c0.4,0,0.9,0,1.3,0c-0.1-2.4-0.3-4.8-0.3-7.3c0-1.5,0.3-3,0.4-4.6
		c0.3-6.3,0.6-12.5,1-18.7c0.1-0.8,0.8-1.6,1.2-2.4c0.6,0.5,1.4,0.8,1.9,1.4c1.9,2.6,3.6,5.5,5.7,8c1,1.2,2.7,1.7,4.1,2.5
		c0.5-0.3,1-0.5,1.6-0.8c-0.5,0.3-1.1,0.6-1.6,0.8c2.8,1.7,5.6,0.6,8.4,0.1c3.6-0.6,7.2-1.6,10.7,0.4c0.7,0.4,1.2,0.9,1.9,1.3
		c0.5,0.3,1.3,0.6,1.6,0.4C500.3,426.9,500.8,426,500.7,425.6z" />
        <path fill="#DCE0EB" d="M256.1,244.2c17.5-0.2,32.3,14.6,32.2,32.5c-0.1,17.3-14.7,32.4-33,32c-16.9-0.3-32-14.7-31.6-33.1
		C224.1,258.7,238.3,244,256.1,244.2z M284.6,276.4c0.7-15.1-13.5-28.6-28.3-28.7c-15.3-0.1-29,13.7-29,28.6
		c0,15.2,13.7,28.7,28.6,28.8C270.9,305.2,285.3,291.8,284.6,276.4z" />
        <path fill="#E94D92" d="M183.3,201.4c0.6,1.1,1.7,2.2,1.8,3.3c0.2,2.7-0.2,5.4-0.3,8.1c0,0.5,0.1,1,0.1,1.5c-0.7,0.4-1.4,0.8-2.1,1.2
		c-0.3,0-0.6,0.1-0.9,0.1c-0.5,0.1-0.9,0.2-1.4,0.4c-0.3,0-0.6,0.1-0.8,0.1c-0.5,0.1-1,0.2-1.4,0.3c-0.3,0-0.6,0.1-0.9,0.1
		c-0.5,0.1-0.9,0.2-1.4,0.3c-0.3,0-0.7,0.1-1,0.1c-0.1,0-0.3,0-0.3,0.2c-0.3,0.1-0.7,0.1-1,0.2c-0.2,0-0.3,0.1-0.5,0.1
		c-2.4,0.9-4.9,0.8-6.7-0.7c-7.8-6.6-15.5-13.3-23.2-20c1.5,0.6,2.9,1.3,4.8,2.1c0.1-1,0.3-2.1,0.2-3.1c-0.1-4.1-0.2-8.2-0.5-12.3
		c-0.1-1.9-0.9-3.7-1.3-5.6c7.4,7,14.7,14,22.1,21c0.4,0.4,0.9,0.9,1.3,1.3c2,2,3.9,4.6,7.3,2.5c0.3-0.1,0.7-0.2,1-0.3
		c0.3,0,0.6-0.1,0.9-0.1c0.9-0.2,1.9-0.5,2.8-0.7C182.3,201.5,182.8,201.4,183.3,201.4z" />
        <path fill="#EC78AB"
            d="M181.9,201.6c-0.9,0.2-1.9,0.5-2.8,0.7C180,202,180.9,201.8,181.9,201.6z" />
        <path fill="#EC78AB"
            d="M178.2,202.4c-0.3,0.1-0.7,0.2-1,0.3C177.5,202.6,177.8,202.5,178.2,202.4z" />
        <path fill="#DCE0EB" d="M141.9,224.3c-1.1-0.7-2.2-1.4-3.3-2.2c-0.8-2.3-1.5-4.6-2.3-6.9c0.6-0.9,1.3-1.9,1.9-2.8
		c1.1,3.3,2.2,6.6,3.3,9.9C141.6,222.9,141.7,223.6,141.9,224.3z" />
        <path fill="#EB609E"
            d="M120.7,210.1c-0.1-0.1-0.1-0.3,0-0.4c0.1,0.1,0.1,0.2,0.1,0.3C120.9,210,120.8,210.1,120.7,210.1z" />
        <path fill="#EC78AB"
            d="M180.5,216c0.5-0.1,0.9-0.2,1.4-0.4C181.4,215.8,180.9,215.9,180.5,216z" />
        <path fill="#EC78AB"
            d="M178.2,216.5c0.5-0.1,1-0.2,1.4-0.3C179.2,216.3,178.7,216.4,178.2,216.5z" />
        <path fill="#EC78AB"
            d="M175.9,217c0.5-0.1,0.9-0.2,1.4-0.3C176.8,216.7,176.4,216.8,175.9,217z" />
        <path fill="#EC78AB"
            d="M174.6,217.2c0.1-0.1,0.2-0.2,0.3-0.2c0,0-0.1,0.2-0.1,0.2L174.6,217.2z" />
        <path fill="#EC78AB"
            d="M173.1,217.5c0.2,0,0.3-0.1,0.5-0.1C173.4,217.4,173.3,217.5,173.1,217.5z" />
        <path fill="#F097A8" d="M117.5,144.8c0.4,0.8,0.9,1.6,1.1,2.4c0.2,0.9,0.2,1.8,0.3,2.8c-1,0.1-2.1,0.2-3.1,0.2c-0.2,0-0.7-0.7-0.6-1
		c0.5-1.5,1-3,1.6-4.6C117,144.7,117.2,144.8,117.5,144.8z" />
        <path fill="#2E4777" d="M121.4,137.2c1.7,0.3,3.5,0.5,5.2,0.8c-0.1,0.4-0.1,0.8-0.2,1.2c-1.7-0.2-3.5-0.5-5.2-0.7
		C121.3,138.1,121.3,137.6,121.4,137.2z" />
        <path fill="#2E4777" d="M113.9,138.5c-1.8,0.2-3.5,0.4-5.3,0.7c0-0.4-0.1-0.8-0.1-1.2c1.8-0.2,3.5-0.4,5.3-0.7
		C113.8,137.7,113.8,138.1,113.9,138.5z" />
        <path fill="#DCE0EB" d="M100.4,311.4c0.5-1.4,0.9-2.8,1.4-4.1c0.3,2.6,1.6,4.5,4,5.6c1.3,0.6,2.8,0.9,4.3,1.3c0,0.6,0,1.3,0,1.9
		C105.9,316.5,102.7,314.8,100.4,311.4z" />
        <path fill="#E8EDF4" d="M105.4,297.1c0.8-2.4,1.6-4.9,2.4-7.3c0.2,0,0.3,0,0.5,0c0.1,2.4,0.3,4.8,0.4,7.2c-0.1,0.2-0.3,0.4-0.4,0.6
		c-0.8-1.4-1.6-1.4-2.4,0C105.7,297.4,105.5,297.3,105.4,297.1z" />
        <path fill="#DCE0EB" d="M105.4,297.1c0.1,0.2,0.3,0.3,0.4,0.5c0.8-1.4,1.7-1.4,2.4,0c0.1-0.2,0.3-0.4,0.4-0.6c0.1,0.8,0.2,1.6,0.3,2.4
		c-0.9-0.1-1.8-0.3-2.7-0.2c-0.7,0.1-1.4,0.5-2.1,0.7C104.6,299,105,298.1,105.4,297.1z" />
        <circle fill="#2E4777" cx="124.2" cy="142.4" r="1.3" />
        <circle fill="#2E4777" cx="111.8" cy="142.9" r="1.3" />
        <circle fill="#EB609E" cx="398.4" cy="126.8" r="10.4" />
        <circle fill="#EB609E" cx="427.3" cy="131.2" r="4.5" />
        <circle fill="#F7D3DA" cx="408.5" cy="157.5" r="7.7" />
        <circle fill="#EE7E9A" cx="395.5" cy="95.2" r="7.9" />
        <path fill="#F8F9FC" d="M94.6,94.7c-0.5-3.6-3.8-6.1-7.4-5.7c-3.4,0.5-5.8,3.4-5.7,6.7c-3.7,0.9-7.4,1.8-11.1,2.7
		c-1.1-2.8-3.5-4.8-6.4-5.4c0.2-3.5,0.5-6.9,0.5-10.4c0-0.9,0.2-1.7,0.6-2.2c3.3-1,5.5-4.2,5-7.7c-0.5-3.9-4.1-6.5-7.9-6
		c-3.9,0.5-6.5,4.1-6,7.9c0.4,3,2.7,5.3,5.5,5.9c-0.1,2.5-0.2,5-0.4,7.4c-0.2,1.7-0.5,3.5-0.9,5.2c-4.3,1-7.2,5.2-6.6,9.6
		c0.1,0.4,0.1,0.8,0.3,1.2c-0.2,0.7-0.9,1.1-1.8,1.5c-3.1,1.3-6,2.7-9,4.1c-1.4-1.8-3.6-2.8-6-2.5c-3.5,0.5-6,3.7-5.5,7.3
		c0.5,3.5,3.7,6,7.3,5.5c3.5-0.5,6-3.7,5.5-7.3c0,0,0-0.1,0-0.1c3.8-1.8,7.5-3.6,11.3-5.3c1.2,1.4,2.9,2.5,4.7,2.9
		c0,0.8,0.1,1.6,0.1,2.4c0,3.4,0,6.8,0.1,10.1c-1.6,0.6-2.6,2.3-2.4,4c0.3,2.1,2.2,3.5,4.3,3.2c2.1-0.3,3.5-2.2,3.2-4.3
		c-0.2-1.3-1-2.4-2.2-2.9c0,0,0,0,0,0c0-4.1,0-8.3-0.1-12.4c0,0,0,0,0,0c4.2-0.6,7.3-4.1,7.5-8.2c0.4-0.4,0.7-0.8,1.2-0.9
		c3.3-0.9,6.6-1.5,10-2.2C82,98.6,82,98.3,81.9,98c1.1,2.8,4,4.6,7.1,4.1C92.6,101.7,95.1,98.3,94.6,94.7z" />
</g>
</svg>
