<svg width="500" height="500" viewBox="0 0 500 500" fill="none" xmlns="http://www.w3.org/2000/svg">
<path d="M90.7001 374.4C174.5 418.2 310.3 418.2 394.1 374.4C477.9 330.6 477.9 259.7 394.1 215.9C310.3 172.1 174.5 172.1 90.7001 215.9C6.9001 259.7 6.9001 330.6 90.7001 374.4Z" fill="#FAFAFA"/>
<path d="M291.8 315.1C272.1 326.5 272.1 344.9 291.8 356.3C311.5 367.7 343.4 367.7 363.2 356.3C383 344.9 382.9 326.5 363.2 315.1C343.5 303.7 311.5 303.8 291.8 315.1Z" fill="#EBEBEB"/>
<path d="M84.2998 152L137.1 135.6L96.4998 163.8L84.2998 152Z" fill="#F03780"/>
<path d="M137.1 135.6L80.2001 145L68.1001 133.3L137.1 135.6Z" fill="#F03780"/>
<path d="M80.1997 145V159.1L84.2997 152L137.1 135.6L80.1997 145Z" fill="#6D4D5A"/>
<path d="M80.1997 159.1L88.3997 155.9L84.2997 152L80.1997 159.1Z" fill="#F03780"/>
<path d="M84.2998 152L88.3998 155.9L87.0998 156.4L84.2998 152Z" fill="#6D4D5A"/>
<path d="M71.4997 156.9C71.0997 156.9 70.6997 156.6 70.6997 156.2C70.6997 155.9 70.7997 155.7 71.0997 155.5C71.9997 155 72.8997 154.5 73.7997 154.1C74.1997 153.9 74.5997 154 74.7997 154.4C74.9997 154.8 74.8997 155.2 74.4997 155.4C74.4997 155.4 74.4997 155.4 74.3997 155.4C73.4997 155.8 72.5997 156.3 71.7997 156.8C71.6997 156.9 71.5997 156.9 71.4997 156.9Z" fill="#E0E0E0"/>
<path d="M62.2999 237.7C62.0999 237.7 61.9999 237.7 61.8999 237.6C60.2999 236.5 58.6999 235.2 57.2999 233.8C56.9999 233.6 56.8999 233.1 57.0999 232.8C57.2999 232.5 57.7999 232.4 58.0999 232.6C58.1999 232.6 58.1999 232.7 58.2999 232.8C59.6999 234.1 61.1999 235.3 62.7999 236.4C63.0999 236.6 63.1999 237.1 62.9999 237.4C62.6999 237.6 62.4999 237.7 62.2999 237.7ZM54.3999 230.4C54.1999 230.4 53.9999 230.3 53.7999 230.1C52.4999 228.6 51.3999 226.9 50.3999 225.2C50.1999 224.8 50.2999 224.4 50.6999 224.2C51.0999 224 51.4999 224.1 51.6999 224.5C52.6999 226.1 53.7999 227.7 54.9999 229.2C55.2999 229.5 55.1999 230 54.8999 230.3C54.7999 230.4 54.5999 230.4 54.3999 230.4ZM48.7999 221.3C48.4999 221.3 48.1999 221.1 48.0999 220.9C47.2999 219.1 46.5999 217.2 45.9999 215.3C45.8999 214.9 46.1999 214.5 46.5999 214.4C46.9999 214.3 47.2999 214.5 47.4999 214.9C48.0999 216.7 48.6999 218.5 49.4999 220.3C49.6999 220.7 49.4999 221.1 49.0999 221.3C48.9999 221.3 48.8999 221.3 48.7999 221.3ZM45.4999 211.1C45.0999 211.1 44.7999 210.8 44.7999 210.5C44.3999 208.6 44.0999 206.6 43.9999 204.6C43.9999 204.2 44.2999 203.8 44.6999 203.8C45.0999 203.8 45.4999 204.1 45.4999 204.5C45.5999 206.4 45.8999 208.3 46.2999 210.2C46.3999 210.6 46.0999 211 45.6999 211.1H45.4999ZM44.5999 200.4C44.1999 200.4 43.8999 200.1 43.8999 199.7C43.8999 197.7 44.0999 195.7 44.2999 193.8C44.2999 193.4 44.5999 193.1 45.0999 193.1C45.4999 193.1 45.7999 193.4 45.7999 193.9C45.7999 194 45.7999 194 45.7999 194.1C45.5999 196 45.3999 197.9 45.3999 199.9C45.2999 200.1 44.9999 200.4 44.5999 200.4ZM45.7999 189.8C45.6999 189.8 45.6999 189.8 45.5999 189.8C45.1999 189.7 44.8999 189.3 44.9999 188.9C45.3999 187 45.9999 185.1 46.6999 183.2C46.7999 182.8 47.2999 182.6 47.6999 182.7C48.0999 182.8 48.2999 183.3 48.1999 183.7C47.4999 185.5 46.9999 187.3 46.5999 189.2C46.4999 189.6 46.1999 189.8 45.7999 189.8ZM49.3999 179.7C49.2999 179.7 49.1999 179.7 49.0999 179.6C48.6999 179.4 48.5999 179 48.6999 178.6C49.5999 176.8 50.5999 175.1 51.5999 173.4C51.7999 173.1 52.2999 173 52.5999 173.2C52.8999 173.4 52.9999 173.9 52.7999 174.2C51.6999 175.8 50.7999 177.5 49.9999 179.2C49.8999 179.5 49.6999 179.7 49.3999 179.7ZM55.0999 170.7C54.8999 170.7 54.7999 170.6 54.5999 170.5C54.2999 170.2 54.1999 169.8 54.4999 169.4C55.6999 167.9 57.0999 166.4 58.4999 165C58.7999 164.7 59.2999 164.7 59.5999 165C59.8999 165.3 59.8999 165.8 59.5999 166.1C58.1999 167.5 56.8999 168.9 55.6999 170.4C55.5999 170.6 55.3999 170.7 55.0999 170.7ZM62.5999 163C62.3999 163 62.1999 162.9 61.9999 162.7C61.6999 162.4 61.7999 161.9 62.0999 161.6C63.5999 160.3 65.1999 159.1 66.8999 158C67.1999 157.8 67.6999 157.9 67.8999 158.2C68.0999 158.5 67.9999 159 67.6999 159.3C66.0999 160.4 64.5999 161.5 63.0999 162.8C62.9999 162.9 62.7999 163 62.5999 163Z" fill="#E0E0E0"/>
<path d="M69.0997 241.6C68.9997 241.6 68.8997 241.6 68.7997 241.5C67.8997 241.1 66.9997 240.6 66.0997 240.1C65.6997 239.9 65.5997 239.5 65.7997 239.1C65.9997 238.7 66.3997 238.6 66.7997 238.8C67.6997 239.3 68.5997 239.7 69.4997 240.1C69.8997 240.3 69.9997 240.7 69.8997 241.1C69.6997 241.4 69.3997 241.6 69.0997 241.6Z" fill="#E0E0E0"/>
<path d="M411.2 205.3L453.5 178.2L472.1 184.2L411.2 205.3Z" fill="#F03780"/>
<path d="M411.2 205.3L447.8 174.8L439.6 165.5L411.2 205.3Z" fill="#F03780"/>
<path d="M447.8 174.8V181.9L411.2 205.3L447.8 174.8Z" fill="#6D4D5A"/>
<path d="M456 171.9C455.8 171.9 455.6 171.8 455.5 171.7C455.2 171.4 455.2 171 455.4 170.6C456.7 169.1 457.9 167.6 458.9 165.9C459.1 165.5 459.6 165.4 459.9 165.6C460.3 165.8 460.4 166.3 460.2 166.6C459.2 168.4 457.9 170 456.6 171.5C456.4 171.8 456.2 171.9 456 171.9ZM461.7 162.6C461.6 162.6 461.5 162.6 461.4 162.6C461 162.5 460.8 162 461 161.6C461.7 159.8 462.2 157.9 462.6 156C462.7 155.6 463.1 155.3 463.5 155.4C463.9 155.5 464.2 155.9 464.1 156.3C463.7 158.3 463.2 160.3 462.4 162.2C462.3 162.4 462 162.6 461.7 162.6ZM463.9 151.8C463.5 151.8 463.2 151.5 463.2 151.1C463.2 150.8 463.2 150.6 463.2 150.3C463.2 148.6 463.1 146.9 462.8 145.2C462.7 144.8 463 144.4 463.4 144.3C463.8 144.2 464.2 144.5 464.3 144.9C464.6 146.7 464.7 148.4 464.7 150.2C464.7 150.5 464.7 150.7 464.7 151C464.6 151.5 464.3 151.8 463.9 151.8ZM462.4 141C462.1 141 461.8 140.8 461.7 140.5C461.1 138.6 460.4 136.8 459.6 135C459.4 134.6 459.6 134.2 459.9 134C460.3 133.8 460.7 134 460.9 134.4C461.8 136.2 462.5 138.1 463.1 140.1C463.2 140.5 463 140.9 462.6 141C462.5 141 462.4 141 462.4 141ZM457.7 131.1C457.4 131.1 457.2 131 457.1 130.7C456 129.1 454.8 127.5 453.6 126C453.3 125.7 453.4 125.2 453.7 124.9C454 124.6 454.5 124.7 454.7 125C456 126.5 457.3 128.2 458.4 129.9C458.6 130.2 458.5 130.7 458.2 130.9C458 131 457.9 131.1 457.7 131.1ZM450.7 122.7C450.5 122.7 450.3 122.6 450.2 122.5C448.8 121.2 447.2 119.9 445.7 118.7C445.4 118.5 445.3 118 445.5 117.7C445.7 117.4 446.2 117.3 446.5 117.5C448.1 118.7 449.7 120 451.2 121.4C451.5 121.7 451.5 122.2 451.2 122.5C451.1 122.6 450.9 122.7 450.7 122.7ZM441.9 116C441.8 116 441.6 116 441.5 115.9C440.8 115.5 440.1 115.1 439.4 114.7C438.4 114.1 437.4 113.6 436.3 113C435.9 112.8 435.7 112.4 435.9 112C436.1 111.6 436.5 111.4 436.9 111.6C436.9 111.6 437 111.6 437 111.7C438 112.2 439.1 112.8 440.1 113.4C440.8 113.8 441.6 114.2 442.3 114.7C442.6 114.9 442.7 115.4 442.5 115.7C442.4 115.8 442.2 116 441.9 116ZM352.3 115.5C352 115.5 351.8 115.4 351.7 115.1C351.5 114.7 351.6 114.3 352 114.1C353.7 113.1 355.5 112.1 357.3 111.3C357.7 111.1 358.1 111.3 358.3 111.6C358.5 112 358.3 112.4 357.9 112.6C356.1 113.5 354.4 114.4 352.7 115.4C352.5 115.5 352.4 115.5 352.3 115.5ZM432.2 110.9C432.1 110.9 432 110.9 431.9 110.8C430.1 110 428.2 109.3 426.4 108.6C426 108.5 425.8 108 425.9 107.6C426 107.2 426.5 107 426.9 107.1C428.8 107.8 430.7 108.5 432.5 109.3C432.9 109.5 433.1 109.9 432.9 110.3C432.8 110.7 432.5 110.9 432.2 110.9ZM362.1 110.6C361.8 110.6 361.5 110.4 361.4 110.1C361.2 109.7 361.4 109.3 361.8 109.1C363.7 108.3 365.6 107.6 367.4 106.9C367.8 106.7 368.2 106.9 368.4 107.3C368.4 107.3 368.4 107.3 368.4 107.4C368.6 107.8 368.3 108.2 368 108.4C366.1 109 364.2 109.7 362.4 110.5C362.4 110.6 362.3 110.6 362.1 110.6ZM421.9 107.2C421.8 107.2 421.8 107.2 421.7 107.2C419.8 106.6 417.9 106.2 415.9 105.7C415.5 105.6 415.2 105.2 415.3 104.8C415.4 104.4 415.8 104.1 416.2 104.2C418.2 104.6 420.1 105.1 422.1 105.7C422.5 105.8 422.7 106.2 422.6 106.6C422.5 107 422.2 107.2 421.9 107.2ZM372.5 107C372.2 107 371.9 106.8 371.8 106.4C371.7 106 371.9 105.6 372.3 105.5C374.2 105 376.2 104.5 378.2 104.1C378.6 104 379 104.2 379.1 104.6C379.2 105 379 105.4 378.6 105.5H378.5C376.6 105.9 374.6 106.4 372.7 106.9L372.5 107ZM411.1 104.7H411C409 104.4 407.1 104.1 405.1 104C404.7 104 404.4 103.7 404.4 103.2C404.4 102.8 404.7 102.5 405.2 102.5H405.3C407.3 102.7 409.3 102.9 411.3 103.3C411.7 103.4 412 103.8 411.9 104.2C411.8 104.5 411.5 104.7 411.1 104.7ZM383.3 104.7C382.9 104.7 382.6 104.4 382.6 104.1C382.5 103.7 382.8 103.3 383.2 103.2C385.2 102.9 387.2 102.6 389.2 102.5C389.6 102.5 390 102.8 390 103.2C390 103.6 389.7 104 389.3 104C387.3 104.2 385.3 104.4 383.4 104.7H383.3ZM400.2 103.7C398.2 103.6 396.2 103.6 394.2 103.7C393.8 103.7 393.5 103.4 393.4 103C393.4 102.6 393.7 102.2 394.1 102.2C396.1 102.1 398.1 102.1 400.1 102.2C400.5 102.2 400.8 102.6 400.8 103C400.9 103.3 400.6 103.6 400.2 103.7Z" fill="#E0E0E0"/>
<path d="M396.4 219.9V218.3H396C395.4 217.2 394.5 216.3 393.4 215.8C388.9 213.5 383.5 213.5 379 215.8C377.9 216.4 377 217.3 376.4 218.3H376V219.9C376 221.4 377 223 379 224.1C383.5 226.4 388.9 226.4 393.4 224.1C395.5 223 396.5 221.5 396.4 219.9Z" fill="#37474F"/>
<path d="M386.2 224.2C391.833 224.2 396.4 221.558 396.4 218.3C396.4 215.041 391.833 212.4 386.2 212.4C380.567 212.4 376 215.041 376 218.3C376 221.558 380.567 224.2 386.2 224.2Z" fill="#455A64"/>
<path d="M383.6 169.3V217.6C383.6 218.1 383.9 218.5 384.4 218.7C385.6 219.3 386.9 219.3 388.1 218.7C388.5 218.5 388.8 218.1 388.9 217.6V169.3H383.6Z" fill="#37474F"/>
<path d="M398 133.1C395.5 131.6 393.1 131.5 391.4 132.5L359 151.2L375.2 183.8L407.7 165V150.7C407.8 144.1 403.4 136.2 398 133.1Z" fill="#455A64"/>
<path d="M375.2 169.5V183.8L355.7 172.5V158.2C355.7 151.6 360.1 148.7 365.4 151.8C368.9 153.8 371.9 157.7 373.6 162.1C374.7 164.5 375.2 167 375.2 169.5Z" fill="#37474F"/>
<path d="M375.2 169.5V183.8L355.7 172.5L373.7 162.1C374.7 164.5 375.2 167 375.2 169.5Z" fill="#263238"/>
<path d="M372 174.4C370.2 169.2 364.4 162.5 359 159.4C353.6 156.3 350.7 158 352.5 163.2L355.7 172.6L375.2 183.9C375.2 183.8 373.8 179.6 372 174.4Z" fill="#455A64"/>
<path d="M385.4 170.1L384.3 169.5C383.8 169.3 383.3 169.3 382.8 169.6C381.6 170.4 380.8 171.7 380.7 173.2C380.6 173.7 380.9 174.2 381.3 174.5L382.3 175.1L382.5 174.8C382.7 174.8 382.9 174.7 383.1 174.6C384.3 173.8 385.1 172.5 385.2 171C385.2 170.8 385.2 170.6 385.1 170.5L385.4 170.1Z" fill="#263238"/>
<path d="M383.9 170.2C382.7 171 381.9 172.3 381.8 173.8C381.8 175.1 382.7 175.7 383.9 175C385.1 174.2 385.9 172.9 386 171.4C386 170.1 385 169.5 383.9 170.2Z" fill="#37474F"/>
<path d="M383.9 173.1C383.6 173.1 383.3 172.8 383.3 172.5V151.9C383.3 151.6 383.6 151.3 383.9 151.3C384.2 151.3 384.5 151.6 384.5 151.9V172.5C384.5 172.9 384.2 173.1 383.9 173.1Z" fill="#263238"/>
<path d="M384.4 152.4V157.8L390.2 151.9L384.4 152.4Z" fill="#37474F"/>
<path d="M81.1002 330.9C80.6002 331.2 71.4002 333.8 68.0002 329.3C64.6002 324.8 70.2002 317.8 67.1002 315.2C64.0002 312.6 55.0002 315.2 52.8002 309.8C50.6002 304.4 57.0002 302 53.4002 296.6C51.1002 293.1 44.8002 291.2 45.1002 288C45.5002 283.3 54.2002 282 61.7002 287.1C69.2002 292.2 72.8002 288 75.1002 287.7C77.4002 287.4 82.7002 288.1 82.5002 296.5C82.3002 304.9 81.1002 330.9 81.1002 330.9Z" fill="#F03780"/>
<path d="M81.7 319C81.5 319 81.2 318.8 81.2 318.6C78.6 302.6 60 289.7 50.4 286.9C50.1 286.8 50 286.6 50.1 286.3C50.2 286 50.5 285.9 50.7 286C60.6 288.9 79.5 302.1 82.2 318.5C82.2 318.7 82 318.9 81.7 319Z" fill="white"/>
<path d="M59.8003 305.6C59.5003 305.6 59.3003 305.4 59.3003 305.1C59.3003 304.9 59.4003 304.8 59.5003 304.7C59.8003 304.5 66.9003 300.3 74.0003 302.3C74.3003 302.4 74.4003 302.7 74.4003 302.9C74.3003 303.2 74.0003 303.3 73.8003 303.3C67.2003 301.5 60.2003 305.5 60.1003 305.6C60.0003 305.6 59.9003 305.6 59.8003 305.6Z" fill="white"/>
<path d="M342.5 246.4C346.4 246.9 353.1 244.7 353.6 238.1C354.1 231.5 356.8 229.8 361.8 228.7C366.8 227.6 368.2 225.9 368.8 222.8C369.4 219.7 365.6 215.9 366.7 211.2C367.8 206.5 371.3 206.5 374.8 201.2C377 197.8 372.5 192.6 364.8 194.8C357.1 197 357.8 201.9 350.2 202.6C342.6 203.3 337.8 207.8 337.7 213.6C337.6 219.4 342.5 246.4 342.5 246.4Z" fill="#F03780"/>
<path opacity="0.2" d="M342.5 246.4C346.4 246.9 353.1 244.7 353.6 238.1C354.1 231.5 356.8 229.8 361.8 228.7C366.8 227.6 368.2 225.9 368.8 222.8C369.4 219.7 365.6 215.9 366.7 211.2C367.8 206.5 371.3 206.5 374.8 201.2C377 197.8 372.5 192.6 364.8 194.8C357.1 197 357.8 201.9 350.2 202.6C342.6 203.3 337.8 207.8 337.7 213.6C337.6 219.4 342.5 246.4 342.5 246.4Z" fill="black"/>
<path d="M341.1 233.8C340.8 233.7 340.6 233.5 340.6 233.2C344.3 215 364.4 198.4 369.2 196.7C369.5 196.6 369.8 196.8 369.9 197C370 197.3 369.8 197.6 369.6 197.7C364.8 199.4 345.2 215.7 341.6 233.5C341.5 233.7 341.3 233.9 341.1 233.8Z" fill="white"/>
<path d="M76.8999 227.4C76.9999 225.6 77.9999 223.9 79.4999 222.9L212.4 146.2C214 145.4 216 145.4 217.6 146.2L220.5 147.9C222 148.9 223 150.6 223.1 152.4V254.3C223 256.1 222 257.8 220.5 258.8L87.5999 335.5C85.9999 336.3 83.9999 336.3 82.3999 335.5L79.4999 333.8C77.9999 332.8 76.9999 331.1 76.8999 329.3V227.4Z" fill="#047B9B"/>
<path opacity="0.3" d="M76.8999 227.4C76.9999 225.6 77.9999 223.9 79.4999 222.9L212.4 146.2C214 145.4 216 145.4 217.6 146.2L220.5 147.9C222 148.9 223 150.6 223.1 152.4V254.3C223 256.1 222 257.8 220.5 258.8L87.5999 335.5C85.9999 336.3 83.9999 336.3 82.3999 335.5L79.4999 333.8C77.9999 332.8 76.9999 331.1 76.8999 329.3V227.4Z" fill="black"/>
<path d="M89.0999 231.4L77.6999 224.8C77.1999 225.6 76.9999 226.5 76.8999 227.4V329.3C76.9999 331.1 77.9999 332.8 79.4999 333.8L82.3999 335.5C83.9999 336.3 85.9999 336.3 87.5999 335.5L89.0999 334.7V231.4Z" fill="#047B9B"/>
<path opacity="0.5" d="M89.0999 231.4L77.6999 224.8C77.1999 225.6 76.9999 226.5 76.8999 227.4V329.3C76.9999 331.1 77.9999 332.8 79.4999 333.8L82.3999 335.5C83.9999 336.3 85.9999 336.3 87.5999 335.5L89.0999 334.7V231.4Z" fill="black"/>
<path d="M223.1 152.4V254.3C223.1 255.2 222.8 256.1 222.3 256.9C221.9 257.6 221.4 258.1 220.8 258.6L220.7 258.7L220.5 258.8L87.5999 335.5C87.0999 335.9 86.3999 335.9 85.7999 335.7C85.1999 335.3 84.8999 334.7 84.9999 334V232.1C84.8999 230.9 85.8999 229.8 87.0999 229.7C87.3999 229.7 87.5999 229.7 87.8999 229.8L143.8 243.1L151.1 244.8C152.9 245.1 154.7 244.5 155.8 243L164.3 231.2L221.4 151.7C222.3 150.4 223.1 150.7 223.1 152.4Z" fill="#047B9B"/>
<path opacity="0.2" d="M223.1 152.4V254.3C223.1 255.2 222.8 256.1 222.3 256.9C221.9 257.6 221.4 258.1 220.8 258.6L220.7 258.7L220.5 258.8L87.5999 335.5C87.0999 335.9 86.3999 335.9 85.7999 335.7C85.1999 335.3 84.8999 334.7 84.9999 334V232.1C84.8999 230.9 85.8999 229.8 87.0999 229.7C87.3999 229.7 87.5999 229.7 87.8999 229.8L143.8 243.1L151.1 244.8C152.9 245.1 154.7 244.5 155.8 243L164.3 231.2L221.4 151.7C222.3 150.4 223.1 150.7 223.1 152.4Z" fill="black"/>
<path d="M220.5 258.7L220.7 258.6L220.8 258.5C221.4 258 221.9 257.5 222.3 256.8C222.8 256 223.1 255.1 223.1 254.2L164.3 231.2L203.7 268.4L220.5 258.7Z" fill="#047B9B"/>
<path opacity="0.6" d="M220.5 258.7L220.7 258.6L220.8 258.5C221.4 258 221.9 257.5 222.3 256.8C222.8 256 223.1 255.1 223.1 254.2L164.3 231.2L203.7 268.4L220.5 258.7Z" fill="black"/>
<path d="M84.9999 334C84.8999 334.7 85.1999 335.3 85.7999 335.7C86.3999 335.9 87.0999 335.9 87.5999 335.5L133.4 309L143.8 243L84.9999 332.3V334Z" fill="#047B9B"/>
<path opacity="0.6" d="M84.9999 334C84.8999 334.7 85.1999 335.3 85.7999 335.7C86.3999 335.9 87.0999 335.9 87.5999 335.5L133.4 309L143.8 243L84.9999 332.3V334Z" fill="black"/>
<path d="M222.3 256.9C221.9 257.6 221.4 258.1 220.8 258.6L220.7 258.7L87.5998 335.5C87.0998 335.9 86.3998 335.9 85.7998 335.7L149.5 234.1C152.1 229.9 157.5 228.3 162 230.3L222.3 256.9Z" fill="#047B9B"/>
<path opacity="0.2" d="M222.3 256.9C221.9 257.6 221.4 258.1 220.8 258.6L220.7 258.7L87.5998 335.5C87.0998 335.9 86.3998 335.9 85.7998 335.7L149.5 234.1C152.1 229.9 157.5 228.3 162 230.3L222.3 256.9Z" fill="black"/>
<path d="M85 229.1L146.1 256.1C150.7 258.1 156 256.5 158.6 252.2L222.8 149.5L85 229.1Z" fill="#047B9B"/>
<path opacity="0.6" d="M85 229.1L146.1 256.1C150.7 258.1 156 256.5 158.6 252.2L222.8 149.5L85 229.1Z" fill="black"/>
<path d="M85 229.1L146.6 252.1C151 253.7 155.9 252.1 158.5 248.2L222.9 149.5L85 229.1Z" fill="#047B9B"/>
<path opacity="0.2" d="M85 229.1L146.6 252.1C151 253.7 155.9 252.1 158.5 248.2L222.9 149.5L85 229.1Z" fill="black"/>
<path d="M99.6001 239.9C99.7001 238.1 100.7 236.4 102.2 235.4L235.1 158.7C236.7 157.9 238.7 157.9 240.3 158.7L243.2 160.4C244.7 161.4 245.7 163.1 245.8 164.9V266.8C245.7 268.6 244.7 270.3 243.2 271.3L110.3 348C108.7 348.8 106.7 348.8 105.1 348L102.2 346.3C100.7 345.3 99.7001 343.6 99.6001 341.8V239.9Z" fill="#455A64"/>
<path d="M99.6001 239.9C99.7001 238.1 100.7 236.4 102.2 235.4L235.1 158.7C236.7 157.9 238.7 157.9 240.3 158.7L243.2 160.4C244.7 161.4 245.7 163.1 245.8 164.9V266.8C245.7 268.6 244.7 270.3 243.2 271.3L110.3 348C108.7 348.8 106.7 348.8 105.1 348L102.2 346.3C100.7 345.3 99.7001 343.6 99.6001 341.8V239.9Z" fill="#455A64"/>
<path d="M111.8 244L100.4 237.4C99.9001 238.2 99.7001 239.1 99.6001 240V341.9C99.7001 343.7 100.7 345.4 102.2 346.4L105.1 348.1C106.7 348.9 108.7 348.9 110.3 348.1L111.8 347.2V244Z" fill="#263238"/>
<path d="M245.8 164.9V266.8C245.8 267.7 245.5 268.6 245 269.4C244.6 270.1 244.1 270.6 243.5 271.1L243.4 271.2L243.2 271.3L110.3 348C109.8 348.4 109.1 348.4 108.5 348.2C107.9 347.8 107.6 347.2 107.7 346.5V244.6C107.6 243.4 108.6 242.3 109.8 242.2C110.1 242.2 110.3 242.2 110.6 242.3L166.5 255.6L173.8 257.3C175.6 257.6 177.4 257 178.5 255.5L187 243.7L244.1 164.2C245 163 245.8 163.2 245.8 164.9Z" fill="#37474F"/>
<path d="M243.2 271.3L243.4 271.2L243.5 271.1C244.1 270.6 244.6 270.1 245 269.4C245.5 268.6 245.8 267.7 245.8 266.8L187 243.8L226.4 281L243.2 271.3Z" fill="#263238"/>
<path d="M107.7 346.5C107.6 347.2 107.9 347.8 108.5 348.2C109.1 348.4 109.8 348.4 110.3 348L156.1 321.6L166.5 255.6L107.7 344.8V346.5Z" fill="#263238"/>
<path d="M245 269.4C244.6 270.1 244.1 270.6 243.5 271.1L243.4 271.2L110.3 348C109.8 348.4 109.1 348.4 108.5 348.2L172.1 246.6C174.7 242.4 180.1 240.7 184.6 242.8L245 269.4Z" fill="#37474F"/>
<path d="M107.7 241.6L168.8 268.6C173.3 270.6 178.7 269 181.3 264.7L245.5 162L107.7 241.6Z" fill="#263238"/>
<path d="M107.7 241.6L169.2 264.6C173.6 266.2 178.5 264.6 181.1 260.7L245.5 162L107.7 241.6Z" fill="#37474F"/>
<path d="M197.1 320.8V218.9C197.2 217 197.8 215.1 198.9 213.5L262.3 125.2C264.7 121.9 268.8 120.4 272.7 121.3L332.3 135.5C334.2 136 336.1 136.7 337.8 137.7L340.7 139.4C342.2 140.4 343.2 142.1 343.3 143.9V245.8C343.2 247.6 342.2 249.3 340.7 250.3L207.8 327C206.2 327.8 204.2 327.8 202.6 327L199.7 325.3C198.1 324.3 197.2 322.6 197.1 320.8Z" fill="#047B9B"/>
<path opacity="0.3" d="M197.1 320.8V218.9C197.2 217 197.8 215.1 198.9 213.5L262.3 125.2C264.7 121.9 268.8 120.4 272.7 121.3L332.3 135.5C334.2 136 336.1 136.7 337.8 137.7L340.7 139.4C342.2 140.4 343.2 142.1 343.3 143.9V245.8C343.2 247.6 342.2 249.3 340.7 250.3L207.8 327C206.2 327.8 204.2 327.8 202.6 327L199.7 325.3C198.1 324.3 197.2 322.6 197.1 320.8Z" fill="white"/>
<path d="M209.2 169.7V299.7C209.2 301.3 210.4 302 211.8 301.2L336.6 229.2C338.1 228.2 339.1 226.5 339.2 224.7V94.7001C339.2 93.0001 338 92.4001 336.6 93.2001L211.8 165.2C210.3 166.2 209.3 167.9 209.2 169.7Z" fill="#FAFAFA"/>
<path d="M210.7 302.1C210.4 302.1 210.1 302 209.8 301.9C209.1 301.4 208.7 300.6 208.8 299.8V169.8C208.9 167.8 210 165.9 211.7 164.9L336.5 92.9001C337.4 92.2001 338.7 92.3 339.4 93.2C339.8 93.7 339.9 94.3001 339.8 94.8001V224.8C339.7 226.8 338.6 228.6 336.9 229.7L212.1 301.7C211.7 301.9 211.2 302 210.7 302.1ZM337.8 93.3001C337.5 93.3001 337.2 93.4 336.9 93.6L212.1 165.6C210.7 166.5 209.9 168 209.7 169.7V299.7C209.5 300.3 209.9 300.9 210.5 301.1C210.9 301.2 211.3 301.1 211.5 300.8L336.3 228.8C337.7 227.9 338.5 226.4 338.7 224.7V94.7C338.8 94.2 338.6 93.8 338.2 93.5C338.1 93.3 338 93.3001 337.8 93.3001Z" fill="#E0E0E0"/>
<path d="M206.6 221.4L197.6 216.2C197.3 217.1 197.1 218 197.1 218.9V320.8C197.2 322.6 198.2 324.3 199.7 325.3L202.6 327C204.2 327.8 206.2 327.8 207.8 327L209 326.3L206.6 221.4Z" fill="#047B9B"/>
<g opacity="0.1">
<path d="M206.6 221.4L197.6 216.2C197.3 217.1 197.1 218 197.1 218.9V320.8C197.2 322.6 198.2 324.3 199.7 325.3L202.6 327C204.2 327.8 206.2 327.8 207.8 327L209 326.3L206.6 221.4Z" fill="black"/>
</g>
<path d="M343.3 143.9V245.8C343.3 246.7 343 247.6 342.5 248.4C342.1 249.1 341.6 249.6 341 250.1L340.9 250.2L340.7 250.3L207.8 327C207.3 327.4 206.6 327.4 206 327.2C205.4 326.8 205.1 326.2 205.2 325.5V223.6C205.1 222.4 206.1 221.3 207.3 221.2C207.6 221.2 207.8 221.2 208.1 221.3L264 234.6L271.3 236.3C273.1 236.6 274.9 236 276 234.5L284.5 222.7L341.6 143.2C342.5 142 343.3 142.2 343.3 143.9Z" fill="#047B9B"/>
<path opacity="0.3" d="M343.3 143.9V245.8C343.3 246.7 343 247.6 342.5 248.4C342.1 249.1 341.6 249.6 341 250.1L340.9 250.2L340.7 250.3L207.8 327C207.3 327.4 206.6 327.4 206 327.2C205.4 326.8 205.1 326.2 205.2 325.5V223.6C205.1 222.4 206.1 221.3 207.3 221.2C207.6 221.2 207.8 221.2 208.1 221.3L264 234.6L271.3 236.3C273.1 236.6 274.9 236 276 234.5L284.5 222.7L341.6 143.2C342.5 142 343.3 142.2 343.3 143.9Z" fill="white"/>
<path d="M340.7 250.3L340.9 250.2L341 250.1C341.6 249.6 342.1 249.1 342.5 248.4C343 247.6 343.3 246.7 343.3 245.8L284.5 222.8L323.9 260L340.7 250.3Z" fill="#047B9B"/>
<path d="M205.2 325.5C205.1 326.2 205.4 326.8 206 327.2C206.6 327.4 207.3 327.4 207.8 327L253.6 300.6L264 234.6L205.2 323.8V325.5Z" fill="#047B9B"/>
<path d="M342.5 248.4C342.1 249.1 341.6 249.6 341 250.1L340.9 250.2L207.8 327C207.3 327.4 206.6 327.4 206 327.2L269.6 225.6C272.2 221.4 277.6 219.8 282.1 221.8L342.5 248.4Z" fill="#047B9B"/>
<path opacity="0.3" d="M342.5 248.4C342.1 249.1 341.6 249.6 341 250.1L340.9 250.2L207.8 327C207.3 327.4 206.6 327.4 206 327.2L269.6 225.6C272.2 221.4 277.6 219.8 282.1 221.8L342.5 248.4Z" fill="white"/>
<path d="M264.2 199.6C261.8 200 259.4 199.1 257.8 197.4C256.3 195.7 255.5 193.1 255.5 189.6C255.5 185.6 256.4 181.7 258 178.1C259.7 174.4 262 171 264.9 168.1C268 164.9 271.5 162.2 275.3 160C279.1 157.8 282.3 156.6 284.9 156.4C287.6 156.2 289.6 156.8 291 158.5C292.4 160.2 293.1 162.6 293.1 165.8C293.2 169.1 292.4 172.3 290.9 175.1C289.6 177.7 287.5 179.9 285 181.4C284.1 182 283.1 182.3 282 182.2C281.2 182 280.6 181.5 280.4 180.7C279.6 182.3 278.5 183.7 277.3 185C276 186.3 274.6 187.4 273 188.3C270.3 189.8 268.1 190.3 266.5 189.8C264.9 189.3 264.1 187.7 264.1 184.9C264.1 181.5 265.2 178.2 267.1 175.4C269.2 172.3 272 169.7 275.3 167.9C276.7 167.1 278.1 166.5 279.7 166.1C280.8 165.8 282.1 165.8 283.2 166.1V176.6C283.2 177.5 283.3 178 283.6 178.2C283.9 178.4 284.4 178.3 285.1 177.9C286.4 177.1 287.3 175.8 287.7 174.4C288.4 172.4 288.7 170.4 288.7 168.3C288.7 165.7 288.1 163.8 287 162.6C285.8 161.4 284 160.8 282.3 161.2C279.9 161.6 277.5 162.4 275.4 163.8C271 166.3 267.2 169.7 264.3 173.8C261.6 177.7 260.2 182.3 260.2 187C260.2 189.9 260.8 192 262 193.3C263.2 194.6 265.1 195.3 266.9 195C269.4 194.6 271.8 193.8 273.9 192.4C275.4 191.6 276.8 190.6 278 189.5C279.2 188.5 280.3 187.4 281.3 186.2C281.4 186.1 281.5 186 281.7 185.9C281.8 185.8 281.9 185.9 282 186L283.1 188C283.1 188.1 283.2 188.2 283.2 188.2C283.2 188.4 283.1 188.6 282.9 188.8C281.7 190.3 280.4 191.6 278.9 192.8C277.4 194.1 275.7 195.2 274 196.2C270.8 198 267.6 199.2 264.2 199.6ZM277.2 180.8C278.2 179.7 278.7 178.3 278.8 176.8V170.7C277.4 170.8 276 171.3 274.8 172.1C272.9 173.2 271.3 174.7 270.1 176.5C269 178.2 268.4 180.1 268.3 182.2C268.3 183.9 268.7 184.9 269.6 185.2C270.5 185.5 271.8 185.2 273.6 184.1C275 183.3 276.2 182.2 277.2 180.8Z" fill="#E0E0E0"/>
<path d="M136.8 209.6L127 204C123.7 202.1 119.1 202.4 114 205.3C103.8 211.2 95.5 225.5 95.5 237.3C95.5 243.2 97.6 247.3 100.9 249.3L110 254.5L111.6 251.8C113.5 251.4 115.2 250.7 116.9 249.7C127.1 243.8 135.4 229.5 135.4 217.7C135.4 216.1 135.2 214.5 134.8 213L136.8 209.6Z" fill="#F28F8F"/>
<path d="M136.8 209.6L127 204C123.7 202.1 119.1 202.4 114 205.3C103.8 211.2 95.5 225.5 95.5 237.3C95.5 243.2 97.6 247.3 100.9 249.3L110 254.5L111.6 251.8C113.5 251.4 115.2 250.7 116.9 249.7C127.1 243.8 135.4 229.5 135.4 217.7C135.4 216.1 135.2 214.5 134.8 213L136.8 209.6Z" fill="#F03780"/>
<path opacity="0.4" d="M136.8 209.6L127 204C123.7 202.1 119.1 202.4 114 205.3C103.8 211.2 95.5 225.5 95.5 237.3C95.5 243.2 97.6 247.3 100.9 249.3L110 254.5L111.6 251.8C113.5 251.4 115.2 250.7 116.9 249.7C127.1 243.8 135.4 229.5 135.4 217.7C135.4 216.1 135.2 214.5 134.8 213L136.8 209.6Z" fill="black"/>
<path d="M123.4 210.7C113.2 216.6 104.9 230.9 104.9 242.7C104.9 254.5 113.2 259.3 123.4 253.4C133.6 247.5 141.9 233.2 141.9 221.4C141.9 209.6 133.6 204.8 123.4 210.7Z" fill="#F03780"/>
<path d="M116.2 245.5C116 245.5 115.9 245.4 115.9 245.2C115.9 245 116 244.8 116.1 244.7L117 242.6C117.1 242.4 117.2 242.2 117.3 242.1C117.4 242 117.6 242 117.7 242C118.5 242 119.4 241.8 120.1 241.5C121.1 241.1 122.2 240.7 123.1 240.1C124.6 239.3 125.9 238.2 126.9 236.9C127.7 235.9 128.1 234.7 128.1 233.4C128.1 231.2 126.8 230.9 124 232.4L121.4 234C121 234.2 120.7 234.3 120.5 234.2C120.3 234.1 120.2 233.9 120.2 233.5V232.7C120.2 232.3 120.3 232 120.5 231.7C120.7 231.4 121.1 231.1 121.4 230.9L124 229.4C125 228.8 125.9 228 126.6 227C127.1 226.2 127.4 225.2 127.5 224.2C127.5 222.1 126 221.9 123 223.6C121.1 224.7 119.5 226 118.1 227.6C118 227.8 117.8 227.9 117.7 228C117.6 228.1 117.4 228 117.4 227.9L116.5 226.9C116.4 226.8 116.3 226.7 116.3 226.5C116.3 226.3 116.4 226.1 116.6 225.9C117.5 224.8 118.5 223.8 119.6 222.9C120.9 221.8 122.3 220.9 123.7 220.1C125 219.3 126.4 218.7 127.9 218.4C128.9 218.2 129.9 218.4 130.7 219C131.4 219.7 131.8 220.7 131.7 221.7C131.7 222.8 131.4 223.9 131 224.9C130.5 226.1 129.8 227.1 129 228.1C129.9 227.8 130.8 228 131.6 228.6C132.2 229.3 132.5 230.3 132.5 231.2C132.4 233.4 131.6 235.6 130.3 237.3C128.6 239.5 126.5 241.4 124 242.8C120.4 244.7 117.8 245.7 116.2 245.5Z" fill="white"/>
<path d="M325.9 354.1L326.1 353.9C326.2 353.8 326.4 353.7 326.5 353.5L327 353.1L327.5 352.7C327.8 352.5 328 352.2 328.3 351.9L331.9 354.6L334.3 356.4C333.4 357.3 332.7 358.4 332.2 359.6C332.2 359.6 331.5 360.7 329.1 360.2C325.9 359.4 325.4 355 325.9 354.1Z" fill="#FFA8A7"/>
<path d="M291 352.9C288.3 349.7 290.7 344.5 293.3 337.7C296.2 330.2 300.7 317.5 300.7 317.5L332.5 310.9C332.5 310.9 366.4 310.3 369.5 316.7C372 321.9 349.7 329.7 346.5 330L326.9 331L324.8 332L311 349.4L291 352.9Z" fill="#047B9B"/>
<path d="M349.6 322C347.1 324.5 344.8 327.2 342.7 330C337 338 327.9 352.5 327.9 352.5C327.9 352.5 329.3 357.1 333.6 356.9C333.6 356.9 363.4 329.1 365.8 326.5C369.5 322.6 372.4 316.2 366.1 315.6C359.8 315 352.1 319.3 349.6 322Z" fill="#047B9B"/>
<path d="M342.6 330.2C342.6 330.2 347.9 322.4 353.4 319.2C353.4 319.2 347.9 320.3 339.6 330.4L342.6 330.2Z" fill="#047B9B"/>
<path opacity="0.1" d="M342.6 330.2C342.6 330.2 347.9 322.4 353.4 319.2C353.4 319.2 347.9 320.3 339.6 330.4L342.6 330.2Z" fill="black"/>
<path d="M346.2 340L344.1 340.4L346 347.6C346 347.6 347.9 347.4 348.5 347.5C349.4 347.3 350.4 346.9 351.2 346.5L350.7 342.1L348.4 339.7L346.2 340Z" fill="#FFA8A7"/>
<path d="M362.7 341.7C364.7 342.5 366.3 344.1 367.1 346.2C367.5 347.3 367.9 348.3 368.2 349.4C368.5 350.6 368.4 352.5 366.9 352.9C366.4 353 365.9 352.9 365.5 352.7C362.5 351.6 359.7 350.2 356.6 349.3C354 348.3 351.3 347.8 348.6 347.5C349.9 345.5 349.8 343 348.4 341.1C347.8 340.6 347.1 340.2 346.3 340.1C347.1 339.8 347.8 339.3 348.5 338.9C349.9 337.9 351.5 337.5 353.2 337.8C354.5 338.1 355.4 339.1 356.5 339.8C358.4 341 360.4 340.9 362.7 341.7Z" fill="#263238"/>
<path d="M295.3 346C297.9 345.2 302.1 344.5 314.6 343.8C327.1 343.1 344.1 340.4 344.1 340.4C347 343.2 346 347.6 346 347.6C346 347.6 323.9 354.6 316.7 355.5C305.2 357 301.3 356.9 296.1 355.8C290.2 354.5 286.6 348.7 295.3 346Z" fill="#047B9B"/>
<path d="M340.8 286.6L350.2 309L343.5 313.1L330.6 291.3L340.8 286.6Z" fill="#F28F8F"/>
<path d="M321.5 265.6C326.6 265.7 332.3 267.5 334.2 271.5L342.2 288C342.2 288 337.7 294.6 330.5 294.1L321.5 265.6Z" fill="#E0E0E0"/>
<path d="M287.4 300.3C287.5 299.4 288.7 295.2 290 290.6L299.7 294L297.1 302.2L289 310C287.2 307.1 286.7 303.6 287.4 300.3Z" fill="#FFA8A7"/>
<path d="M311 265.9C304.9 267.4 296.6 269.3 294.2 275.9C291.8 282.5 288.3 294.2 288.3 294.2C289.6 296.5 297 298.4 299.5 297.1L300.7 293.1V317.4C305.5 322.6 329 321.3 332.5 310.8V277.7C332.5 272.4 329.6 266 321.4 265.6L311 265.9Z" fill="#FAFAFA"/>
<path d="M300.7 293.1L303.8 283.5L300.7 297.4V293.1Z" fill="#E0E0E0"/>
<path d="M308.7 238.8C307.6 238.7 306.5 239 305.7 239.8C304.4 241.1 304.7 243.6 305.7 249.2L309.7 249.6L308.7 238.8Z" fill="#263238"/>
<path d="M331.9 237.1C332.8 237.1 333.6 236.9 334.4 236.6C335.6 235.9 335.9 237.3 335.3 238.5C334.4 240.3 332.7 241.4 330.7 241.6C330.7 241.4 329.6 238.5 329.6 238.5L331.9 237.1Z" fill="#263238"/>
<path d="M310.5 249.6C309.9 250 309.1 248.8 308.3 248C307.4 246.9 305.8 246.8 304.7 247.8C304.4 248.1 304.2 248.4 304 248.7C302.8 251.3 305.5 254.6 307.1 255.8C308 256.6 309.4 256.7 310.4 256.1L310.8 265.9C312.2 269.1 315.2 271.3 318.6 271.9C324.3 272.7 323.1 267.9 321.3 265.6V262C322.7 262.3 324.2 262.4 325.7 262.2C326.4 262 328.2 259.8 329.4 257.4C330.7 254.7 332.8 249.9 330.9 241.8C328.8 233.1 319.5 232.8 313.9 236.3C308.3 239.8 310.5 249.6 310.5 249.6Z" fill="#FFA8A7"/>
<path d="M310.5 250.6C310.2 250.6 309.1 248.7 308.3 248.1C307.3 247.2 308.6 238.8 308.6 238.8C308.6 238.8 307.6 235.6 309.6 233.5C311.6 231.4 315.5 231.7 318.4 231.6C321.9 231.6 325.4 230.9 328.6 229.5C332.7 227.7 333 227.5 333.5 229.3C334 231.1 334.2 235.2 331.8 237.9L330.5 240C330.5 240 329.3 241 325.5 241.5C321.7 242 315.3 239.9 314.5 239.8C313.4 239.7 313.2 240.7 312.6 243.6C312 246.3 311.5 250.6 310.5 250.6Z" fill="#263238"/>
<path d="M308.7 239.4L305.1 237.5C305.6 236.5 306.8 236.1 307.8 236.6C308.8 237.2 309.2 238.4 308.7 239.4Z" fill="#263238"/>
<path d="M321.5 262C321.5 262 316.2 260.9 314.4 260C313.3 259.4 312.4 258.5 311.8 257.5C312.1 258.6 312.6 259.6 313.3 260.5C314.7 262.2 321.5 263.5 321.5 263.5V262Z" fill="#F28F8F"/>
<path d="M321.6 249.4C321.6 250 321.1 250.4 320.5 250.4C319.9 250.4 319.5 249.9 319.5 249.3C319.5 248.7 320 248.3 320.6 248.3C321.2 248.4 321.6 248.8 321.6 249.4Z" fill="#263238"/>
<path d="M320.5 245.4L318.2 246.6C317.9 246 318.1 245.2 318.7 244.8C319.4 244.5 320.1 244.8 320.5 245.4Z" fill="#263238"/>
<path d="M321 256.5L323.4 257.4C323.2 258.1 322.5 258.4 321.8 258.2C321.1 258 320.8 257.2 321 256.5Z" fill="#F28F8F"/>
<path d="M331.1 246.3L329 244.7C329.4 244.1 330.2 244 330.8 244.4C331.4 244.9 331.5 245.7 331.1 246.3Z" fill="#263238"/>
<path d="M330.5 249.1C330.5 249.7 330 250.1 329.4 250.1C328.8 250.1 328.4 249.6 328.4 249C328.4 248.4 328.9 248 329.5 248C330 248.1 330.5 248.5 330.5 249.1Z" fill="#263238"/>
<path d="M325.5 249L324.5 255.3L328 254.9L325.5 249Z" fill="#F28F8F"/>
<path d="M361.9 320.8L340.4 308.4C340 308.2 339.5 308.2 339.2 308.4L301.4 330.2L323.6 343L361.9 320.8Z" fill="#37474F"/>
<path d="M323.3 341.1L311.7 334.4L345.7 314.8L357.4 321.5L323.3 341.1Z" fill="#263238"/>
<path d="M317.6 322.5L317.8 322.6L323.5 325.9L333.6 320L333.9 319.9L328 316.5L317.6 322.5Z" fill="#263238"/>
<path d="M317.8 322.6L323.5 325.9L333.6 320L328 316.8L317.8 322.6Z" fill="#263238"/>
<path d="M301.4 330.2V330.7C301.4 331.4 301.8 332.1 302.4 332.5L322.5 344.1C323.1 344.5 323.9 344.5 324.6 344.1L360.9 323.1C361.5 322.7 361.9 322 361.9 321.3V320.8L323.5 343L301.4 330.2Z" fill="#263238"/>
<path d="M323.5 343V344.4C323.9 344.4 324.2 344.3 324.5 344.1L360.8 323.1C361.4 322.7 361.8 322 361.8 321.3V320.8L323.5 343Z" fill="#263238"/>
<path d="M324.1 343.3C324.8 343.6 325.6 343.5 326.2 343.1L362.4 322.2C363 321.8 363.5 321.2 363.6 320.5L367.6 296.9C367.6 296.8 367.6 296.6 367.6 296.5C367.6 295.8 367.3 295.2 366.9 294.7L329.3 316.4C328.8 316.7 328.5 317.1 328.4 317.7L324.1 343.3Z" fill="#263238"/>
<path d="M323.5 343L323.7 343.1C323.8 343.2 323.9 343.2 324 343.3L328.3 317.7C328.4 317.2 328.7 316.7 329.2 316.4L366.8 294.7C366.6 294.6 366.5 294.4 366.3 294.3L328.6 316C328.1 316.3 327.8 316.7 327.7 317.3L323.5 343Z" fill="#455A64"/>
<path d="M344.5 321.5C345.1 319.5 346.4 317.8 348.1 316.8C349.9 315.8 351.1 316.3 350.8 317.8C350.2 319.8 348.9 321.5 347.2 322.5C345.4 323.5 344.2 323 344.5 321.5Z" fill="#37474F"/>
<path d="M297.2 302.2C297.2 302.2 303.7 327.2 306.4 329C309.1 330.8 314.2 332.1 316.7 333C319.2 333.9 320.2 335.1 319.8 335.5C319.4 335.9 315.9 336.2 314.6 336.6C313.3 337 315 339 317.7 341.1C320.4 343.2 322.7 343 322.4 344.4C322.1 345.8 316.1 347.2 311 344.2C305.9 341.2 304.4 337.2 301.4 333.8C298.4 330.4 291.4 316.2 289 310C289 310 289.2 298.5 293 299.2C296.8 299.9 297.2 302.2 297.2 302.2Z" fill="#FFA8A7"/>
<path d="M328.1 352.9C328.6 354 330.1 357.1 333.7 356.9L342.4 348.8L328.1 352.9Z" fill="#047B9B"/>
<path opacity="0.1" d="M328.1 352.9C328.6 354 330.1 357.1 333.7 356.9L342.4 348.8L328.1 352.9Z" fill="black"/>
<path d="M330.7 367.2C330.6 364.6 331 362 332 359.5C331.1 360.1 330.1 360.2 329.1 359.9C326.2 359 325.5 355 325.9 354.1C325.5 354.5 325 354.8 324.6 355.2C323.2 356.1 322.2 357.5 321.8 359.2C321.6 360.5 322.2 361.7 322.5 363C323.1 365.4 322.5 367.9 322.4 370.4C322.4 372.6 323.4 374.6 325 376.1C325.8 376.9 326.7 377.6 327.6 378.3C328.5 379.3 330.1 379.4 331.1 378.5C331.7 378 332 377.3 331.9 376.5C331.6 373.2 330.9 370.4 330.7 367.2Z" fill="#263238"/>
<path d="M334 356.4C333.7 356.9 333.5 357.4 333.3 357.9C333.5 357.4 333.8 356.9 334 356.4Z" fill="#37474F"/>
</svg>
