<svg width="134" height="78" viewBox="0 0 134 78" fill="none" xmlns="http://www.w3.org/2000/svg">
<path d="M20.0227 10.3566C20.0227 15.9192 15.5337 20.4096 10.0002 20.4096C4.46676 20.4096 0 15.8746 0 10.3119C0 4.74929 4.48899 0.258972 10.0224 0.258972C15.5337 0.258972 20.0004 4.74929 20.0227 10.2896C20.0227 10.3119 20.0227 10.3343 20.0227 10.3566Z" fill="#F2F2F2"/>
<path d="M5.37789 7.07265C5.80012 5.75459 6.73347 4.5259 8.04461 4.0791C9.35575 3.6323 11.2447 4.32484 12.2225 5.28546C14.0225 7.07265 14.4447 13.2385 13.2225 15.182C12.9781 15.1597 12.1336 15.1597 11.8891 15.1597L11.5336 13.9757V15.1373C11.1336 15.115 10.7336 15.115 10.3335 15.115C7.53349 15.0703 5.289 12.8363 5.2001 10.0215C5.17788 8.74814 5.2001 7.58647 5.37789 7.07265Z" fill="#2F2E41"/>
<path d="M9.86685 11.4513C11.4378 11.4513 12.7114 10.171 12.7114 8.59175C12.7114 7.01248 11.4378 5.73224 9.86685 5.73224C8.29587 5.73224 7.02234 7.01248 7.02234 8.59175C7.02234 10.171 8.29587 11.4513 9.86685 11.4513Z" fill="#FFB6B6"/>
<path d="M7.40015 6.06734L10.6891 4.41418C12.0669 5.0397 12.978 6.35776 13.1114 7.85453L13.2003 8.83749L11.8225 8.48005L11.6669 7.22901L11.4225 8.39069L10.778 8.23431V6.2684L10.1335 8.23431L7.86682 7.72049L7.40015 6.06734Z" fill="#2F2E41"/>
<path d="M17.4449 16.9915C13.8448 21.1244 7.60023 21.5712 3.44458 18.0192L4.31127 15.6065C4.71127 14.7352 5.55574 14.1544 6.48909 14.0873L7.04466 14.0427L8.3558 12.9033C8.3558 12.9033 11.867 12.7693 11.8225 12.7246L13.9559 14.0203L14.8004 14.065C15.756 14.132 16.6004 14.7129 16.9782 15.5841L17.4449 16.9915Z" fill="#02789C"/>
<path d="M10.0002 60.398C15.5232 60.398 20.0004 55.8971 20.0004 50.345C20.0004 44.7929 15.5232 40.2921 10.0002 40.2921C4.47725 40.2921 0 44.7929 0 50.345C0 55.8971 4.47725 60.398 10.0002 60.398Z" fill="#F2F2F2"/>
<path d="M9.73352 51.5961C11.5009 51.5961 12.9336 50.1558 12.9336 48.3791C12.9336 46.6025 11.5009 45.1622 9.73352 45.1622C7.96617 45.1622 6.53345 46.6025 6.53345 48.3791C6.53345 50.1558 7.96617 51.5961 9.73352 51.5961Z" fill="#FFB6B6"/>
<path d="M17.5115 57.0693C13.9115 61.2022 7.66688 61.649 3.51123 58.097L4.37791 55.6842C4.77792 54.813 5.62239 54.2322 6.55574 54.1651L7.11131 54.1205L8.42245 52.9811C8.42245 52.9811 11.9336 52.8471 11.8892 52.8024L14.0226 54.0981L14.867 54.1428C15.8226 54.2098 16.6671 54.7906 17.0449 55.6619L17.5115 57.0693Z" fill="#02789C"/>
<path d="M13.1114 46.3908C12.8448 45.4302 12.2225 44.5813 11.3781 44.0228C10.7114 43.5984 9.86693 43.375 9.11135 43.5984C8.35578 43.8218 7.71132 44.5813 7.77799 45.3856C7.4891 45.3185 7.17798 45.4079 7.0002 45.6313C6.80019 45.8547 6.66686 46.1228 6.62241 46.4132C6.37796 47.3291 6.40018 48.2897 6.66686 49.1833L6.64463 49.3174C7.02242 49.228 7.31131 48.9599 7.46687 48.6025C7.64465 48.2674 7.73355 47.8876 7.93355 47.5525C8.08911 47.1951 8.42245 46.9717 8.82246 46.9047L8.80024 47.4855C9.13358 47.3291 9.44469 47.1504 9.77804 46.994L9.55581 47.5525L10.4003 47.1951C10.378 47.3738 10.3336 47.5525 10.3114 47.7312C10.6225 47.1057 11.3558 46.8376 12.0003 47.1504C12.0225 47.1504 12.0448 47.1727 12.0448 47.1727C12.3781 47.3961 12.6225 47.7536 12.7337 48.1334C12.8448 48.5355 12.8892 48.9376 12.8892 49.3397C13.267 48.4014 13.3781 47.3515 13.1114 46.3908Z" fill="#2F2E41"/>
<path d="M22.8672 27.4913H0.866686C0.400009 27.4913 0 27.1115 0 26.62C0 26.1286 0.377786 25.7488 0.866686 25.7488H22.8672C23.9783 25.7488 23.9783 27.5136 22.8672 27.4913Z" fill="#E4E4E4"/>
<path d="M52.5123 32.004H0.866686C0.400009 32.004 0 31.6242 0 31.1327C0 30.6412 0.377786 30.2614 0.866686 30.2614H52.5345C53.6234 30.2614 53.6456 32.0263 52.5123 32.004Z" fill="#E4E4E4"/>
<path d="M70.5127 34.439C73.5565 34.439 76.0239 31.9585 76.0239 28.8987C76.0239 25.8389 73.5565 23.3584 70.5127 23.3584C67.4689 23.3584 65.0015 25.8389 65.0015 28.8987C65.0015 31.9585 67.4689 34.439 70.5127 34.439Z" fill="#02789C"/>
<path d="M22.8672 67.5244H0.866686C0.400009 67.5244 0 67.1446 0 66.6531C0 66.1616 0.377786 65.7819 0.866686 65.7819H22.8672C23.9783 65.8042 23.9783 67.5467 22.8672 67.5244Z" fill="#E4E4E4"/>
<path d="M52.5123 72.0371H0.866686C0.400009 72.0371 0 71.6573 0 71.1658C0 70.6743 0.377786 70.2946 0.866686 70.2946H52.5345C53.6234 70.2946 53.6456 72.0594 52.5123 72.0371Z" fill="#E4E4E4"/>
<path d="M70.5127 74.4721C73.5565 74.4721 76.0239 71.9916 76.0239 68.9318C76.0239 65.872 73.5565 63.3915 70.5127 63.3915C67.4689 63.3915 65.0015 65.872 65.0015 68.9318C65.0015 71.9916 67.4689 74.4721 70.5127 74.4721Z" fill="#02789C"/>
<path d="M69.7571 71.8137C69.557 71.8137 69.3793 71.7243 69.2682 71.5679L67.757 69.5573C67.557 69.2892 67.6014 68.9095 67.8903 68.6861C68.1792 68.4627 68.5348 68.5297 68.757 68.8201L69.7348 70.1382L72.2682 66.318C72.446 66.0276 72.846 65.9606 73.1127 66.1393C73.3794 66.318 73.4682 66.7202 73.2905 66.9882L70.2904 71.5232C70.1571 71.702 69.9793 71.8137 69.7571 71.8137C69.7793 71.8137 69.7793 71.8137 69.7571 71.8137Z" fill="white"/>
<path d="M92.9224 32.2589H102.917L100.457 24.9941L93.6912 25.1487L92.9224 32.2589Z" fill="#9E616A"/>
<path d="M100.979 74.1167H99.0113L98.0734 66.4655H100.979V74.1167Z" fill="#9E616A"/>
<path d="M102.04 77.8883H100.641L100.395 76.559L99.7494 77.8883H96.0438C95.5825 77.8883 95.2135 77.5173 95.2135 77.0536C95.2135 76.7754 95.3519 76.5126 95.5672 76.358L98.5347 74.3022V72.9575L101.656 73.1429L102.04 77.8883Z" fill="#2F2E41"/>
<path d="M97.5969 74.1167H95.6287L94.6908 66.4655H97.5969V74.1167Z" fill="#9E616A"/>
<path d="M98.6576 77.8883H97.2584L97.0124 76.559L96.3666 77.8883H92.661C92.1997 77.8883 91.8307 77.5173 91.8307 77.0536C91.8307 76.7754 91.9691 76.5126 92.1843 76.358L95.1519 74.3022V72.9575L98.2732 73.1429L98.6576 77.8883Z" fill="#2F2E41"/>
<path d="M92.9532 30.8678L102.917 30.7132C102.917 30.7132 106.269 37.808 104.916 42.1978L100.995 55.0581L97.7813 71.5818L94.8291 70.6853L93.9988 69.4332L94.6138 67.192L94.3678 65.9399L93.3838 54.5171V54.3626L92.9225 49.5709C90.8467 42.4297 91.4003 38.1326 92.9532 30.8678Z" fill="#2F2E41"/>
<path d="M99.9493 54.2853L101.779 67.6248L101.379 68.274L101.779 69.3251L101.287 71.8137L98.3656 72.3856L95.5979 60.4682L99.9493 54.2853Z" fill="#2F2E41"/>
<path d="M93.2146 28.7966C93.0454 28.7966 92.8917 28.6884 92.8455 28.5183C92.3689 26.9881 91.8461 25.1023 92.1075 24.8396C92.2151 24.7468 92.3535 24.6695 92.4919 24.6232C92.7994 24.4995 93.0454 24.4068 92.8609 23.8348C92.7225 23.4175 93.1531 22.9692 92.9378 22.6756C92.661 22.3201 92.7225 21.98 92.9378 21.7481C93.1377 21.5317 92.5688 20.5425 92.8763 19.5378C92.8917 19.4759 92.8917 19.3987 92.8455 19.3368C92.4458 18.6876 91.2772 17.2501 92.7072 15.8281C94.0141 14.5297 94.5677 11.9793 94.9367 11.7938C94.9828 11.7629 95.0289 11.7165 95.0443 11.6701L95.5363 10.3099C95.5978 10.1553 95.7362 10.0471 95.9054 10.0471H99.7186C99.8416 10.0471 99.9493 10.0935 100.026 10.1862L101.825 12.443C101.841 12.4739 101.871 12.5048 101.887 12.5357C102.117 13.1076 104.178 18.1776 103.147 20.1097L102.963 20.4652C102.056 22.1655 101.671 22.8765 102.056 23.2629C102.425 23.6339 102.256 23.8967 102.179 24.0512C102.148 24.0976 102.117 24.1594 102.117 24.1904C102.225 24.6695 101.948 24.7468 101.825 24.7777C101.81 24.7777 101.81 24.7777 101.794 24.7777C101.825 24.8241 101.856 24.855 101.902 24.9014C101.994 24.9787 102.056 25.0869 102.056 25.2105C102.025 25.3496 101.948 25.4578 101.841 25.5351C101.779 25.5815 101.718 25.6433 101.718 25.6742C101.718 25.6897 101.748 25.7206 101.764 25.7361C101.825 25.7979 101.917 25.8752 102.025 25.9525C102.302 26.1843 102.625 26.4316 102.64 26.679C102.64 26.7717 102.609 26.849 102.548 26.9108L101.825 27.6373C101.779 27.73 102.01 28.3019 102.117 28.4256L102.163 28.4874L102.133 28.5183C102.194 28.6265 102.21 28.7502 102.163 28.8584C102.102 28.9821 101.979 29.0748 101.825 29.0593L93.2146 28.7966Z" fill="#3F3D56"/>
<path d="M80.6986 18.2703C81.3136 18.904 82.313 18.9195 82.9588 18.3167C83.0203 18.2548 83.0818 18.1775 83.1433 18.1003L88.5557 19.7542L87.7254 16.9564L82.7128 15.8126C81.9594 15.3489 80.9753 15.5653 80.4987 16.3072C80.0989 16.941 80.1911 17.7447 80.6986 18.2703Z" fill="#9E616A"/>
<path d="M84.0966 18.8577L84.8961 16.1527L87.6484 16.1372L88.2173 16.8946L89.1399 16.57L92.0459 17.312L95.1211 12.3193C95.7054 11.3765 96.9355 11.0828 97.8735 11.6701C97.9811 11.732 98.0733 11.8093 98.1656 11.902C98.8575 12.5357 99.0113 13.5559 98.55 14.3751L94.2447 21.9491L84.0966 18.8577Z" fill="#3F3D56"/>
<path d="M88.0176 31.177C88.894 31.2079 89.632 30.5278 89.6782 29.6467C89.6782 29.554 89.6782 29.4613 89.6628 29.3685L94.7061 26.7872L92.1691 25.3497L87.7715 28.0238C86.9105 28.2092 86.357 29.0439 86.5107 29.925C86.6645 30.636 87.2795 31.1615 88.0176 31.177Z" fill="#9E616A"/>
<path d="M90.8775 29.2294L89.5859 26.7253L91.5541 24.7932L92.492 24.9478L92.9225 24.0667L95.5365 22.5828L94.3064 16.8483C94.0757 15.7663 94.7677 14.6997 95.844 14.4679C95.967 14.4369 96.09 14.4215 96.213 14.4215C97.1509 14.3906 97.9659 15.0243 98.1965 15.9363L100.318 24.4068L90.8775 29.2294Z" fill="#3F3D56"/>
<path d="M97.9965 9.35153C100.018 9.35153 101.656 7.70448 101.656 5.67275C101.656 3.64101 100.018 1.99396 97.9965 1.99396C95.9754 1.99396 94.337 3.64101 94.337 5.67275C94.337 7.70448 95.9754 9.35153 97.9965 9.35153Z" fill="#9E616A"/>
<path d="M98.5502 1.19023L98.9961 1.31388L99.1498 1.36025L100.841 1.80851C102.348 2.21039 103.194 3.91067 102.748 5.61095C103.578 7.06392 102.855 8.39323 101.548 9.69163C99.8725 9.45977 98.1811 9.45977 96.5052 9.69163L96.5359 8.71783L95.7979 9.81528C95.3673 9.89257 94.9522 10.0008 94.5217 10.109C95.4903 8.19229 96.1976 6.21378 96.3206 4.55987L95.5518 4.35893L95.7825 3.50879L95.2905 4.2971L93.8912 3.92613C94.4294 1.85488 96.5205 0.633771 98.5502 1.19023Z" fill="#2F2E41"/>
<path d="M101.687 3.46239C102.638 3.46239 103.409 2.68731 103.409 1.73119C103.409 0.775082 102.638 0 101.687 0C100.736 0 99.9647 0.775082 99.9647 1.73119C99.9647 2.68731 100.736 3.46239 101.687 3.46239Z" fill="#2F2E41"/>
<path d="M131.425 77.3968C133.203 73.2193 134.447 68.6843 133.847 64.1939C133.647 62.6748 133.203 61.178 132.536 59.793C132.003 58.6536 131.314 57.626 130.492 56.6877C129.914 56.0175 128.914 55.8388 128.136 56.3079C128.07 56.3526 128.025 56.375 127.958 56.4196C127.67 56.6207 127.447 56.9111 127.292 57.2239C127.27 57.2909 127.247 57.3579 127.225 57.4249C127.136 57.693 127.114 57.9834 127.158 58.2739C127.47 60.5749 127.403 62.9429 126.958 65.2216C126.847 65.8024 126.714 66.3832 126.536 66.9641C126.158 66.4949 125.781 66.0705 125.358 65.646C124.292 64.5514 123.047 63.6354 121.714 62.9429C121.714 62.9429 121.714 62.9429 121.692 62.9429C120.047 62.094 117.869 62.4514 116.58 63.0323C116.491 63.0769 116.425 63.0993 116.336 63.144C115.669 63.4791 115.336 63.8812 115.625 64.1493C115.691 64.1939 115.758 64.261 115.803 64.328C117.736 66.1375 119.336 68.2821 120.492 70.6502C120.958 71.5884 121.336 72.5714 121.647 73.599C122.069 74.9841 122.425 76.5256 123.269 77.6649C123.358 77.7766 123.447 77.8883 123.536 78L131.025 77.933C131.047 77.933 131.07 77.9106 131.07 77.9106H131.358C131.358 77.8659 131.336 77.7989 131.314 77.7542C131.314 77.7319 131.292 77.6872 131.292 77.6649C131.292 77.6426 131.292 77.6202 131.27 77.5979C131.292 77.5532 131.292 77.5309 131.314 77.5085C131.403 77.4415 131.403 77.4192 131.425 77.3968Z" fill="#F0F0F0"/>
<path d="M72.8016 30.5295L71.2682 28.854L72.646 27.0445C72.846 26.7988 72.7794 26.4413 72.5349 26.2403C72.2905 26.0392 71.9349 26.1062 71.7349 26.352L70.4682 28.0051L69.0682 26.4637C68.8459 26.2403 68.4904 26.2179 68.2682 26.4413C68.0459 26.6647 68.0237 27.0222 68.2459 27.2456L69.7793 28.9211L68.4015 30.7306C68.2015 30.9763 68.2682 31.3338 68.5126 31.5348C68.6237 31.6242 68.7348 31.6465 68.8459 31.6465C69.0237 31.6465 69.1793 31.5795 69.2904 31.4231L70.5571 29.77L71.9571 31.3114C72.0682 31.4231 72.2238 31.4901 72.3794 31.4901C72.5127 31.4901 72.646 31.4455 72.7571 31.3338C73.0016 31.1104 73.0016 30.7529 72.8016 30.5295Z" fill="white"/>
</svg>
