<svg width="30" height="30" viewBox="0 0 30 30" fill="none" xmlns="http://www.w3.org/2000/svg">
    <g clip-path="url(#clip0_632_145)">
        <path d="M25.3346 10.8382C26.2986 10.8738 26.8435 11.4047 26.7669 12.4296C26.764 12.4411 26.7639 12.4533 26.7668 12.4649C26.7697 12.4765 26.7755 12.4872 26.7835 12.496C26.7916 12.5048 26.8017 12.5115 26.813 12.5154C26.8243 12.5193 26.8364 12.5204 26.8482 12.5184C27.3826 12.526 27.6082 12.5342 27.6082 13.144C27.6125 13.6071 27.6125 14.0701 27.6082 14.5331C27.6036 15.0897 27.2159 15.0324 26.8038 15.0482C26.7982 15.0475 26.7925 15.0481 26.7872 15.05C26.7819 15.0519 26.7771 15.0549 26.7731 15.0589C26.7692 15.0629 26.7662 15.0678 26.7644 15.0731C26.7626 15.0785 26.7621 15.0841 26.7628 15.0897V26.2997C26.7628 26.557 26.6623 26.8224 26.3828 26.8259C25.5425 26.8329 24.9785 26.8329 24.6909 26.8259C24.3529 26.8183 24.25 26.602 24.2547 26.284C24.2652 25.6397 24.2613 24.995 24.243 24.3499C24.2435 24.3441 24.2427 24.3382 24.2406 24.3326C24.2385 24.3271 24.2352 24.3221 24.2309 24.3181C24.2267 24.314 24.2216 24.3109 24.216 24.309C24.2104 24.3071 24.2044 24.3065 24.1986 24.3073L15.5797 24.3172C15.5747 24.317 15.5698 24.3179 15.5651 24.3197C15.5605 24.3215 15.5563 24.3243 15.5527 24.3278C15.5491 24.3313 15.5463 24.3355 15.5445 24.3401C15.5426 24.3447 15.5416 24.3496 15.5417 24.3546C15.5417 24.3598 15.5427 24.365 15.5447 24.3698C15.5467 24.3746 15.5497 24.379 15.5534 24.3827C16.6362 25.4158 18.5281 25.0346 19.878 25.2567C20.5071 25.3585 21.3701 25.7163 21.2812 26.4944C21.2309 26.9475 20.5299 26.9405 20.4533 26.3962C20.4517 26.3834 20.4472 26.3711 20.4402 26.3601C20.4332 26.3492 20.4239 26.34 20.413 26.3331C20.1318 26.153 19.7161 26.0472 19.3828 26.0296C17.9411 25.9577 16.1281 26.1156 15.0167 25.0217C15.0132 25.0173 15.0087 25.0138 15.0037 25.0113C14.9986 25.0089 14.9931 25.0076 14.9875 25.0076C14.9819 25.0076 14.9763 25.0089 14.9712 25.0113C14.9662 25.0138 14.9617 25.0173 14.9582 25.0217C13.7825 26.1477 11.9765 25.9402 10.5588 26.0308C10.2057 26.0548 9.86193 26.1545 9.55084 26.3231C9.5401 26.3288 9.53102 26.3372 9.52446 26.3475C9.51791 26.3577 9.5141 26.3694 9.51342 26.3816C9.48769 26.7762 9.01881 26.9844 8.78904 26.7037C8.5049 26.3529 8.82061 25.8028 9.13983 25.6023C10.6921 24.6241 12.9476 25.7396 14.4017 24.3955C14.4092 24.3877 14.4135 24.3772 14.4135 24.3663C14.4135 24.3554 14.4092 24.3449 14.4017 24.3371C14.3935 24.3287 14.3824 24.3239 14.3707 24.3236L5.76232 24.3096C5.75043 24.3096 5.739 24.3142 5.73048 24.3225C5.72196 24.3308 5.71702 24.3421 5.71672 24.354C5.69723 24.9862 5.69372 25.6177 5.7062 26.2483C5.71263 26.5441 5.63838 26.8248 5.30454 26.8277C4.75381 26.8324 4.20287 26.8324 3.65175 26.8277C3.28459 26.8242 3.19747 26.5991 3.19747 26.2617V15.095C3.19824 15.0896 3.19776 15.0842 3.19607 15.079C3.19438 15.0739 3.19153 15.0692 3.18774 15.0654C3.18394 15.0615 3.17932 15.0586 3.17421 15.0569C3.16911 15.0551 3.16366 15.0545 3.1583 15.0552C2.7929 15.0453 2.3702 15.0967 2.36085 14.5764C2.35383 14.1841 2.24392 12.9797 2.44328 12.6868C2.45015 12.6769 2.45462 12.6655 2.45634 12.6535C2.45807 12.6415 2.457 12.6293 2.45322 12.6178C2.21079 11.7993 2.47349 11.224 3.24132 10.8919C3.24726 10.8904 3.25277 10.8875 3.25742 10.8835C3.26207 10.8795 3.26575 10.8745 3.26817 10.8689C3.2706 10.8632 3.2717 10.8571 3.27141 10.851C3.27111 10.8448 3.26942 10.8389 3.26646 10.8335C3.06827 10.2167 3.34188 9.5303 3.93121 9.27423C4.09491 9.2029 4.33422 9.16743 4.64915 9.16782H9.41286C9.57851 9.16782 9.7005 9.20017 9.77885 9.26487C10.3682 9.7513 9.03927 10.0881 9.73091 10.8855C9.82036 10.9872 9.9063 11.0527 9.91624 11.1971C9.96477 11.7759 9.2626 11.7233 8.90422 11.6841C8.8924 11.6828 8.88043 11.6843 8.86933 11.6886C8.85824 11.6929 8.84834 11.6998 8.84049 11.7087C8.67153 11.894 8.58324 12.5319 8.9621 12.5307C9.56428 12.5284 10.1672 12.5247 10.771 12.5196C10.7765 12.5202 10.7821 12.5196 10.7873 12.5178C10.7926 12.5161 10.7974 12.5132 10.8014 12.5095C10.8055 12.5057 10.8087 12.5011 10.8108 12.496C10.8129 12.4909 10.8139 12.4854 10.8137 12.4799C11.0316 10.0844 11.2568 7.69023 11.4895 5.29746C11.5731 4.4392 12.415 3.69962 13.1634 3.43828C13.4518 3.33772 13.8961 3.27926 14.4964 3.26289C15.3733 3.24067 16.3193 3.18162 16.9776 3.4301C17.9563 3.79842 18.5491 4.59121 18.6094 5.64766C18.6222 5.88659 18.629 6.00761 18.6298 6.01073C18.8111 8.1634 18.9865 10.317 19.156 12.4717C19.1557 12.4783 19.1568 12.485 19.1594 12.4911C19.1619 12.4973 19.1658 12.5028 19.1707 12.5074C19.1756 12.5119 19.1814 12.5153 19.1878 12.5173C19.1941 12.5193 19.2008 12.5199 19.2075 12.519H22.4815C22.4929 12.521 22.5046 12.5201 22.5156 12.5164C22.5266 12.5127 22.5365 12.5063 22.5445 12.4979C22.5524 12.4894 22.5581 12.4791 22.5611 12.4679C22.5641 12.4567 22.5643 12.4449 22.5616 12.4337C22.4815 11.2404 23.2339 10.7586 24.329 10.8469C24.3437 10.8481 24.3583 10.8445 24.3709 10.8367C24.3834 10.829 24.3931 10.8174 24.3985 10.8037L25.8502 7.16892C25.8544 7.15774 25.8555 7.14563 25.8534 7.13388C25.8512 7.12213 25.8459 7.1112 25.8379 7.10227L24.2968 5.3986C24.2611 5.35826 24.2354 5.36411 24.2202 5.41556C24.029 6.05224 23.4678 6.49482 23.0012 6.95727C22.7533 7.20282 22.5066 7.04614 22.2932 6.83274C21.6408 6.18145 20.9887 5.52898 20.337 4.87534C20.1604 4.69761 20.1632 4.50604 20.3452 4.30064C20.8661 3.71014 21.3215 3.16525 22.0664 3.04072C22.7574 2.92379 23.3355 3.11731 23.8004 3.62128C24.7437 4.64051 25.6791 5.66676 26.6067 6.70003C26.8646 6.98826 26.7599 7.14787 26.6184 7.5045C26.1854 8.6013 25.7479 9.69576 25.3059 10.7879C25.2913 10.8206 25.3018 10.8364 25.3346 10.8382ZM7.84834 12.5015V11.7069C7.84819 11.7018 7.84603 11.6969 7.84232 11.6933C7.83861 11.6897 7.83364 11.6877 7.82846 11.6877H3.64941C3.4021 11.6877 3.20157 11.8724 3.20157 12.1004V12.108C3.20157 12.336 3.4021 12.5214 3.64941 12.5214H7.82846C7.83374 12.5214 7.83879 12.5193 7.84252 12.5155C7.84625 12.5118 7.84834 12.5068 7.84834 12.5015ZM26.7652 13.3884C26.7652 13.3856 26.7646 13.3828 26.7635 13.3802C26.7624 13.3776 26.7608 13.3753 26.7588 13.3733C26.7568 13.3713 26.7544 13.3698 26.7518 13.3688C26.7492 13.3678 26.7464 13.3673 26.7436 13.3673H3.2232C3.21756 13.3673 3.21215 13.3695 3.20811 13.3735C3.20407 13.3774 3.20172 13.3828 3.20157 13.3884V14.1747C3.20172 14.1804 3.20407 14.1857 3.20811 14.1897C3.21215 14.1936 3.21756 14.1958 3.2232 14.1958H26.7436C26.7464 14.1959 26.7492 14.1954 26.7518 14.1944C26.7544 14.1933 26.7568 14.1918 26.7588 14.1898C26.7608 14.1879 26.7624 14.1855 26.7635 14.1829C26.7646 14.1803 26.7652 14.1776 26.7652 14.1747V13.3884ZM24.2407 18.2059C24.2393 17.703 24.0385 17.2212 23.6825 16.8661C23.3264 16.511 22.844 16.3116 22.3412 16.3116H7.62559C7.12191 16.3116 6.63885 16.5117 6.28264 16.8678C5.92642 17.2239 5.72623 17.7069 5.72607 18.2106V20.3124C5.72623 20.816 5.92642 21.299 6.28264 21.6552C6.63885 22.0113 7.12191 22.2113 7.62559 22.2113H22.3412C22.8448 22.2113 23.3279 22.0113 23.6841 21.6552C24.0403 21.299 24.2405 20.816 24.2407 20.3124V18.2059Z" fill="#03789D"/>
    </g>
    <defs>
        <clipPath id="clip0_632_145">
            <rect width="30" height="30" fill="white"/>
        </clipPath>
    </defs>
</svg>
