<svg width="214" height="200" viewBox="0 0 214 200" fill="none" xmlns="http://www.w3.org/2000/svg">
<g clip-path="url(#clip0_2001_3246)">
<path d="M63.5593 132.279C63.5593 135.543 63.5593 138.846 65.3193 141.787C67.5384 145.455 70.5695 148.052 75.0417 148.163C80.5045 148.312 85.9758 148.214 91.4428 148.218C93.2835 148.218 95.1201 148.192 96.9693 148.192C110.31 148.175 123.653 148.161 136.998 148.15C139.311 148.15 141.624 147.92 143.63 146.671C147.193 144.452 149.425 141.269 149.786 137.035C150.028 134.166 150.024 131.268 150.024 128.386C150.024 104.72 150.024 81.0597 150.024 57.4051C149.998 57.0169 150.053 56.6277 150.186 56.2618L150.283 58.2977C150.708 57.8727 151.112 57.6431 151.134 57.3924C151.257 56.2363 151.954 55.6582 152.979 55.4075C156.025 54.6841 158.781 53.0539 160.882 50.7321C162.221 49.2742 163.543 47.7951 164.958 46.4095C167.081 44.3186 169.597 42.6676 172.36 41.5513C179.472 38.6951 186.108 39.9277 192.34 44.0633C196.239 46.656 199.401 49.967 201.365 54.2641C202.641 57.0693 203.623 59.9851 203.814 63.0878C204.035 66.6539 204.193 70.2242 204.312 73.7944C204.422 77.1947 204.414 80.595 204.524 83.9698C204.635 87.3446 204.698 90.8001 205.021 94.1706C205.447 98.4805 206.084 102.769 206.633 107.066C207.457 113.548 209.404 119.758 211.22 126.006C212.483 130.121 213.385 134.34 213.915 138.612C214.472 143.683 212.967 148.082 210.008 152.111C207.381 155.69 203.963 158.364 200.311 160.799C194.678 164.552 188.574 167.345 182.261 169.725C179.438 170.783 176.632 171.892 173.758 172.857C171.038 173.775 168.253 174.511 165.507 175.369C162.106 176.436 158.705 177.55 155.329 178.638C149.484 180.516 143.63 182.361 137.798 184.278C130.94 186.526 124.483 189.676 118.085 192.995C114.481 194.823 110.762 196.413 106.951 197.756C104.336 198.687 101.628 199.332 98.8738 199.681C96.0863 199.967 93.282 200.055 90.482 199.945C85.8452 199.893 81.2488 199.076 76.8783 197.526C73.0482 196.178 69.3853 194.396 65.9612 192.213C63.4459 190.605 61.0569 188.808 58.815 186.837C56.339 184.635 53.99 182.295 51.7793 179.828C48.3231 176.003 45.9084 171.51 43.8466 166.835C41.0663 160.514 38.133 154.287 33.699 148.839C30.464 144.908 26.9169 141.245 23.0924 137.885C19.6914 134.872 16.0907 132.118 12.6047 129.21C9.01246 126.235 5.50099 123.137 3.12033 119.01C1.55982 116.451 0.566778 113.587 0.208275 110.611C-0.0765866 108.43 -0.0765866 106.221 0.208275 104.04C0.689966 101.198 1.44157 98.4085 2.4529 95.7092C5.38621 87.8036 9.76067 80.6503 14.5688 73.7732C16.7581 70.6492 19.3853 67.8227 21.7958 64.8475C24.6483 61.2984 28.1343 58.4422 31.8115 55.8325C35.4888 53.2228 39.5062 51.2549 44.0082 50.7321C48.4081 50.2135 52.8591 50.018 57.1868 51.4036C57.8287 51.6077 58.4962 51.7309 59.1508 51.8967C59.2273 51.9086 59.2968 51.9478 59.3464 52.0072C59.8523 52.9635 60.9789 53.5033 61.0469 54.7827C61.1404 57.1246 61.0809 59.5218 61.5485 61.8C62.7473 67.5889 61.9311 73.4162 62.1947 79.2264C62.2372 80.0765 62.1947 80.9265 62.1947 81.7766C62.1224 85.0366 62.0119 88.2966 61.9779 91.5524C61.9779 92.938 62.1862 94.3236 62.1819 95.7092C62.1819 97.4434 62.0161 99.1775 61.9779 100.912C61.9779 101.515 62.1777 102.119 62.1862 102.722C62.2159 104.677 62.1862 106.633 62.1862 108.584C62.1862 111.431 62.1564 114.275 62.1862 117.122C62.2202 119.647 62.3265 122.168 62.4242 124.692C62.4781 124.918 62.5717 125.133 62.7006 125.326C62.8324 125.109 63.0662 124.901 63.0747 124.675" fill="#F7FFEE"/>
<path d="M139.643 0H74.3574C66.5155 0 60.1584 6.35583 60.1584 14.1962V135.845C60.1584 143.686 66.5155 150.041 74.3574 150.041H139.643C147.485 150.041 153.842 143.686 153.842 135.845V14.1962C153.842 6.35583 147.485 0 139.643 0Z" fill="white"/>
<rect x="71" y="22" width="73" height="113" fill="#FCF0E5"/>
<path d="M153.82 75.2651C153.82 95.3494 153.82 115.435 153.82 135.522C153.82 140.508 151.878 144.614 147.826 147.61C146.027 148.972 143.837 149.717 141.581 149.735C131.714 149.803 121.847 149.812 111.98 149.837C105.859 149.837 99.7411 149.837 93.6194 149.863C87.4977 149.888 81.3888 150.007 75.2713 150.033C73.9229 150.046 72.5763 149.931 71.2497 149.689C65.4979 148.596 60.7536 143.313 60.456 137.384C60.2094 132.458 60.1882 127.519 60.1839 122.588C60.1584 97.5256 60.1584 72.4613 60.1839 47.3956C60.1839 36.7697 60.1839 26.1439 60.1839 15.518C60.1839 12.5428 60.609 9.61853 62.2117 7.01732C64.6647 3.022 68.1889 0.425035 72.963 0.238019C80.19 -0.012751 87.383 0.0510041 94.5972 0.0170014C99.9027 0 105.2 0 110.505 0.0212517C111.933 0.0212517 113.366 0.165763 114.795 0.157263C122.387 0.11901 129.98 0 137.572 0C140.824 0 144.06 0.340028 146.925 2.15493C150.802 4.64138 153.208 8.07566 153.595 12.751C153.748 14.5957 153.829 16.4531 153.829 18.302C153.846 37.2869 153.846 56.2717 153.829 75.2566L153.82 75.2651ZM61.6591 75.2651V136.513C61.6591 140.725 63.4658 143.997 66.8073 146.505C69.1071 148.235 71.7514 148.771 74.5359 148.775C88.1227 148.809 101.709 148.826 115.296 148.826C123.314 148.826 131.332 148.826 139.345 148.779C144.179 148.745 148.06 146.824 150.747 142.697C152.141 140.572 152.507 138.145 152.519 135.697C152.545 130.639 152.375 125.581 152.383 120.519C152.429 85.099 152.488 49.6653 152.562 14.2174C152.562 8.6282 149.845 4.44161 144.778 2.35044C142.355 1.34736 139.796 1.16034 137.211 1.16034C118.945 1.16034 100.675 1.17026 82.4006 1.1901C79.2419 1.1901 76.0706 1.1901 72.929 1.46637C68.1081 1.8914 64.5159 4.44161 62.6071 8.87472C61.8461 10.6471 61.6973 12.785 61.6888 14.7529C61.6421 34.9208 61.6421 55.0887 61.6421 75.2566L61.6591 75.2651Z" fill="#66962F"/>
<path d="M70.5695 78.5464C70.5695 62.0041 70.5695 45.4617 70.5695 28.9194C70.5695 27.079 70.8033 25.2343 70.9351 23.3939C71.0286 22.0806 71.9256 21.6045 73.0606 21.477C74.1887 21.3319 75.3243 21.2524 76.4616 21.239C96.802 21.239 117.144 21.239 137.487 21.239C139 21.2688 140.51 21.3966 142.006 21.6215C142.545 21.6609 143.049 21.9012 143.42 22.2948C143.79 22.6884 143.998 23.2066 144.004 23.7467C144.064 24.3758 144.174 25.0218 144.174 25.6296C144.204 36.8973 144.208 48.1565 144.247 59.4326C144.247 62.6756 144.408 65.9186 144.4 69.1659C144.36 84.6457 144.306 100.128 144.238 115.614C144.238 120.714 144.238 125.815 144.191 130.915C144.191 133.988 143.562 134.604 140.489 134.608C118.204 134.625 95.9206 134.625 73.6388 134.608C71.9383 134.608 70.8925 133.886 70.782 131.969C70.6927 130.371 70.5439 128.773 70.5439 127.175C70.561 110.964 70.5695 94.7544 70.5695 78.5464ZM142.937 78.0916V31.1253C142.937 29.0001 142.916 26.9047 142.899 24.7966C142.899 23.598 142.644 22.6119 141.113 22.6331C140.489 22.6331 139.864 22.4759 139.239 22.4801C130.736 22.5396 122.281 22.6671 113.804 22.6671C104.06 22.6671 94.3165 22.5269 84.5771 22.5014C80.9508 22.5014 77.3288 22.6544 73.7026 22.7139C72.593 22.7139 72.0021 23.1007 72.0021 24.3503C72.0276 25.7359 71.8193 27.1257 71.8193 28.5114C71.8193 62.3526 71.8193 96.1967 71.8193 130.044C71.7951 130.759 71.871 131.474 72.0446 132.169C72.1155 132.379 72.2342 132.57 72.3913 132.728C72.5483 132.885 72.7396 133.003 72.9501 133.074C74.2417 133.255 75.5443 133.344 76.8484 133.342C97.7387 133.367 118.629 133.382 139.519 133.384C142.92 133.384 142.92 133.384 142.92 129.984C142.946 112.694 142.956 95.3962 142.95 78.0916H142.937Z" fill="#66962F"/>
<path d="M107.512 12.5555C104.477 12.5555 101.442 12.5555 98.4064 12.5555C97.7772 12.5555 97.1523 12.3897 96.5274 12.3897C95.4391 12.3897 95.354 11.7522 95.3668 10.8851C95.3668 9.95001 95.8727 9.78425 96.6421 9.78C103.55 9.72475 110.458 9.66949 117.367 9.56323C118.493 9.56323 118.952 9.85651 118.948 11.0466C118.944 12.2367 118.459 12.598 117.354 12.5852C114.068 12.5512 110.777 12.5852 107.491 12.5852L107.512 12.5555Z" fill="#66962F"/>
<path d="M107.44 105.018C100.185 105.018 92.9265 105.018 85.6655 105.018C83.6887 105.018 83.6589 104.992 83.6547 103.067C83.6547 93.4013 83.6547 83.7403 83.6547 74.0793C83.631 73.7065 83.7111 73.3345 83.8859 73.0044C84.0607 72.6743 84.3235 72.399 84.6452 72.2091C87.1577 70.4452 89.6234 68.6133 92.0678 66.7517C92.3675 66.4317 92.5319 66.0084 92.5269 65.5701C92.5609 63.8699 92.5609 62.191 92.4801 60.5079C92.4334 59.4878 92.7352 59.0713 93.8193 59.118C95.6345 59.1903 97.4753 58.931 99.2565 59.1648C101.862 59.5133 103.784 58.4167 105.633 56.8441C107.483 55.2715 107.389 55.4202 109.255 56.8441C111.032 58.1915 112.886 59.4326 115.381 59.1733C117.218 58.982 119.088 59.1478 120.946 59.1733C122.553 59.1733 122.646 59.237 122.702 60.8734C122.757 62.5098 122.766 64.0782 122.723 65.6806C122.691 66.0314 122.762 66.3839 122.927 66.6954C123.091 67.0069 123.342 67.2641 123.65 67.436C126.013 69.0468 128.352 70.696 130.609 72.4429C131.083 72.9356 131.344 73.5952 131.336 74.279C131.378 82.3802 131.361 90.4813 131.357 98.5825C131.357 100.104 131.357 101.621 131.357 103.139C131.357 104.89 131.208 105.047 129.495 105.047C122.152 105.047 114.809 105.047 107.466 105.047L107.44 105.018ZM94.1381 61.2942V63.2196C94.1594 68.354 94.1381 73.4842 94.2316 78.6144C94.2584 78.8976 94.3419 79.1726 94.4769 79.4231C94.612 79.6735 94.7961 79.8942 95.0181 80.0722C98.8697 82.9285 102.754 85.7408 106.671 88.5092C106.885 88.6202 107.122 88.6782 107.364 88.6782C107.605 88.6782 107.842 88.6202 108.056 88.5092C112.078 85.6529 116.053 82.7245 120.053 79.8342C120.351 79.6417 120.588 79.3695 120.739 79.0486C120.889 78.7277 120.946 78.3711 120.904 78.0193C120.789 75.2013 120.704 72.3791 120.699 69.5611C120.699 67.2064 120.772 64.8475 120.899 62.4928C120.963 61.3197 120.67 60.8564 119.382 60.9202C116.027 61.0902 112.66 61.1412 109.302 61.1922C108.303 61.1922 107.304 60.9967 106.305 60.9967C104.991 60.9967 103.661 61.256 102.364 61.1242C99.626 60.8308 96.8617 60.888 94.1381 61.2942ZM87.2767 102.769L87.468 103.096H127.854C127.658 102.842 127.443 102.602 127.212 102.378C123.552 99.4751 119.875 96.6018 116.231 93.6776C114.484 92.275 112.784 90.8086 111.13 89.3082C110.59 88.8279 110.28 88.8492 109.757 89.3082C107.534 91.1784 107.534 91.1444 105.319 89.3465C105.034 89.117 104.354 88.947 104.145 89.1127C102.445 90.4601 100.812 91.9222 99.129 93.2993C95.728 96.0649 92.3271 98.8163 88.9262 101.553C88.3607 101.962 87.8123 102.361 87.2767 102.769ZM85.3467 102.446C85.8908 101.996 86.1969 101.77 86.4562 101.536C88.314 99.9809 90.1505 98.4082 92.0338 96.8824C95.2264 94.2896 98.47 91.7819 101.641 89.1467C103.121 87.9269 103.032 87.8036 101.51 86.69C97.7984 83.9868 94.1083 81.2453 90.4226 78.5039C88.7519 77.2628 87.1109 75.9834 85.3467 74.6361V102.446ZM111.674 87.9949L129.372 102.225V74.9888L111.674 87.9949ZM85.742 73.2589C88.0377 74.9208 90.2058 76.4934 92.4206 78.0916V68.4305L85.742 73.2589ZM122.693 68.5581V77.9088C124.662 76.4849 126.566 75.1291 128.432 73.718C128.512 73.5829 128.556 73.4303 128.562 73.2738C128.568 73.1173 128.535 72.9618 128.466 72.8212C126.634 71.4058 124.768 70.0797 122.685 68.5538L122.693 68.5581ZM105.212 58.8333H109.37C107.98 56.6953 107.716 56.6996 105.204 58.829L105.212 58.8333Z" fill="#66962F"/>
<path d="M98.9843 73.2462L100.238 75.1418L99.9238 75.4139L98.2234 73.786L96.7312 75.5329L96.3954 75.2651L97.5007 73.3312L95.4133 72.2771L95.5366 71.8861L97.7855 72.5151L98.0321 70.2199L98.4572 70.1902L98.7165 72.4386L100.753 71.8308L100.88 72.2219L98.9843 73.2462Z" fill="#66962F"/>
<path d="M105.391 73.2462L106.641 75.1418L106.331 75.4139L104.63 73.786L103.138 75.5329L102.806 75.2651L103.907 73.3312L101.82 72.2771L101.948 71.8861L104.192 72.5151L104.443 70.2199L104.868 70.1902L105.127 72.4386L107.185 71.8308L107.308 72.2219L105.391 73.2462Z" fill="#66962F"/>
<path d="M111.534 73.2462L112.784 75.1418L112.474 75.4139L110.773 73.786L109.255 75.5329L108.92 75.2651L110.025 73.3312L107.938 72.2771L108.065 71.8861L110.31 72.5151L110.56 70.2199L110.986 70.1902L111.249 72.4386L113.307 71.8308L113.43 72.2219L111.534 73.2462Z" fill="#66962F"/>
<path d="M118.264 73.2462L119.518 75.1418L119.203 75.4139L117.503 73.786L116.01 75.5329L115.675 75.2651L116.776 73.3312L114.693 72.2771L114.816 71.8861L117.065 72.5151L117.311 70.2199L117.736 70.1902L117.996 72.4386L120.053 71.8308L120.177 72.2219L118.264 73.2462Z" fill="#66962F"/>
</g>
<defs>
<clipPath id="clip0_2001_3246">
<rect width="214" height="200" fill="white"/>
</clipPath>
</defs>
</svg>
