<svg width="24" height="24" viewBox="0 0 24 24" fill="none" xmlns="http://www.w3.org/2000/svg">
<path fill-rule="evenodd" clip-rule="evenodd" d="M12 2.75C11.5858 2.75 11.25 3.08579 11.25 3.5C11.25 3.91421 11.5858 4.25 12 4.25C12.4142 4.25 12.75 3.91421 12.75 3.5C12.75 3.08579 12.4142 2.75 12 2.75ZM14.1206 4.25385C14.2044 4.01818 14.25 3.76442 14.25 3.5C14.25 2.25736 13.2426 1.25 12 1.25C10.7574 1.25 9.75 2.25736 9.75 3.5C9.75 3.76442 9.79561 4.01818 9.8794 4.25385C8.40347 4.32066 7.0971 5.25085 6.5563 6.63715L6.54198 6.67386L4.60389 13.7601C4.52105 13.958 4.39478 14.1348 4.23426 14.2775L4.09623 14.4002C3.55797 14.8786 3.25 15.5644 3.25 16.2846C3.25 17.6771 4.3788 18.8059 5.77126 18.8059H18.2287C19.6212 18.8059 20.75 17.6771 20.75 16.2846C20.75 15.5644 20.442 14.8786 19.9038 14.4002L19.7657 14.2775C19.6052 14.1348 19.4789 13.958 19.3961 13.7601L17.458 6.67386L17.4437 6.63715C16.9029 5.25084 15.5965 4.32066 14.1206 4.25385ZM10.0499 5.75C9.13504 5.75 8.3126 6.30373 7.96731 7.14831L6.02887 14.2359L6.01455 14.2726C5.84601 14.7046 5.57742 15.0905 5.23081 15.3986L5.09277 15.5213C4.87474 15.7151 4.75 15.9929 4.75 16.2846C4.75 16.8486 5.20723 17.3059 5.77126 17.3059H18.2287C18.7928 17.3059 19.25 16.8486 19.25 16.2846C19.25 15.9929 19.1253 15.7151 18.9072 15.5213L18.7692 15.3986C18.4226 15.0905 18.154 14.7046 17.9854 14.2726L17.9711 14.2359L16.0327 7.14831C15.6874 6.30373 14.865 5.75 13.9501 5.75H10.0499ZM8.69827 19.8849C9.038 19.6479 9.50551 19.7312 9.74248 20.0709C10.2407 20.7852 11.0661 21.25 12 21.25C12.9339 21.25 13.7593 20.7852 14.2575 20.0709C14.4945 19.7312 14.962 19.6479 15.3017 19.8849C15.6415 20.1218 15.7248 20.5893 15.4878 20.9291C14.7211 22.0283 13.4449 22.75 12 22.75C10.5551 22.75 9.27893 22.0283 8.51221 20.9291C8.27523 20.5893 8.35854 20.1218 8.69827 19.8849Z" fill="#282930"/>
</svg>
