<svg width="235" height="235" viewBox="0 0 235 235" fill="none" xmlns="http://www.w3.org/2000/svg">
    <path d="M56.4059 74.7138L55.6205 73.7227C53.9312 71.7031 53.0586 68.8482 53.4637 65.0832C53.8502 61.7358 53.8066 59.4731 52.5973 57.6779C51.2259 55.6271 49.0193 55.1097 46.4574 56.7678C44.9992 57.7304 43.8703 59.1159 43.2222 60.7385L40.5605 58.8684C41.24 56.9984 43.1038 54.8292 45.2418 53.408C49.8733 50.2913 53.8814 51.7748 55.9259 54.8354C57.7586 57.5781 57.5466 60.5702 57.1726 64.1856C56.7986 67.4706 57.3409 69.671 58.8307 71.6657L59.5725 72.6879L56.4059 74.7138ZM59.292 80.9472C59.0503 80.6335 58.8763 80.2731 58.7811 79.8887C58.686 79.5043 58.6716 79.1043 58.739 78.7141C58.8064 78.3239 58.954 77.9519 59.1726 77.6217C59.3912 77.2915 59.6759 77.0102 60.0088 76.7958C61.4176 75.8483 63.0881 76.2535 64.0855 77.7557C64.325 78.0683 64.4965 78.4275 64.5889 78.8103C64.6814 79.193 64.6928 79.5909 64.6223 79.9783C64.5519 80.3658 64.4012 80.7342 64.1799 81.0599C63.9586 81.3857 63.6717 81.6615 63.3375 81.8698C63.0141 82.0858 62.65 82.2336 62.2676 82.3042C61.8851 82.3748 61.4923 82.3666 61.1131 82.2803C60.7339 82.194 60.3763 82.0312 60.0621 81.802C59.7479 81.5728 59.4837 81.282 59.2857 80.9472H59.292Z" fill="#C7CCD5"/>
    <path d="M61.4361 170.627L61.0497 170.085C60.5876 169.427 60.2662 168.68 60.1053 167.892C59.9444 167.103 59.9476 166.291 60.1146 165.504C60.3951 163.758 60.4325 162.58 59.8279 161.601C59.1547 160.492 58.0077 160.174 56.6177 160.978C55.8421 161.458 55.2278 162.16 54.8536 162.992L53.501 161.938C54.0819 160.791 54.9797 159.835 56.0878 159.183C58.5812 157.662 60.6507 158.522 61.6543 160.174C62.5519 161.651 62.3774 163.216 62.0844 165.092C61.8164 166.8 62.047 167.978 62.7888 169.044L63.1565 169.593L61.4361 170.627ZM62.8075 173.956C62.6888 173.785 62.6061 173.592 62.5644 173.389C62.5231 173.183 62.5231 172.971 62.5644 172.766C62.6092 172.563 62.6962 172.371 62.8199 172.205C62.9433 172.037 63.0978 171.896 63.275 171.787C63.4506 171.677 63.6471 171.605 63.8521 171.576C64.057 171.546 64.2659 171.56 64.4653 171.616C64.6647 171.671 64.8503 171.768 65.0103 171.899C65.1702 172.031 65.301 172.194 65.3943 172.379C65.4946 172.55 65.5622 172.738 65.5938 172.934C65.6343 173.129 65.6343 173.331 65.5938 173.526C65.5468 173.719 65.4621 173.902 65.3444 174.062C65.2267 174.222 65.0785 174.358 64.9081 174.461C64.6514 174.616 64.3548 174.691 64.0553 174.678C63.7559 174.665 63.4671 174.563 63.2251 174.386C63.0597 174.271 62.9179 174.125 62.8075 173.956Z" fill="#C7CCD5"/>
    <path d="M191.509 115.599L191.565 114.932C191.634 113.554 192.332 112.145 193.828 110.843C195.175 109.696 195.972 108.829 196.147 107.689C196.359 106.442 195.692 105.426 194.109 105.139C193.205 104.989 192.278 105.115 191.447 105.501L191.104 103.824C192.284 103.325 193.583 103.18 194.844 103.406C197.73 103.874 198.746 105.9 198.435 107.77C198.154 109.477 197.001 110.556 195.567 111.79C194.246 112.912 193.66 113.959 193.529 115.25L193.448 115.873L191.509 115.599ZM190.381 119.021C190.402 118.813 190.466 118.611 190.568 118.429C190.668 118.247 190.806 118.09 190.973 117.967C191.14 117.841 191.331 117.75 191.534 117.699C191.74 117.658 191.952 117.658 192.158 117.699C192.364 117.727 192.562 117.797 192.739 117.906C192.917 118.015 193.069 118.16 193.186 118.332C193.304 118.503 193.384 118.698 193.422 118.902C193.459 119.107 193.453 119.317 193.404 119.52C193.374 119.717 193.304 119.905 193.199 120.074C193.094 120.243 192.956 120.39 192.793 120.504C192.632 120.621 192.45 120.706 192.257 120.754C191.865 120.844 191.454 120.777 191.11 120.567C190.941 120.462 190.795 120.324 190.68 120.162C190.563 120.002 190.48 119.819 190.437 119.626C190.376 119.43 190.357 119.224 190.381 119.021Z" fill="#C7CCD5"/>
    <path d="M100.633 55.4774L102.883 54.3741C102.961 54.346 103.047 54.346 103.126 54.3741C103.209 54.3868 103.285 54.4262 103.344 54.4863C103.402 54.5466 103.441 54.6224 103.456 54.7044C103.468 54.7868 103.457 54.8708 103.425 54.9475L102.316 57.1916C102.272 57.306 102.272 57.4325 102.316 57.5469L103.425 59.7909C103.457 59.8677 103.468 59.9517 103.456 60.034C103.44 60.1156 103.401 60.1911 103.344 60.2522C103.285 60.3123 103.209 60.3517 103.126 60.3644C103.044 60.3826 102.958 60.3716 102.883 60.3332L100.633 59.2237C100.52 59.1799 100.396 59.1799 100.283 59.2237L98.0332 60.3332C97.9581 60.3711 97.8723 60.3821 97.7901 60.3644C97.7071 60.3517 97.6305 60.3123 97.5719 60.2522C97.5131 60.1927 97.4738 60.1166 97.4593 60.0342C97.4449 59.9518 97.4558 59.8669 97.4909 59.7909L98.6004 57.5469C98.6253 57.4899 98.638 57.4283 98.6378 57.3661C98.6373 57.306 98.6246 57.2466 98.6004 57.1916L97.4909 54.9475C97.4556 54.8717 97.4447 54.7868 97.4597 54.7044C97.473 54.6216 97.5121 54.5451 97.5715 54.4858C97.6308 54.4265 97.7073 54.3874 97.7901 54.3741C97.8688 54.3465 97.9545 54.3465 98.0332 54.3741L100.283 55.4774C100.338 55.5029 100.398 55.5157 100.458 55.5148C100.518 55.515 100.578 55.5023 100.633 55.4774Z" fill="#5C6368"/>
    <path d="M139.834 176.562C139.834 177.246 139.631 177.916 139.251 178.485C138.87 179.054 138.329 179.498 137.697 179.759C137.064 180.021 136.368 180.089 135.696 179.955C135.025 179.82 134.408 179.49 133.925 179.005C133.523 178.602 133.227 178.107 133.063 177.563C132.898 177.018 132.871 176.442 132.982 175.884C133.094 175.326 133.341 174.805 133.702 174.365C134.063 173.926 134.527 173.583 135.053 173.365C135.578 173.148 136.149 173.064 136.715 173.12C137.281 173.176 137.824 173.37 138.297 173.686C138.77 174.002 139.158 174.43 139.426 174.932C139.694 175.433 139.834 175.993 139.834 176.562Z" fill="#5C6368"/>
    <path d="M152.32 145.382C150.554 142.161 148.892 138.783 147.333 135.247C146.203 132.694 145.619 129.934 145.619 127.143C145.578 120.519 145.578 114.257 145.619 108.356C145.628 106.13 145.371 103.912 144.852 101.748C144.438 101.793 144.022 101.816 143.606 101.817C144.025 103.839 144.248 105.897 144.273 107.963C144.335 113.955 144.347 119.898 144.31 125.79C144.254 133.003 147.427 139.435 150.974 145.594C151.001 145.641 151.014 145.696 151.012 145.75C151.01 145.805 150.993 145.858 150.963 145.903C150.932 145.949 150.89 145.985 150.84 146.007C150.79 146.03 150.735 146.038 150.681 146.03C149.618 145.899 148.548 145.835 147.477 145.837C127.746 145.837 108.192 145.852 88.8139 145.881C88.5272 145.881 88.4524 145.756 88.5833 145.501C91.8683 139.267 94.9227 133.732 94.985 126.482C95.0224 122.063 94.985 117.618 94.985 113.18C94.9351 107.732 95.2302 103.917 95.8701 101.736C98.4632 93.0089 105.582 86.0212 114.296 83.9143C119.339 82.7484 124.625 83.2696 129.344 85.3979C129.493 84.9802 129.624 84.5563 129.743 84.1512C128.376 83.4877 126.921 83.0258 125.423 82.7798C125.352 82.7777 125.282 82.76 125.218 82.728C125.155 82.696 125.099 82.6504 125.055 82.5946C125.011 82.5387 124.98 82.4739 124.964 82.4046C124.948 82.3354 124.947 82.2635 124.962 82.1939C125.143 81.0353 125.185 79.8592 125.086 78.6907C124.058 72.1082 114.801 72.4573 114.396 79.0211C114.328 80.0606 114.36 81.1042 114.489 82.1378C114.503 82.2075 114.502 82.2791 114.487 82.3485C114.472 82.4179 114.444 82.4837 114.403 82.5418C114.362 82.6 114.31 82.6493 114.25 82.687C114.19 82.7247 114.123 82.7499 114.053 82.7611C100.782 86.3079 93.6947 96.4746 93.8567 109.97C93.9357 116.228 93.9357 121.922 93.8567 127.05C93.7632 133.906 90.1541 139.516 87.1309 145.569C87.0496 145.729 87.0109 145.908 87.0185 146.087C87.0261 146.267 87.0798 146.441 87.1743 146.594C87.2688 146.747 87.4011 146.873 87.5583 146.959C87.7155 147.046 87.8925 147.091 88.0721 147.09H111.136C111.206 147.084 111.277 147.092 111.345 147.114C111.412 147.136 111.474 147.172 111.528 147.218C111.581 147.265 111.625 147.321 111.656 147.385C111.687 147.449 111.705 147.518 111.709 147.589C112.044 149.546 112.963 151.356 114.346 152.781C116.278 153.809 118.47 154.242 120.648 154.028C123.856 153.737 126.073 152.251 127.299 149.571C127.353 148.861 127.532 148.167 127.829 147.52C127.88 147.398 127.967 147.294 128.078 147.222C128.189 147.149 128.32 147.112 128.452 147.115H151.298C151.506 147.13 151.715 147.087 151.901 146.99C152.086 146.893 152.241 146.746 152.347 146.566C152.454 146.386 152.507 146.179 152.503 145.97C152.498 145.761 152.435 145.557 152.32 145.382ZM119.532 75.1563H119.682C120.23 75.1629 120.772 75.2773 121.276 75.4933C121.781 75.7092 122.237 76.0223 122.62 76.4148C123.004 76.8072 123.306 77.2713 123.51 77.7805C123.713 78.2898 123.815 78.8341 123.808 79.3826L123.846 81.876C123.846 81.9307 123.826 81.9836 123.789 82.024C123.752 82.0644 123.701 82.0894 123.646 82.0941L115.786 82.1939C115.759 82.1947 115.732 82.1902 115.707 82.1806C115.681 82.1711 115.658 82.1566 115.639 82.1381C115.619 82.1195 115.603 82.0973 115.592 82.0727C115.581 82.048 115.575 82.0214 115.574 81.9944L115.537 79.501C115.496 78.3965 115.893 77.3206 116.641 76.5071C117.389 75.6936 118.428 75.2081 119.532 75.1563ZM126.476 147.19C126.476 150.232 123.49 152.7 119.819 152.7H119.626C115.948 152.7 112.968 150.207 112.968 147.19V147.109C112.968 147.095 112.971 147.082 112.977 147.069C112.982 147.057 112.99 147.045 113 147.036C113.01 147.027 113.021 147.019 113.034 147.015C113.047 147.01 113.061 147.008 113.074 147.009H126.37C126.384 147.008 126.398 147.01 126.41 147.015C126.423 147.019 126.435 147.027 126.445 147.036C126.455 147.045 126.463 147.057 126.468 147.069C126.473 147.082 126.476 147.095 126.476 147.109V147.19Z" fill="#5C6368"/>
    <path d="M143.549 101.754C144.173 103.855 144.465 107.502 144.434 112.657C144.794 112.552 145.164 112.489 145.538 112.47C145.538 111.628 145.538 110.78 145.538 109.92C145.7 97.0606 139.248 87.2304 127.155 83.266C127.256 83.6966 127.292 84.14 127.261 84.5812C131.136 85.9599 134.631 88.2338 137.461 91.2179C140.291 94.202 142.377 97.812 143.549 101.754Z" fill="#5C6368"/>
    <path d="M170.253 136.593C170.255 137.154 170.089 137.703 169.779 138.17C169.468 138.638 169.025 139.002 168.507 139.218C167.989 139.433 167.418 139.49 166.868 139.382C166.317 139.273 165.811 139.003 165.414 138.607C165.017 138.21 164.746 137.705 164.636 137.155C164.526 136.604 164.582 136.034 164.796 135.515C165.011 134.997 165.374 134.553 165.841 134.241C166.307 133.929 166.856 133.763 167.417 133.763C167.789 133.762 168.158 133.835 168.502 133.977C168.846 134.118 169.159 134.327 169.422 134.59C169.686 134.852 169.895 135.165 170.037 135.508C170.18 135.852 170.253 136.221 170.253 136.593ZM169.387 136.593C169.388 136.199 169.273 135.814 169.054 135.486C168.836 135.158 168.526 134.902 168.162 134.751C167.799 134.6 167.398 134.56 167.012 134.636C166.626 134.713 166.271 134.902 165.993 135.181C165.714 135.459 165.525 135.814 165.448 136.2C165.371 136.587 165.411 136.987 165.563 137.351C165.714 137.714 165.97 138.025 166.298 138.243C166.626 138.461 167.011 138.576 167.405 138.575C167.93 138.574 168.433 138.364 168.805 137.993C169.176 137.621 169.385 137.118 169.387 136.593Z" fill="#5C6368"/>
    <path d="M112.712 99.0303C112.745 99.1072 112.761 99.1899 112.761 99.2734C112.761 99.3569 112.745 99.4396 112.712 99.5165C112.676 99.5926 112.625 99.6605 112.561 99.7163C112.498 99.772 112.424 99.8143 112.344 99.8407L105.968 101.972C105.888 102.002 105.803 102.014 105.718 102.009C105.634 102.004 105.551 101.982 105.475 101.944C105.399 101.907 105.332 101.854 105.277 101.789C105.223 101.724 105.182 101.649 105.157 101.567V101.517C105.13 101.438 105.118 101.355 105.123 101.271C105.129 101.188 105.151 101.106 105.188 101.031C105.225 100.955 105.276 100.887 105.339 100.832C105.402 100.776 105.476 100.733 105.556 100.707L111.883 98.5753C111.963 98.5467 112.048 98.5347 112.133 98.5401C112.217 98.5454 112.3 98.568 112.376 98.6064C112.45 98.6433 112.517 98.6949 112.572 98.7581C112.626 98.8212 112.668 98.8947 112.693 98.9742L112.712 99.0303Z" fill="#5C6368"/>
    <path d="M125.865 99.0303C125.815 99.1911 125.828 99.3653 125.903 99.5165C125.939 99.5926 125.99 99.6605 126.053 99.7163C126.116 99.772 126.19 99.8143 126.27 99.8407L132.597 101.972C132.676 102 132.76 102.012 132.844 102.006C132.927 102.001 133.009 101.979 133.083 101.941C133.236 101.863 133.352 101.729 133.408 101.567V101.517C133.437 101.438 133.449 101.353 133.444 101.268C133.44 101.184 133.417 101.101 133.38 101.025C133.342 100.949 133.289 100.882 133.224 100.827C133.159 100.773 133.084 100.732 133.002 100.707L126.682 98.5753C126.602 98.5467 126.517 98.5347 126.432 98.5401C126.348 98.5454 126.265 98.568 126.189 98.6064C126.039 98.6839 125.923 98.8152 125.865 98.9742V99.0303Z" fill="#5C6368"/>
    <path d="M131.413 107.215C131.417 107.765 131.254 108.304 130.945 108.761C130.642 109.221 130.208 109.582 129.699 109.795C129.317 109.955 128.906 110.027 128.493 110.007C128.08 109.988 127.677 109.876 127.313 109.681C126.948 109.486 126.632 109.212 126.387 108.879C126.142 108.546 125.975 108.163 125.896 107.757C125.785 107.218 125.839 106.657 126.052 106.149C126.266 105.642 126.623 105.208 127.081 104.902C127.539 104.593 128.08 104.428 128.633 104.428C128.998 104.429 129.361 104.501 129.699 104.64C130.039 104.788 130.348 105 130.609 105.264C130.871 105.523 131.083 105.83 131.232 106.168C131.36 106.502 131.421 106.857 131.413 107.215Z" fill="#5C6368"/>
    <path d="M113.641 107.215C113.638 107.767 113.472 108.306 113.165 108.764C112.858 109.223 112.424 109.582 111.915 109.795C111.533 109.955 111.121 110.027 110.709 110.007C110.296 109.988 109.893 109.876 109.528 109.681C109.164 109.486 108.848 109.212 108.603 108.879C108.358 108.546 108.19 108.163 108.112 107.757C108.001 107.218 108.055 106.657 108.268 106.149C108.481 105.642 108.839 105.208 109.297 104.902C109.755 104.593 110.296 104.428 110.849 104.428C111.216 104.43 111.58 104.502 111.921 104.64C112.603 104.924 113.146 105.466 113.429 106.149C113.567 106.488 113.639 106.849 113.641 107.215Z" fill="#5C6368"/>
    <path d="M124.818 125.684C124.821 125.849 124.789 126.013 124.724 126.164C124.664 126.319 124.573 126.459 124.456 126.576C124.339 126.693 124.199 126.784 124.045 126.844C123.893 126.908 123.73 126.94 123.565 126.937H116.004C115.837 126.941 115.671 126.909 115.518 126.844C115.367 126.78 115.23 126.689 115.112 126.576C114.995 126.458 114.902 126.318 114.838 126.164C114.773 126.013 114.74 125.849 114.738 125.684V125.616C114.737 125.449 114.768 125.284 114.831 125.13C114.895 124.976 114.988 124.836 115.106 124.718C115.226 124.604 115.366 124.511 115.518 124.444C115.67 124.381 115.833 124.35 115.997 124.35H123.559C123.889 124.35 124.206 124.482 124.44 124.716C124.674 124.949 124.805 125.267 124.805 125.597L124.818 125.684Z" fill="#5C6368"/>
    <path d="M155.487 68.5677C154.364 68.3864 153.212 68.5421 152.177 69.0153C151.142 69.4884 150.271 70.2578 149.674 71.2259C149.076 72.1941 148.779 73.3178 148.82 74.4548C148.861 75.5918 149.238 76.6911 149.904 77.6138C150.57 78.5365 151.494 79.2411 152.56 79.6385C153.626 80.036 154.786 80.1085 155.893 79.8468C157 79.5851 158.005 79.001 158.78 78.1684C159.556 77.3358 160.067 76.2919 160.249 75.1689C160.492 73.6621 160.127 72.1206 159.234 70.8829C158.341 69.6452 156.993 68.8125 155.487 68.5677ZM150.101 73.5544C150.226 72.7868 150.547 72.0644 151.032 71.4568C151.518 70.8492 152.151 70.377 152.873 70.0857C153.594 69.7944 154.378 69.6938 155.149 69.7937C155.92 69.8936 156.653 70.1905 157.276 70.6559L150.675 76.5714C150.136 75.6639 149.933 74.5962 150.101 73.5544ZM153.841 78.7469C152.933 78.5973 152.092 78.1756 151.429 77.5376L158.148 71.5223C158.7 72.241 159.024 73.1089 159.077 74.0135C159.13 74.9181 158.91 75.8179 158.446 76.5962C157.982 77.3746 157.295 77.9957 156.474 78.3791C155.653 78.7625 154.736 78.8907 153.841 78.7469Z" fill="#C7CCD5"/>
    <path d="M62.8386 110.481C61.968 110.253 61.0492 110.288 60.1985 110.582C59.3477 110.876 58.6032 111.415 58.0592 112.132C57.5151 112.849 57.1959 113.711 57.142 114.61C57.088 115.508 57.3017 116.403 57.7561 117.18C58.2104 117.957 58.8849 118.581 59.6944 118.975C60.5039 119.369 61.4119 119.513 62.3035 119.391C63.1952 119.268 64.0306 118.884 64.7039 118.287C65.3772 117.689 65.8583 116.906 66.0862 116.035C66.3901 114.868 66.2189 113.628 65.6101 112.587C65.0014 111.546 64.0047 110.789 62.8386 110.481ZM58.2197 113.972C58.4628 113.056 59.0579 112.274 59.8751 111.796C60.6924 111.317 61.6657 111.181 62.5831 111.416C63.1392 111.566 63.6519 111.846 64.0791 112.233L58.4254 116.39C58.076 115.633 58.0033 114.777 58.2197 113.972ZM60.7691 118.335C60.0651 118.147 59.4361 117.747 58.9677 117.188L64.7149 112.962C65.0965 113.57 65.2863 114.279 65.2597 114.996C65.2331 115.714 64.9913 116.407 64.5657 116.985C64.1402 117.563 63.5505 118 62.8734 118.238C62.1964 118.477 61.4631 118.506 60.7691 118.323V118.335Z" fill="#C7CCD5"/>
</svg>
