<svg width="184" height="366" viewBox="0 0 184 366" fill="none" xmlns="http://www.w3.org/2000/svg">
    <g opacity="0.1">
        <path d="M27.4195 2.81999C31.7883 0.347057 36.9582 -0.296419 41.7998 1.03017C46.6415 2.35675 50.7614 5.54556 53.2595 9.89998L177.87 228.51L144.95 247.27L20.3395 28.66C17.8666 24.2912 17.2231 19.1213 18.5497 14.2796C19.8763 9.43799 23.0651 5.31811 27.4195 2.81999Z" fill="#91069C"/>
        <path d="M22.0295 91.3C26.3983 88.827 31.5682 88.1836 36.4098 89.5102C41.2515 90.8367 45.3714 94.0255 47.8695 98.38L135.729 252.53L102.809 271.29L14.9495 117.15C12.4734 112.78 11.8282 107.608 13.1549 102.764C14.4816 97.9198 17.6724 93.7981 22.0295 91.3Z" fill="#03789D"/>
        <path d="M9.54942 167.47C13.9182 164.997 19.0881 164.353 23.9298 165.68C28.7714 167.007 32.8913 170.195 35.3894 174.55L93.5394 276.55L60.6194 295.32L2.46942 193.32C-0.00666809 188.95 -0.651878 183.778 0.67485 178.934C2.00158 174.09 5.19231 169.968 9.54942 167.47Z" fill="#FF387C"/>
        <path d="M178.619 365.98L125.109 272.09L183.709 238.7L178.619 365.98Z" fill="#E0B180"/>
        <path d="M178.62 365.99L125.1 272.1L66.4595 305.52L178.62 365.99Z" fill="#C59A6D"/>
        <path d="M178.62 365.98L157.91 329.64L135.21 342.58L178.62 365.98Z" fill="#3A3A3C"/>
        <path d="M178.62 365.98L157.91 329.64L180.62 316.7L178.62 365.98Z" fill="#818385"/>
    </g>
</svg>
