<svg width="20" height="26" viewBox="0 0 20 26" fill="none" xmlns="http://www.w3.org/2000/svg">
<path fill-rule="evenodd" clip-rule="evenodd" d="M9.99952 2.20834C7.936 2.20834 6.28154 3.85797 6.28154 5.87038C6.28154 7.88279 7.936 9.53242 9.99952 9.53242C12.063 9.53242 13.7175 7.88279 13.7175 5.87038C13.7175 3.85797 12.063 2.20834 9.99952 2.20834ZM4.53154 5.87038C4.53154 2.87132 6.98978 0.458344 9.99952 0.458344C13.0093 0.458344 15.4675 2.87132 15.4675 5.87038C15.4675 8.86944 13.0093 11.2824 9.99952 11.2824C6.98978 11.2824 4.53154 8.86944 4.53154 5.87038ZM12.5655 15.1677C10.8164 15.0421 9.18916 15.0423 7.43644 15.1684C4.75197 15.3616 2.63347 17.5224 2.23596 20.2429L2.14989 20.832C1.9607 22.1268 2.87218 23.3218 4.17442 23.459C8.35414 23.8994 11.6602 23.9045 15.8317 23.4626C17.1304 23.325 18.0391 22.1321 17.8501 20.8389L17.7627 20.2403C17.3653 17.5207 15.2483 15.3604 12.5655 15.1677ZM7.31082 13.423C9.14695 13.2908 10.858 13.2906 12.6909 13.4222C16.287 13.6805 18.9923 16.5518 19.4943 19.9873L19.5818 20.5858C19.9111 22.84 18.3251 24.9583 16.0161 25.2028C11.7204 25.6579 8.29101 25.6525 3.99104 25.1994C1.67989 24.9559 0.0883542 22.837 0.418281 20.5789L0.504348 19.9899C1.00654 16.5529 3.71389 13.6818 7.31082 13.423Z" fill="#282930"/>
</svg>
