<svg width="145" height="144" viewBox="0 0 145 144" fill="none" xmlns="http://www.w3.org/2000/svg">
<path d="M56.956 136.973C65.308 142.33 81.026 135.821 87 129.715C106.43 109.814 140.795 76.2048 134.154 41.184C131.312 26.2944 116.377 21.744 110.374 20.7936C95.932 18.5184 81.142 20.3616 66.816 23.184C51.852 26.1216 36.076 30.4704 24.505 40.8672C20.126 44.8128 16.211 49.4496 14.094 55.008C11.977 60.6528 11.484 66.8736 12.383 72.8064C13.862 82.368 18.705 91.152 24.65 98.8416C30.595 106.531 37.671 113.242 44.37 120.269C48.807 124.819 49.909 132.451 56.956 136.973Z" fill="#C0E8A6"/>
<path opacity="0.7" d="M56.956 136.973C65.308 142.33 81.026 135.821 87 129.715C106.43 109.814 140.795 76.2048 134.154 41.184C131.312 26.2944 116.377 21.744 110.374 20.7936C95.932 18.5184 81.142 20.3616 66.816 23.184C51.852 26.1216 36.076 30.4704 24.505 40.8672C20.126 44.8128 16.211 49.4496 14.094 55.008C11.977 60.6528 11.484 66.8736 12.383 72.8064C13.862 82.368 18.705 91.152 24.65 98.8416C30.595 106.531 37.671 113.242 44.37 120.269C48.807 124.819 49.909 132.451 56.956 136.973Z" fill="white"/>
<path d="M12.557 45.648C13.195 44.8992 13.949 44.2368 14.761 43.6896L14.442 40.9824L18.734 39.4848L20.184 41.7888C21.17 41.7024 22.156 41.76 23.142 41.9616L24.853 39.8304L28.942 41.7888L28.333 44.4384C29.087 45.072 29.754 45.8208 30.305 46.6272L33.031 46.3104L34.539 50.5728L32.219 52.0128C32.306 52.992 32.248 53.9712 32.045 54.9504L34.191 56.6496L32.219 60.7104L29.551 60.1056C28.913 60.8544 28.159 61.5168 27.347 62.064L27.666 64.7712L23.374 66.24L21.924 63.936C20.938 64.0224 19.952 63.9648 18.966 63.7632L17.255 65.8944L13.137 63.9648L13.746 61.3152C12.992 60.6816 12.325 59.9328 11.774 59.1264L9.04804 59.4432L7.54004 55.1808L9.86004 53.7408C9.77304 52.7616 9.83104 51.7824 10.034 50.8032L7.88804 49.104L9.86004 45.0432L12.557 45.648ZM15.515 50.2272C14.036 53.2512 15.341 56.88 18.386 58.3488C21.431 59.8176 25.085 58.5216 26.564 55.4976C28.043 52.4736 26.738 48.8448 23.693 47.376C20.648 45.936 16.994 47.2032 15.515 50.2272Z" fill="#EBEBEB"/>
<path d="M116.319 87.696C116.957 86.9472 117.682 86.3136 118.494 85.7664L118.175 83.088L122.409 81.6192L123.859 83.8944C124.845 83.808 125.802 83.8656 126.759 84.0384L128.441 81.936L132.472 83.8656L131.863 86.4864C132.617 87.12 133.255 87.84 133.806 88.6464L136.503 88.3296L137.982 92.5344L135.691 93.9744C135.778 94.9536 135.72 95.904 135.546 96.8544L137.663 98.5248L135.749 102.528L133.11 101.923C132.472 102.672 131.747 103.306 130.935 103.853L131.254 106.531L127.02 108L125.57 105.725C124.584 105.811 123.627 105.754 122.67 105.581L120.988 107.683L116.957 105.754L117.566 103.133C116.812 102.499 116.174 101.779 115.623 100.973L112.926 101.29L111.447 97.0848L113.738 95.6448C113.651 94.6656 113.709 93.7152 113.883 92.7648L111.766 91.0944L113.709 87.0912L116.319 87.696ZM119.248 92.2176C117.798 95.2128 119.074 98.784 122.061 100.224C125.077 101.664 128.673 100.397 130.123 97.4304C131.573 94.4352 130.297 90.864 127.31 89.424C124.294 87.984 120.698 89.2512 119.248 92.2176Z" fill="#E0E0E0"/>
<path d="M113.97 47.4336C114.463 46.8576 115.014 46.368 115.652 45.936L115.42 43.8624L118.697 42.7392L119.799 44.496C120.553 44.4384 121.307 44.4672 122.061 44.6112L123.366 42.9984L126.498 44.496L126.034 46.512C126.614 47.0016 127.107 47.5488 127.542 48.1824L129.63 47.952L130.79 51.2064L129.021 52.3008C129.079 53.0496 129.05 53.7984 128.905 54.5472L130.529 55.8432L129.021 58.9536L126.991 58.4928C126.498 59.0688 125.947 59.5584 125.309 59.9904L125.541 62.064L122.264 63.216L121.162 61.4592C120.408 61.5168 119.654 61.488 118.9 61.344L117.595 62.9568L114.463 61.4592L114.927 59.4432C114.347 58.9536 113.854 58.4064 113.419 57.7728L111.331 58.0032L110.171 54.7488L111.94 53.6544C111.882 52.9056 111.911 52.1568 112.056 51.408L110.432 50.112L111.94 47.0016L113.97 47.4336ZM116.232 50.9472C115.101 53.2512 116.087 56.016 118.407 57.1392C120.727 58.2624 123.511 57.2832 124.642 54.9792C125.773 52.6752 124.787 49.9104 122.467 48.7872C120.147 47.664 117.363 48.6432 116.232 50.9472Z" fill="#EBEBEB"/>
<path d="M105.734 32.4576C106.053 32.0832 106.43 31.7376 106.865 31.4496L106.72 30.0672L108.924 29.2896L109.678 30.4704C110.171 30.4416 110.693 30.4704 111.186 30.5568L112.056 29.4624L114.144 30.4704L113.825 31.824C114.202 32.1408 114.55 32.544 114.84 32.9472L116.232 32.7744L117.015 34.9632L115.826 35.712C115.855 36.2016 115.826 36.72 115.739 37.2096L116.841 38.0736L115.826 40.1472L114.463 39.8304C114.144 40.2048 113.767 40.5504 113.332 40.8384L113.506 42.2208L111.302 42.9696L110.548 41.7888C110.055 41.8176 109.533 41.7888 109.04 41.7024L108.17 42.7968L106.082 41.7888L106.401 40.4352C106.024 40.1184 105.676 39.7152 105.386 39.312L103.994 39.4848L103.24 37.296L104.429 36.5472C104.4 36.0576 104.429 35.5392 104.516 35.0496L103.414 34.1856L104.429 32.112L105.734 32.4576ZM107.271 34.7904C106.517 36.3456 107.184 38.2176 108.75 38.9376C110.316 39.6576 112.201 39.024 112.926 37.4688C113.68 35.9136 113.013 34.0704 111.447 33.3216C109.881 32.6016 107.996 33.2352 107.271 34.7904Z" fill="#F5F5F5"/>
<path d="M29.377 108.029C29.696 107.654 30.102 107.309 30.508 107.021L30.334 105.638L32.538 104.89L33.292 106.07C33.785 106.042 34.307 106.07 34.8 106.157L35.67 105.062L37.758 106.07L37.439 107.424C37.816 107.741 38.164 108.115 38.454 108.547L39.846 108.374L40.6 110.563L39.411 111.312C39.44 111.802 39.411 112.32 39.324 112.81L40.426 113.674L39.411 115.776L38.048 115.459C37.729 115.834 37.323 116.179 36.917 116.467L37.091 117.85L34.887 118.598L34.133 117.418C33.64 117.446 33.118 117.418 32.625 117.331L31.755 118.426L29.667 117.418L29.986 116.064C29.609 115.747 29.261 115.373 28.971 114.941L27.579 115.085L26.825 112.896L28.014 112.147C27.985 111.658 28.014 111.139 28.101 110.65L26.999 109.786L28.014 107.712L29.377 108.029ZM30.885 110.362C30.131 111.917 30.798 113.789 32.364 114.509C33.93 115.258 35.815 114.595 36.54 113.04C37.294 111.485 36.627 109.642 35.09 108.893C33.524 108.173 31.668 108.806 30.885 110.362Z" fill="#F5F5F5"/>
<path d="M45.994 115.603C46.487 115.027 47.067 114.509 47.705 114.077L47.473 111.974L50.779 110.822L51.91 112.608C52.664 112.55 53.447 112.579 54.201 112.723L55.506 111.082L58.667 112.579L58.203 114.624C58.783 115.114 59.305 115.69 59.74 116.323L61.857 116.093L63.017 119.376L61.219 120.499C61.277 121.248 61.248 122.026 61.103 122.774L62.756 124.07L61.248 127.21L59.189 126.749C58.696 127.325 58.116 127.843 57.478 128.275L57.71 130.378L54.404 131.53L53.273 129.744C52.519 129.802 51.736 129.773 50.982 129.629L49.677 131.27L46.516 129.773L46.98 127.728C46.4 127.238 45.878 126.662 45.443 126.029L43.326 126.259L42.166 122.976L43.964 121.853C43.906 121.104 43.935 120.326 44.08 119.578L42.427 118.282L43.935 115.142L45.994 115.603ZM48.285 119.146C47.154 121.478 48.14 124.301 50.489 125.424C52.838 126.547 55.68 125.568 56.811 123.235C57.942 120.902 56.956 118.08 54.607 116.957C52.229 115.834 49.416 116.813 48.285 119.146Z" fill="#EBEBEB"/>
<path d="M25.259 70.5312C25.201 70.56 25.114 70.5888 25.056 70.5888C24.911 70.6176 24.708 70.6752 24.447 70.7328C23.722 70.9056 22.968 70.992 22.214 71.0496C17.139 71.424 12.209 69.408 8.90302 65.5776C8.41002 65.0016 7.94602 64.3968 7.56902 63.7632C7.42402 63.5328 7.33702 63.36 7.25002 63.2448C7.22102 63.1872 7.19202 63.1296 7.16302 63.0432C7.22102 63.1008 7.25002 63.1584 7.27902 63.216C7.36602 63.3312 7.45302 63.504 7.62702 63.7344C10.846 68.544 16.443 71.28 22.243 70.9344C22.997 70.8768 23.751 70.7904 24.476 70.6464C24.737 70.6176 24.94 70.56 25.085 70.5312C25.114 70.56 25.172 70.5312 25.259 70.5312Z" fill="#E0E0E0"/>
<path d="M19.517 72.6336C19.401 72.6336 19.314 72.6336 19.198 72.6336C18.995 72.6336 18.705 72.6048 18.357 72.576C17.429 72.4896 16.501 72.288 15.631 72C14.732 71.712 13.891 71.3376 13.079 70.8768C12.76 70.704 12.528 70.5312 12.354 70.416C12.267 70.3584 12.18 70.3008 12.122 70.2144C12.122 70.1856 12.499 70.416 13.137 70.7616C13.949 71.1936 14.79 71.5392 15.689 71.8272C16.559 72.1152 17.487 72.3168 18.386 72.4608C19.082 72.576 19.517 72.6048 19.517 72.6336Z" fill="#E0E0E0"/>
<path d="M53.476 41.6735C56.26 40.0031 59.276 38.7071 62.408 37.8143L64.235 29.0303L79.17 28.7711L81.316 37.4687C84.477 38.2463 87.522 39.4271 90.393 41.0111L97.933 36.0863L108.692 46.3967L104.023 54.0575C105.705 56.8223 107.01 59.8175 107.909 62.9279L116.754 64.7711L117.015 79.6031L108.257 81.7343C107.474 84.8735 106.285 87.8975 104.69 90.7199L109.649 98.2079L99.267 108.864L91.524 104.256C88.74 105.926 85.724 107.222 82.592 108.115L80.765 116.899L65.83 117.158L63.684 108.461C60.523 107.683 57.478 106.502 54.607 104.918L47.067 109.843L36.308 99.5615L40.977 91.9007C39.295 89.1359 37.99 86.1407 37.12 83.0303L28.275 81.2159L28.014 66.3839L36.772 64.2527C37.555 61.1135 38.744 58.0895 40.339 55.2671L35.38 47.7791L45.762 37.0943L53.476 41.6735ZM58 59.0687C50.286 67.0175 50.489 79.6895 58.493 87.3503C66.497 95.0111 79.257 94.8095 86.971 86.8607C94.685 78.9119 94.482 66.2399 86.478 58.5791C78.474 50.8895 65.743 51.1199 58 59.0687Z" fill="#EBEBEB"/>
<path d="M58 59.0688C58 59.0688 58.29 58.752 58.899 58.176C60.465 56.736 62.234 55.5552 64.177 54.6912C65.134 54.2592 66.149 53.8848 67.164 53.6256C69.658 52.9632 72.268 52.7616 74.849 53.0496C77.981 53.424 80.968 54.4896 83.607 56.2176C85.84 57.6864 87.754 59.5584 89.262 61.7472C89.784 62.5248 90.248 63.3312 90.683 64.1664C92.452 67.7376 93.09 71.7408 92.568 75.6864C92.423 76.7232 92.22 77.7312 91.901 78.7104C91.611 79.7184 91.234 80.6976 90.77 81.648C88.885 85.5648 85.782 88.7616 81.896 90.7776C80.968 91.2672 79.982 91.6704 78.967 92.016C77.981 92.3616 76.966 92.592 75.922 92.7648C71.978 93.4272 67.918 92.9376 64.264 91.3248C63.423 90.9504 62.582 90.4896 61.77 90C59.508 88.5888 57.565 86.7456 55.999 84.5856C54.172 82.0512 52.983 79.1136 52.519 76.0032C52.142 73.4688 52.229 70.8768 52.838 68.3712C53.07 67.3344 53.418 66.3264 53.824 65.3472C54.143 64.5408 54.549 63.7344 54.984 62.9568C55.593 61.8912 56.318 60.8832 57.13 59.9616C57.681 59.3856 58 59.0688 58 59.0688L57.768 59.2992C57.623 59.472 57.391 59.7024 57.13 60.0192C56.347 60.9408 55.622 61.9488 55.013 63.0144C54.578 63.792 54.172 64.5696 53.853 65.4048C53.447 66.384 53.128 67.3632 52.896 68.4C52.316 70.9056 52.229 73.4688 52.606 76.0032C53.07 79.0848 54.259 81.9936 56.086 84.528C57.101 85.9392 58.29 87.2064 59.624 88.3008C60.32 88.8768 61.045 89.3952 61.828 89.8848C62.611 90.3744 63.452 90.8064 64.293 91.1808C68.904 93.2256 74.095 93.456 78.88 91.872C79.866 91.5552 80.852 91.1232 81.78 90.6336C85.608 88.6464 88.711 85.4496 90.596 81.5616C91.06 80.6112 91.437 79.632 91.727 78.6528C92.017 77.6736 92.249 76.6656 92.394 75.6288C92.916 71.712 92.278 67.7376 90.538 64.1952C90.132 63.36 89.668 62.5536 89.146 61.8048C88.624 61.056 88.073 60.336 87.464 59.6736C86.304 58.3776 84.999 57.2544 83.549 56.304C80.939 54.576 77.952 53.5104 74.849 53.136C72.297 52.848 69.687 53.0208 67.193 53.6832C66.178 53.9424 65.163 54.3168 64.206 54.7488C62.263 55.6128 60.494 56.7648 58.928 58.176C58.609 58.4352 58.377 58.6944 58.232 58.8384L58 59.0688Z" fill="#263238"/>
<path d="M53.476 41.6736L45.733 37.0368H45.762C43.123 39.744 39.643 43.344 35.409 47.7216V47.664L40.368 55.152L40.397 55.1808L40.368 55.2096C38.802 58.032 37.613 61.056 36.83 64.1952V64.224H36.801L28.043 66.3552L28.072 66.2976C28.159 70.9632 28.246 75.9168 28.333 81.1296L28.275 81.072L37.091 82.9152H37.12V82.944C38.019 86.0544 39.324 89.0208 41.006 91.7856L41.035 91.8144L41.006 91.8432L36.337 99.504V99.4176L47.096 109.728H47.009L54.549 104.803L54.578 104.774L54.607 104.803C57.449 106.358 60.494 107.568 63.655 108.346H63.684V108.374C64.351 111.11 65.105 114.077 65.83 117.072L65.743 117.014L80.678 116.755L80.591 116.813C81.171 114.048 81.809 111.053 82.447 108.029V107.971H82.476C85.608 107.078 88.595 105.782 91.379 104.141L91.408 104.112L91.437 104.141L99.151 108.778H99.064L109.446 98.1216V98.208L104.516 90.72L104.487 90.6912L104.516 90.6624C106.111 87.84 107.3 84.816 108.112 81.6768V81.648H108.141L116.899 79.5168L116.841 79.6032C116.754 74.5344 116.667 69.6096 116.58 64.7712L116.638 64.8288L107.793 62.9856H107.764V62.9568C106.865 59.8464 105.589 56.88 103.878 54.0864L103.849 54.0576L103.878 54.0288L108.547 46.368V46.4544L97.817 36.144H97.875L90.335 41.0688L90.306 41.0976L90.277 41.0688C87.435 39.4848 84.39 38.304 81.229 37.5264H81.2V37.4976C80.417 34.3296 79.721 31.4784 79.054 28.8L79.083 28.8288L64.148 29.088L64.177 29.0592C63.423 32.5728 62.843 35.4528 62.321 37.8432C59.972 38.5056 57.681 39.3984 55.506 40.5216C54.781 40.896 54.259 41.184 53.911 41.3856C53.563 41.5872 53.389 41.6736 53.389 41.6736L53.911 41.3568C54.259 41.1552 54.781 40.8384 55.506 40.4928C57.681 39.3696 59.972 38.4768 62.321 37.7856L62.292 37.8144C62.785 35.424 63.394 32.544 64.119 29.0304V29.0016H64.148L79.083 28.7424H79.112V28.7712C79.779 31.4496 80.475 34.3008 81.258 37.4688L81.229 37.44C84.39 38.2176 87.464 39.3984 90.306 40.9824H90.248C92.655 39.4272 95.149 37.7856 97.788 36.0576L97.817 36.0288L97.846 36.0576L108.576 46.368L108.605 46.3968L108.576 46.4256L103.878 54.0864V54.0288C105.56 56.7936 106.865 59.7888 107.764 62.928L107.706 62.8704L116.551 64.6848H116.609V64.7424C116.696 69.552 116.783 74.5056 116.87 79.5744V79.632H116.812L108.054 81.7632L108.112 81.7056C107.329 84.8448 106.14 87.8976 104.545 90.72V90.6336C106.169 93.1104 107.822 95.616 109.504 98.1216L109.533 98.1792L109.504 98.208L99.122 108.864L99.093 108.893L99.035 108.864L91.321 104.227H91.408C88.624 105.898 85.608 107.194 82.476 108.086L82.534 108.029C81.896 111.053 81.258 114.048 80.678 116.813V116.87H80.62L65.685 117.13H65.627L65.598 117.072C64.844 114.077 64.119 111.082 63.452 108.374L63.51 108.432C60.349 107.654 57.275 106.474 54.433 104.89H54.52L46.98 109.814L46.922 109.843L46.893 109.814L36.163 99.504L36.134 99.4752L36.163 99.4176L40.832 91.7568V91.8144C39.15 89.0496 37.845 86.0544 36.946 82.9152L37.004 82.944L28.246 81.216H28.188V81.1584C28.101 75.9456 28.014 70.992 27.927 66.3264V66.2976H27.985L36.743 64.1664L36.714 64.1952C37.497 61.0272 38.715 58.0032 40.281 55.1808V55.2384L35.351 47.7504L35.322 47.7216L35.351 47.6928L45.733 37.0368H45.762H45.791L53.476 41.6736Z" fill="#263238"/>
<path d="M60.494 27.792C62.234 25.6896 64.96 24.5376 67.715 24.2208C68.875 24.0768 69.6 24.2784 70.731 24.5952C71.862 24.8544 72.848 25.5168 73.515 26.4384C74.298 27.5616 74.965 28.8 75.11 30.1536C75.313 31.536 75.371 32.9472 75.313 34.3584C75.255 35.7696 74.791 37.1232 74.008 38.304L70.412 38.9088C68.44 38.9664 66.439 39.0528 64.496 38.592C62.553 38.1312 60.697 37.1232 59.653 35.424C58.203 33.0912 58.754 29.8944 60.494 27.792Z" fill="#263238"/>
<path d="M72.79 40.3488C72.79 40.3488 72.848 40.4352 72.993 40.5216C73.225 40.6656 73.457 40.752 73.718 40.7808C74.124 40.8096 74.501 40.752 74.849 40.5504C75.719 40.032 76.038 38.9088 75.545 38.016C75.342 37.6704 75.052 37.4112 74.675 37.2384C74.443 37.1232 74.182 37.0656 73.921 37.0944C73.834 37.0944 73.718 37.0944 73.631 37.152C73.979 37.1808 74.298 37.2384 74.617 37.3824C74.936 37.5552 75.197 37.7856 75.371 38.1024C75.777 38.9088 75.516 39.888 74.762 40.3776C74.443 40.5504 74.095 40.6368 73.747 40.6368C73.399 40.5792 73.08 40.4928 72.79 40.3488Z" fill="#67A143"/>
<path d="M57.072 37.6992C57.13 36.864 57.594 36.144 58.29 35.6832C59.015 35.2512 59.914 35.3376 60.552 35.8848L61.103 36.5472C62.002 36.9504 62.524 37.872 62.437 38.8512C62.292 39.8304 61.625 40.608 60.668 40.896C59.74 41.1552 58.725 40.9248 58 40.2624C57.333 39.6 56.985 38.6496 57.072 37.6992Z" fill="#263238"/>
<path d="M57.797 40.0896C57.652 39.888 57.594 39.6288 57.594 39.3696C57.623 38.9088 57.971 38.3328 58.406 37.7568C58.812 37.296 59.305 36.8928 59.827 36.6048C60.233 36.3744 60.523 36.288 60.523 36.2592C60.262 36.288 60.001 36.3456 59.769 36.4896C59.189 36.7488 58.667 37.152 58.261 37.6416C58.029 37.9008 57.826 38.1888 57.681 38.5056C57.536 38.7648 57.478 39.0528 57.449 39.3408C57.449 39.5424 57.507 39.744 57.623 39.9168C57.71 40.0608 57.797 40.0896 57.797 40.0896Z" fill="#455A64"/>
<path d="M59.537 41.1264C59.595 41.1264 59.363 40.032 59.711 38.7648C60.059 37.4976 60.784 36.6624 60.726 36.6336C60.523 36.7776 60.378 36.9504 60.262 37.152C59.943 37.6128 59.682 38.16 59.537 38.7072C59.392 39.2544 59.334 39.8304 59.392 40.4064C59.363 40.6944 59.421 40.9248 59.537 41.1264Z" fill="#455A64"/>
<path d="M70.383 44.6688C70.354 43.4304 70.325 42.3936 70.325 42.3936C70.325 42.3936 73.254 42.0768 74.066 38.3616C74.472 36.5184 74.53 33.4368 74.53 30.9312C74.501 28.6848 72.587 25.6032 69.774 25.5744L68.527 25.4304L63.742 27.3312C63.046 27.36 62.495 27.9072 62.466 28.5984L62.437 44.7264L67.193 56.5344L70.238 51.1488L70.383 44.6688Z" fill="#A8605D"/>
<path d="M68.469 37.4976C68.527 37.0656 68.962 36.7488 69.397 36.8352C69.513 36.864 69.629 36.8928 69.745 36.9792C70.064 37.2096 70.209 37.6128 70.151 37.9872C69.977 38.2176 69.716 38.3616 69.455 38.3904C69.397 38.3904 69.368 38.3904 69.31 38.3904C69.078 38.3904 68.875 38.304 68.701 38.16C68.527 37.9584 68.44 37.728 68.469 37.4976Z" fill="#844949"/>
<path d="M73.428 33.8688C73.428 34.128 73.196 34.3296 72.935 34.3296C72.674 34.3296 72.471 34.128 72.471 33.8688C72.471 33.6096 72.703 33.408 72.964 33.408C73.196 33.408 73.428 33.6096 73.428 33.8688Z" fill="#263238"/>
<path d="M73.602 32.3424C73.544 32.4 73.196 32.112 72.674 32.0832C72.152 32.0544 71.746 32.2848 71.717 32.2272C71.688 32.1696 71.746 32.0832 71.92 31.968C72.152 31.824 72.442 31.7664 72.703 31.7664C72.964 31.7952 73.225 31.8816 73.457 32.0544C73.573 32.1984 73.631 32.3136 73.602 32.3424Z" fill="#263238"/>
<path d="M70.325 36.2592C70.615 36.2016 70.905 36.144 71.166 36.144C71.311 36.144 71.427 36.1152 71.456 36.0288C71.485 35.8848 71.456 35.7408 71.398 35.6256C71.282 35.3088 71.166 34.9632 71.05 34.5888C70.586 33.12 70.238 31.9104 70.325 31.9104C70.412 31.9104 70.818 33.0624 71.282 34.5312L71.601 35.568C71.688 35.7408 71.688 35.9136 71.63 36.0864C71.601 36.1728 71.514 36.2592 71.398 36.2592C71.311 36.288 71.253 36.288 71.166 36.288C70.905 36.3168 70.615 36.3168 70.325 36.2592Z" fill="#263238"/>
<path d="M70.354 42.3936C68.585 42.336 66.845 41.76 65.366 40.7808C65.366 40.7808 66.555 43.4592 70.383 43.3152L70.354 42.3936Z" fill="#844949"/>
<path d="M68.759 36.5184C68.846 36.5184 68.817 37.0944 69.281 37.4976C69.745 37.9008 70.354 37.9008 70.354 37.9584C70.354 37.9872 70.209 38.0736 69.948 38.0448C69.629 38.0448 69.31 37.9008 69.049 37.6704C68.817 37.4688 68.672 37.152 68.643 36.8352C68.672 36.6624 68.73 36.5184 68.759 36.5184Z" fill="#263238"/>
<path d="M73.486 30.4704C73.399 30.5856 73.022 30.4416 72.616 30.4128C72.21 30.384 71.804 30.4416 71.746 30.3264C71.717 30.2688 71.775 30.1536 71.949 30.0384C72.413 29.7792 72.964 29.8368 73.37 30.1536C73.486 30.2976 73.515 30.4128 73.486 30.4704Z" fill="#263238"/>
<path d="M67.686 33.6096C67.686 33.8688 67.889 34.0992 68.15 34.0992C68.411 34.128 68.643 33.9264 68.643 33.696C68.643 33.4368 68.44 33.2064 68.179 33.2064C67.947 33.1776 67.715 33.3504 67.686 33.6096Z" fill="#263238"/>
<path d="M66.439 32.1408C66.497 32.1984 66.874 31.9392 67.396 31.9392C67.918 31.9392 68.295 32.2272 68.353 32.1408C68.411 32.0544 68.324 31.9968 68.15 31.8816C67.918 31.7088 67.657 31.6224 67.396 31.6224C67.135 31.6224 66.845 31.7088 66.642 31.8528C66.468 31.9968 66.439 32.112 66.439 32.1408Z" fill="#263238"/>
<path d="M66.816 31.104C66.903 31.2192 67.28 31.104 67.715 31.104C68.15 31.104 68.527 31.1904 68.585 31.0752C68.614 31.0176 68.556 30.9024 68.411 30.7872C68.208 30.6432 67.947 30.5856 67.686 30.5856C67.425 30.5856 67.193 30.672 66.99 30.816C66.845 30.9312 66.787 31.0464 66.816 31.104Z" fill="#263238"/>
<path d="M62.466 33.8976L63.133 34.56C65.946 31.8816 71.485 25.1424 71.166 25.5456C69.89 25.056 68.498 24.912 67.135 25.1136C65.047 25.4592 61.045 26.496 61.103 28.9728C61.161 31.4496 62.466 33.8976 62.466 33.8976Z" fill="#263238"/>
<path d="M60.581 36.0288C60.61 35.8272 60.61 35.6256 60.61 35.424C60.639 34.8768 60.697 34.3584 60.813 33.84C61.219 32.112 62.06 30.4992 63.249 29.1744C64.438 27.8496 65.83 26.7264 67.367 25.8048C67.947 25.4592 68.44 25.1712 68.788 24.9984C68.962 24.912 69.136 24.8256 69.31 24.7104C69.252 24.7104 69.223 24.7392 69.165 24.768C69.078 24.8256 68.933 24.8544 68.759 24.9696C68.411 25.1424 67.918 25.4016 67.309 25.7472C65.743 26.64 64.322 27.7632 63.104 29.1168C61.915 30.4704 61.074 32.112 60.668 33.8688C60.552 34.3872 60.494 34.9344 60.494 35.4816C60.494 35.6832 60.523 35.8272 60.523 35.9136C60.552 35.9424 60.552 36 60.581 36.0288Z" fill="#455A64"/>
<path d="M67.686 24.5376C67.628 24.5376 67.57 24.5664 67.541 24.5952C67.454 24.624 67.309 24.6816 67.135 24.768C66.787 24.9408 66.265 25.1712 65.656 25.5168C64.931 25.92 64.235 26.352 63.568 26.8416C62.727 27.4176 61.973 28.08 61.277 28.8288C60.929 29.232 60.639 29.664 60.407 30.1536C60.204 30.5856 60.059 31.0752 59.972 31.5648C59.856 32.3712 59.856 33.2064 59.972 34.0128C60.059 34.56 60.146 35.1072 60.291 35.6256C60.32 35.8272 60.378 35.9712 60.407 36.0576C60.407 36.1152 60.436 36.144 60.465 36.2016C60.436 36 60.407 35.7984 60.378 35.5968C60.32 35.2224 60.204 34.6464 60.117 33.984C60.001 33.1776 60.03 32.3712 60.146 31.5648C60.233 31.104 60.378 30.6432 60.552 30.2112C60.784 29.7504 61.045 29.3184 61.393 28.944C62.06 28.1952 62.814 27.5616 63.626 26.9856C64.293 26.496 64.989 26.064 65.685 25.6608C66.294 25.3152 66.787 25.056 67.135 24.8832C67.338 24.768 67.512 24.6528 67.686 24.5376Z" fill="#455A64"/>
<path d="M62.408 33.984C62.524 33.8976 62.64 33.7824 62.756 33.6672L63.626 32.7456C64.351 31.968 65.337 30.8736 66.439 29.664C67.541 28.4544 68.498 27.3312 69.223 26.5248L70.064 25.5744C70.18 25.4592 70.267 25.344 70.354 25.2C70.238 25.2864 70.122 25.4016 70.035 25.5168L69.165 26.4384C68.44 27.216 67.425 28.3104 66.352 29.52C65.279 30.7296 64.264 31.8528 63.568 32.6592L62.727 33.6096C62.611 33.7248 62.495 33.84 62.408 33.984Z" fill="#455A64"/>
<path d="M63.017 34.992C63.017 34.704 62.727 34.0416 62.466 33.984C61.741 33.84 60.378 33.8112 60.262 35.6832C60.088 38.2464 62.727 37.872 62.727 37.7856C62.727 37.6992 62.988 35.9424 63.017 34.992Z" fill="#A8605D"/>
<path d="M62.205 36.7488C62.205 36.7488 62.147 36.7776 62.089 36.8064C61.973 36.8352 61.857 36.8352 61.77 36.8064C61.509 36.6912 61.306 36.2592 61.306 35.7984C61.306 35.568 61.364 35.3664 61.48 35.1648C61.538 34.992 61.683 34.8768 61.828 34.848C61.944 34.8192 62.031 34.8768 62.089 34.992C62.118 35.0784 62.089 35.1072 62.118 35.1072C62.147 35.1072 62.176 35.0784 62.147 34.9632C62.147 34.9056 62.118 34.848 62.06 34.7904C62.002 34.7328 61.915 34.704 61.799 34.704C61.567 34.7328 61.393 34.8768 61.306 35.0784C61.19 35.28 61.103 35.5392 61.103 35.7696C61.074 36.288 61.335 36.7776 61.683 36.9216C61.828 36.9792 61.973 36.9504 62.089 36.8928C62.176 36.8064 62.205 36.7488 62.205 36.7488Z" fill="#844949"/>
<path d="M62.524 40.5504C62.524 40.5504 62.466 40.6368 62.321 40.7232C62.089 40.8672 61.857 40.9536 61.567 40.9824C61.161 41.0112 60.784 40.9536 60.436 40.752C59.566 40.2336 59.247 39.1104 59.74 38.2176C59.943 37.872 60.233 37.6128 60.61 37.44C60.842 37.3248 61.103 37.2672 61.364 37.296C61.538 37.296 61.654 37.3248 61.654 37.3536C61.306 37.3824 60.987 37.44 60.668 37.584C60.349 37.7568 60.088 38.016 59.914 38.304C59.711 38.6784 59.653 39.1392 59.769 39.5712C59.885 40.0032 60.146 40.3488 60.523 40.5792C60.842 40.752 61.19 40.8384 61.538 40.8384C61.915 40.8096 62.234 40.7232 62.524 40.5504Z" fill="#67A143"/>
<path d="M77.024 116.093L76.125 108.374L68.904 110.362L70.731 117.792L77.024 116.093Z" fill="#A8605D"/>
<path d="M77.111 116.064L78.329 125.078L81.374 131.933C81.577 132.394 81.374 132.97 80.881 133.171C80.852 133.171 80.852 133.171 80.823 133.2C80.533 133.315 80.214 133.258 79.982 133.085C78.387 131.99 72.558 127.93 72.5 127.238C72.442 126.461 70.586 117.821 70.586 117.821L77.111 116.064Z" fill="#67A143"/>
<g opacity="0.6">
<path d="M80.823 133.2L72.413 126.634L72.471 127.008C72.529 127.325 72.674 127.642 72.935 127.843C73.631 128.419 75.545 129.974 79.924 133.056C80.185 133.258 80.504 133.315 80.823 133.2Z" fill="white"/>
</g>
<g opacity="0.6">
<path d="M73.805 123.466C74.066 123.61 74.182 123.898 74.066 124.157C73.95 124.416 73.631 124.531 73.37 124.416C73.109 124.272 72.964 123.955 73.08 123.667C73.254 123.408 73.573 123.322 73.834 123.466" fill="white"/>
</g>
<path d="M78.126 129.6C78.184 129.629 78.3 129.11 78.822 128.765C79.344 128.419 79.837 128.448 79.837 128.39C79.837 128.333 79.721 128.304 79.489 128.304C79.199 128.304 78.938 128.419 78.706 128.563C78.474 128.736 78.3 128.938 78.184 129.226C78.097 129.456 78.097 129.6 78.126 129.6Z" fill="#263238"/>
<path d="M78.967 130.694C79.025 130.723 79.257 130.378 79.721 130.176C80.185 129.974 80.591 129.974 80.591 129.917C80.591 129.859 80.156 129.744 79.634 130.003C79.112 130.262 78.909 130.694 78.967 130.694Z" fill="#263238"/>
<path d="M76.676 128.246C76.734 128.275 77.111 127.757 77.778 127.382C78.445 127.008 79.083 126.922 79.083 126.864C79.083 126.806 78.387 126.806 77.691 127.21C76.995 127.613 76.647 128.218 76.676 128.246Z" fill="#263238"/>
<path d="M76.067 125.539C76.096 125.597 76.56 125.309 77.227 125.165C77.894 125.021 78.416 125.107 78.416 125.05C78.416 124.992 77.865 124.819 77.169 124.963C76.473 125.107 76.038 125.482 76.067 125.539Z" fill="#263238"/>
<path d="M75.661 122.89C75.69 122.947 76.154 122.573 76.85 122.486C77.546 122.4 78.068 122.659 78.097 122.602C78.126 122.544 77.981 122.486 77.778 122.4C77.488 122.285 77.169 122.256 76.85 122.285C76.531 122.314 76.241 122.429 75.98 122.602C75.719 122.746 75.632 122.89 75.661 122.89Z" fill="#263238"/>
<path d="M76.734 121.997C76.734 121.882 76.734 121.766 76.705 121.651C76.618 121.334 76.473 121.046 76.299 120.816C76.183 120.614 75.98 120.47 75.777 120.384C75.632 120.355 75.458 120.413 75.371 120.528C75.284 120.643 75.255 120.816 75.284 120.96C75.429 121.565 75.98 121.997 76.618 121.997C77.227 121.968 77.778 121.565 77.981 120.96C78.039 120.816 78.01 120.643 77.952 120.528C77.865 120.413 77.691 120.355 77.546 120.384C77.343 120.47 77.14 120.614 76.995 120.787C76.792 121.018 76.618 121.277 76.473 121.594C76.415 121.709 76.386 121.824 76.386 121.91C76.56 121.536 76.792 121.19 77.082 120.874C77.227 120.73 77.372 120.614 77.575 120.528C77.662 120.499 77.749 120.528 77.807 120.614C77.836 120.701 77.836 120.816 77.807 120.902C77.604 121.392 77.14 121.738 76.618 121.766C76.067 121.795 75.603 121.421 75.458 120.902C75.429 120.816 75.458 120.701 75.487 120.614C75.545 120.528 75.632 120.499 75.719 120.528C75.893 120.586 76.067 120.73 76.183 120.874C76.415 121.219 76.618 121.594 76.734 121.997Z" fill="#263238"/>
<path d="M99.47 72.5472C93.09 71.3952 79.953 74.592 79.953 74.592L77.14 71.3952H62.35L59.769 77.3856L66.787 87.7536L68.44 93.8592C68.44 93.8592 75.371 92.7648 75.081 92.7936C74.791 92.8224 79.518 91.8144 79.808 91.7856C91.379 90.2304 97.527 85.392 100.978 81.9648C104.487 78.4224 101.906 72.9792 99.47 72.5472Z" fill="#263238"/>
<path d="M69.629 94.8384C69.6 94.6368 69.513 94.0896 69.31 92.9376C69.194 92.3328 69.078 91.584 68.904 90.72C68.817 90.288 68.73 89.8272 68.614 89.3664C68.556 89.136 68.498 88.8768 68.44 88.6176C68.411 88.5024 68.353 88.3584 68.324 88.2432C68.295 88.0992 68.208 87.984 68.121 87.8688L68.092 87.9552C70.847 86.976 74.269 85.7088 77.952 84.1824C80.214 83.232 82.331 82.2816 84.187 81.2736C85.086 80.8128 85.927 80.2944 86.739 79.6896C87.493 79.1424 88.189 78.5664 88.798 78.1056C89.755 77.2992 90.857 76.6656 92.046 76.2048C92.249 76.1472 92.423 76.0896 92.626 76.032C92.771 76.0032 92.916 75.9744 93.061 75.9456L93.322 75.888C93.351 75.888 93.38 75.888 93.409 75.8592C93.38 75.8592 93.351 75.8592 93.322 75.8592L93.061 75.888C92.916 75.9168 92.771 75.9168 92.626 75.9744C92.423 76.0032 92.249 76.0608 92.046 76.1184C91.524 76.2912 91.031 76.5216 90.567 76.7808C89.929 77.1264 89.349 77.5296 88.769 77.9904C88.131 78.48 87.435 79.0272 86.681 79.5744C85.869 80.1504 85.028 80.6688 84.129 81.1296C82.273 82.1088 80.127 83.088 77.894 84.0384C74.24 85.5648 70.818 86.8608 68.063 87.84L67.976 87.8688L68.034 87.9264C68.121 88.0128 68.179 88.128 68.208 88.2432C68.266 88.3584 68.295 88.5024 68.324 88.6176C68.411 88.8768 68.469 89.1072 68.498 89.3376C68.614 89.7984 68.701 90.2592 68.788 90.6912C68.962 91.5552 69.107 92.2752 69.194 92.88C69.281 93.4848 69.397 93.9456 69.455 94.2912C69.484 94.464 69.513 94.5792 69.542 94.6656C69.571 94.752 69.629 94.8384 69.629 94.8384Z" fill="#455A64"/>
<path d="M60.523 72.576L60.407 74.5344C60.407 74.5344 58.754 77.6448 58.58 80.4384C58.493 82.0512 58.464 84.4704 58.435 86.1696C58.435 87.552 58.812 88.9056 59.537 90.0864L63.916 94.1184L66.613 104.054L70.093 116.064L77.343 114.192L76.299 88.9632C76.27 85.5072 74.704 81.4752 72.703 77.2704L72.007 71.712L60.523 72.576Z" fill="#263238"/>
<path d="M77.372 110.621C77.372 110.592 77.343 110.563 77.343 110.506C77.343 110.419 77.343 110.333 77.314 110.189C77.285 109.901 77.285 109.498 77.227 108.979C77.169 107.914 77.082 106.387 76.966 104.515C76.763 100.714 76.502 95.5008 76.212 89.7408C76.125 88.3008 76.154 86.8896 75.835 85.5648C75.545 84.2976 75.052 83.088 74.356 81.9648C73.718 80.9568 72.964 80.064 72.065 79.3152C71.282 78.6528 70.383 78.1056 69.455 77.6736C68.092 77.04 66.613 76.6944 65.134 76.608C64.728 76.5792 64.322 76.5792 63.916 76.608H63.597H63.51C64.061 76.5216 64.612 76.4928 65.163 76.5216C66.671 76.5792 68.179 76.896 69.542 77.5296C70.499 77.9616 71.398 78.5088 72.21 79.1712C73.138 79.9488 73.921 80.8416 74.559 81.8784C75.255 83.0016 75.777 84.24 76.067 85.5072C76.386 86.8608 76.357 88.272 76.444 89.712C76.705 95.472 76.966 100.685 77.14 104.486C77.227 106.358 77.285 107.885 77.314 108.95C77.343 109.469 77.343 109.872 77.343 110.16C77.343 110.304 77.343 110.39 77.343 110.477C77.372 110.563 77.372 110.592 77.372 110.621Z" fill="#455A64"/>
<path d="M72.355 94.8672C72.297 94.8384 72.761 93.8016 73.341 92.5344C73.921 91.2672 74.472 90.288 74.53 90.288C74.588 90.288 74.124 91.3536 73.515 92.6208C72.906 93.888 72.413 94.896 72.355 94.8672Z" fill="#455A64"/>
<path d="M67.309 91.44C67.367 91.4112 67.599 91.9008 67.831 92.5344C68.063 93.168 68.208 93.6576 68.15 93.6864C68.092 93.7152 67.86 93.2256 67.628 92.592C67.396 91.9584 67.251 91.44 67.309 91.44Z" fill="#455A64"/>
<path d="M63.684 88.4448C63.713 88.5024 63.713 88.5888 63.713 88.6464C63.713 88.7904 63.742 88.992 63.742 89.2224C63.771 89.7408 63.8 90.4608 63.858 91.3536C63.887 93.1392 64.438 95.5584 65.047 98.2368C65.656 100.915 66.323 103.277 66.816 105.005C67.077 105.869 67.309 106.56 67.454 107.021C67.541 107.251 67.628 107.51 67.715 107.77C67.686 107.712 67.657 107.654 67.628 107.597C67.57 107.482 67.483 107.309 67.396 107.078C67.222 106.618 66.961 105.926 66.671 105.062C66.12 103.363 65.453 100.973 64.815 98.2944C64.177 95.616 63.684 93.1968 63.684 91.3824C63.655 90.4896 63.655 89.7696 63.626 89.2512C63.626 89.0208 63.626 88.8192 63.626 88.6752C63.655 88.5888 63.655 88.5024 63.684 88.4448Z" fill="#455A64"/>
<path d="M80.069 76.032C80.098 76.0608 79.663 76.2336 79.083 76.6944C78.358 77.2704 77.749 78.0192 77.314 78.8544C76.908 79.6896 76.618 80.6112 76.502 81.5328C76.415 82.2528 76.386 82.6848 76.357 82.6848C76.328 82.5696 76.328 82.4832 76.328 82.368C76.328 82.08 76.328 81.792 76.357 81.504C76.444 80.5536 76.705 79.6032 77.14 78.7392C77.575 77.8752 78.213 77.1264 78.996 76.5504C79.228 76.3776 79.489 76.2336 79.75 76.1184C79.866 76.0896 79.953 76.0608 80.069 76.032Z" fill="#455A64"/>
<path d="M90.915 75.456C90.944 75.5136 90.306 76.032 89.668 76.8096C89.03 77.5872 88.624 78.336 88.566 78.2784C88.508 78.2208 88.827 77.472 89.494 76.6656C90.161 75.8592 90.886 75.4272 90.915 75.456Z" fill="#455A64"/>
<path d="M73.747 80.928C73.718 80.928 73.747 80.4096 73.718 79.6032C73.66 78.5376 73.544 77.472 73.341 76.4064L72.732 73.2384C72.645 72.8064 72.558 72.3456 72.529 71.9136C72.674 72.3456 72.79 72.7776 72.877 73.2096C73.051 74.016 73.312 75.1392 73.544 76.3776C73.747 77.4432 73.863 78.5088 73.863 79.6032C73.863 79.92 73.834 80.2656 73.805 80.5824C73.805 80.6976 73.805 80.8128 73.747 80.928Z" fill="#455A64"/>
<path d="M73.718 72.432C73.718 72.432 73.747 72.3744 73.863 72.3456C74.008 72.3168 74.153 72.3456 74.269 72.4032C74.472 72.5184 74.617 72.72 74.617 72.9504C74.617 73.2384 74.443 73.4976 74.182 73.584C73.921 73.6704 73.602 73.584 73.457 73.3248C73.312 73.152 73.312 72.8928 73.428 72.6912C73.457 72.576 73.573 72.4608 73.718 72.432C73.805 72.4032 73.834 72.4032 73.863 72.432C73.892 72.4608 73.631 72.5184 73.515 72.7776C73.428 73.008 73.544 73.296 73.776 73.3824C73.863 73.4112 73.979 73.44 74.095 73.3824C74.269 73.296 74.414 73.152 74.414 72.9504C74.414 72.7776 74.327 72.6336 74.211 72.5472C74.066 72.4608 73.892 72.4032 73.718 72.432Z" fill="#455A64"/>
<path d="M74.53 45.5328C74.53 45.5328 79.228 47.1744 79.75 50.112C80.272 53.0496 82.679 63.5328 82.679 63.5328L96.889 65.376L95.236 69.2064C95.236 69.2064 79.257 70.0128 78.503 69.2064C77.749 68.4 74.53 45.5328 74.53 45.5328Z" fill="#455A64"/>
<path d="M60.117 72.6624C60.32 71.6544 60.581 70.6752 60.9 69.696L58.522 51.8112L56.869 45.8496L62.205 44.4096C64.148 47.4048 69.89 47.6352 70.731 44.4096L74.53 45.5328C74.53 45.5328 80.127 55.584 79.866 59.0976C79.576 62.9568 80.823 69.1776 80.823 69.1776C80.823 69.1776 80.968 71.2224 79.518 72.2016L60.117 72.6624Z" fill="#455A64"/>
<path d="M56.869 45.8496C56.869 45.8496 53.882 47.4048 53.157 50.3136C52.635 52.416 52.026 65.4912 53.157 67.7664C54.288 70.0416 55.158 71.4816 57.565 71.8848C59.972 72.288 74.82 71.6832 74.82 71.6832L75.632 65.9808L59.769 63.648C59.769 63.648 59.363 51.9264 59.189 51.12" fill="#455A64"/>
<path d="M62.205 44.4384C62.205 44.4384 61.944 43.2288 62.205 43.1136C62.466 42.9984 70.818 43.344 70.876 43.632C70.905 44.0352 70.905 44.4384 70.876 44.8416C70.876 44.8416 69.977 47.088 67.86 47.232C65.743 47.376 62.321 45.2448 62.205 44.4384Z" fill="#455A64"/>
<path d="M77.43 66.7296L81.548 66.4416L83.52 67.7664L85.231 70.0416C85.057 70.272 84.767 70.3584 84.506 70.2432L85.144 70.992C84.999 71.28 84.68 71.3664 84.39 71.2512C84.39 71.2512 84.361 71.2512 84.361 71.2224L84.767 71.8272C84.332 71.9712 83.839 71.7984 83.578 71.424C83.172 70.848 82.737 70.3008 82.244 69.8112L80.736 69.3216L82.215 70.7904L83.027 72.0864C83.027 72.0864 82.882 72.4896 82.592 72.3168C82.186 71.9424 81.809 71.5392 81.461 71.1072L79.721 70.0128C79.721 70.0128 78.503 70.56 78.097 70.56C77.691 70.56 76.473 69.7824 76.473 69.7824L75.284 70.56L75.603 66.4704L77.43 66.7296Z" fill="#A8605D"/>
<path d="M85.173 70.992C84.999 70.8192 84.825 70.6176 84.68 70.416C84.39 70.0416 83.984 69.5232 83.549 68.9472L83.143 68.4L83.172 68.4288C82.708 68.1408 82.273 67.8816 82.012 67.7088C81.838 67.6224 81.693 67.5072 81.577 67.392C81.751 67.4496 81.925 67.536 82.07 67.6224C82.36 67.7952 82.795 68.0256 83.288 68.3136L83.723 68.8608C84.158 69.4368 84.535 69.984 84.825 70.3584C84.912 70.5312 85.057 70.7616 85.173 70.992Z" fill="#844949"/>
<path d="M84.68 71.6832C84.506 71.5104 84.361 71.3376 84.245 71.136C83.984 70.7904 83.636 70.3008 83.259 69.7536L82.882 69.2064L82.911 69.2352C82.389 69.0048 81.867 68.7456 81.374 68.4288C81.925 68.6016 82.447 68.832 82.969 69.0912H82.998V69.12L83.375 69.6672C83.752 70.2144 84.071 70.704 84.303 71.0784C84.448 71.2512 84.593 71.4528 84.68 71.6832Z" fill="#844949"/>
<path d="M60.03 71.9712C60.059 71.9712 60.088 71.9712 60.088 71.9712H60.291L61.132 71.9424L64.235 71.8848L75.168 71.712L75.11 71.7696C75.255 69.984 75.4 68.0544 75.574 66.0096L75.632 66.096L71.804 65.52L59.769 63.7344H59.711V63.648C59.827 60.624 59.798 57.5712 59.566 54.5472C59.479 53.4528 59.392 52.5888 59.305 52.0128C59.276 51.7248 59.247 51.4944 59.218 51.3504C59.218 51.264 59.218 51.2352 59.189 51.1776C59.16 51.12 59.189 51.12 59.189 51.12C59.189 51.12 59.189 51.1488 59.189 51.1776C59.189 51.2064 59.218 51.2928 59.218 51.3504C59.247 51.4944 59.276 51.7248 59.305 52.0128C59.392 52.5888 59.479 53.4528 59.595 54.5472C59.856 57.5712 59.943 60.5952 59.798 63.648L59.74 63.5904L71.775 65.3472L75.603 65.9232H75.661V65.9808C75.487 67.9968 75.342 69.9552 75.168 71.7408V71.7984H75.11L64.177 71.9136L61.074 71.9424L60.03 71.9712Z" fill="#263238"/>
<path d="M70.876 43.6032C70.905 43.7472 70.905 43.8624 70.905 44.0064C70.905 44.1504 70.905 44.2944 70.905 44.496C70.905 44.7264 70.847 44.928 70.789 45.1296C70.615 45.3312 70.354 45.4752 70.093 45.5328C69.803 45.6192 69.513 45.6768 69.194 45.7056C68.527 45.8208 67.831 45.8784 67.135 45.8784C65.888 45.8784 64.641 45.6768 63.452 45.3024C63.075 45.1872 62.727 45.0432 62.437 44.8128C62.35 44.7552 62.292 44.6688 62.205 44.6112C62.176 44.5824 62.147 44.5536 62.147 44.5248C62.147 44.5248 62.263 44.64 62.466 44.784C62.785 44.9856 63.133 45.1296 63.481 45.216C64.67 45.5616 65.917 45.7344 67.135 45.7344C67.802 45.7344 68.498 45.7056 69.165 45.5904C69.455 45.5616 69.745 45.504 70.035 45.4176C70.151 45.3888 70.296 45.3312 70.412 45.2736C70.47 45.2448 70.528 45.216 70.557 45.1872C70.615 45.1584 70.644 45.1296 70.673 45.072C70.76 44.8704 70.789 44.6688 70.818 44.4672C70.847 44.2944 70.847 44.1216 70.847 43.9776C70.847 43.8912 70.847 43.7472 70.876 43.6032Z" fill="#263238"/>
<path d="M63.568 45.3024C63.307 45.0144 63.162 44.64 63.133 44.2368C63.075 43.8624 63.133 43.4592 63.336 43.1136C63.278 43.488 63.278 43.8624 63.278 44.208C63.365 44.6112 63.452 44.9568 63.568 45.3024Z" fill="#263238"/>
<path d="M65.279 43.1424C65.337 43.1424 65.221 43.7184 65.25 44.4096C65.279 45.1008 65.395 45.6768 65.337 45.6768C65.047 44.8704 65.018 43.9776 65.279 43.1424Z" fill="#263238"/>
<path d="M67.454 45.792C67.396 45.3888 67.367 44.9568 67.396 44.5248C67.367 44.0928 67.396 43.6896 67.483 43.2576C67.541 43.6608 67.57 44.0928 67.541 44.5248C67.57 44.9568 67.541 45.3888 67.454 45.792Z" fill="#263238"/>
<path d="M69.832 43.488C69.948 43.8624 69.948 44.2368 69.89 44.6112C69.861 44.9856 69.745 45.36 69.513 45.6768C69.484 45.648 69.658 45.1872 69.745 44.6112C69.832 44.0352 69.774 43.488 69.832 43.488Z" fill="#263238"/>
<path d="M77.14 61.488C77.14 61.344 77.14 61.2288 77.169 61.0848C77.198 60.8256 77.256 60.4512 77.314 59.9904C77.546 58.8096 77.575 57.6 77.459 56.3904C77.314 55.1808 77.053 54 76.705 52.848C76.589 52.416 76.473 52.0704 76.415 51.7824C76.386 51.6672 76.328 51.5232 76.328 51.3792C76.386 51.4944 76.444 51.6096 76.473 51.7536C76.56 52.0128 76.676 52.3584 76.821 52.7904C77.198 53.9424 77.488 55.1232 77.633 56.3328C77.749 57.5424 77.691 58.7808 77.43 59.9616C77.343 60.3936 77.285 60.768 77.227 61.056C77.227 61.2288 77.169 61.3728 77.14 61.488Z" fill="#263238"/>
<path d="M99.615 60.3648L93.873 73.008C93.554 73.5552 92.974 73.9296 92.336 73.9584L65.801 73.9296C65.859 73.3824 66.323 72.9504 66.903 72.9504L76.966 72.72L82.128 60.4224C82.302 60.0192 82.679 59.76 83.114 59.76L99.18 59.6448C99.47 59.6448 99.673 59.8752 99.702 60.1344C99.644 60.2208 99.644 60.3072 99.615 60.3648Z" fill="#E0E0E0"/>
<path d="M99.615 60.3648C99.644 60.3072 99.644 60.2784 99.673 60.2208C99.702 60.0768 99.644 59.904 99.528 59.7888C99.441 59.7024 99.325 59.6448 99.209 59.6448C99.093 59.6448 98.948 59.6448 98.803 59.6448H97.788L91.176 59.6736L86.536 59.7024H83.926H83.23C82.998 59.6736 82.737 59.7312 82.534 59.8464C82.331 59.9616 82.157 60.1632 82.041 60.3936C81.954 60.624 81.867 60.8256 81.751 61.056C80.272 64.5696 78.619 68.4864 76.85 72.6912L76.908 72.6336L71.456 72.7488L68.614 72.8064L67.164 72.8352H66.787C66.178 72.864 65.685 73.296 65.627 73.9008V73.9872H65.714L82.244 74.016H91.93C92.075 74.016 92.191 74.016 92.336 74.016C92.481 74.016 92.597 73.9872 92.742 73.9296C93.264 73.7856 93.67 73.4112 93.902 72.9216C94.105 72.4608 94.308 72.0288 94.511 71.5968C96.077 68.112 97.353 65.3184 98.223 63.36L99.238 61.1136L99.499 60.5376C99.586 60.4224 99.615 60.3648 99.615 60.3648L99.528 60.5376C99.47 60.6816 99.383 60.8544 99.267 61.1136C99.035 61.632 98.687 62.3808 98.252 63.3312L94.482 71.5392L93.873 72.864C93.67 73.3248 93.264 73.6416 92.771 73.7856C92.51 73.8432 92.249 73.872 92.017 73.872H89.552L82.331 73.8432L65.801 73.8144L65.888 73.9008C65.917 73.7568 65.975 73.584 66.033 73.4688C66.149 73.2672 66.352 73.1232 66.555 73.0656C66.671 73.0368 66.758 73.008 66.874 73.008H67.251L68.701 72.9792L71.543 72.9216L76.995 72.8064H77.053L77.082 72.7488C78.851 68.544 80.475 64.6272 81.954 61.1136C82.041 60.8832 82.128 60.6816 82.244 60.4512C82.331 60.2496 82.476 60.0768 82.679 59.9616C82.882 59.8464 83.085 59.8176 83.317 59.8176H84.013L86.623 59.7888L91.263 59.76L97.875 59.6736L98.89 59.6448C99.035 59.6448 99.18 59.6448 99.296 59.6448C99.412 59.6448 99.499 59.7024 99.586 59.7888C99.702 59.904 99.76 60.048 99.731 60.192C99.644 60.2784 99.615 60.336 99.615 60.3648Z" fill="#263238"/>
<path d="M77.43 74.0736C77.459 74.0448 77.488 73.9872 77.517 73.9296C77.575 73.8144 77.633 73.6704 77.72 73.5264C77.894 73.152 78.126 72.6336 78.387 72C78.938 70.7328 79.721 68.9472 80.533 66.96C81.345 64.9728 82.099 63.1872 82.592 61.8912C82.853 61.2288 83.027 60.7104 83.172 60.336C83.23 60.1632 83.288 60.0192 83.317 59.904C83.346 59.8464 83.346 59.8176 83.346 59.76C83.317 59.7888 83.288 59.8464 83.259 59.904L83.085 60.3072L82.447 61.8336C81.896 63.1584 81.171 64.9152 80.359 66.8736C79.547 68.832 78.793 70.6176 78.271 71.9136C78.01 72.5472 77.807 73.0656 77.633 73.44L77.459 73.872C77.459 73.9872 77.43 74.016 77.43 74.0736Z" fill="#455A64"/>
<path d="M87.841 66.4992C87.841 66.96 88.218 67.3056 88.653 67.3056C89.117 67.3056 89.465 66.9312 89.465 66.4992C89.465 66.0384 89.088 65.6928 88.653 65.6928C88.218 65.6928 87.841 66.0384 87.841 66.4992Z" fill="white"/>
<path d="M95.99 68.4288C96.367 68.3712 96.744 68.2272 97.092 68.0832C97.324 67.9104 97.44 67.6512 97.411 67.392L97.353 67.1904C97.353 67.1904 98.049 66.6144 97.933 66.1248C97.933 66.1248 98.6 65.5776 98.368 65.0592C98.368 65.0592 98.977 64.6848 98.774 64.3104C98.542 63.9648 98.136 63.7344 97.701 63.7056C97.382 63.6768 96.367 63.4752 96.28 63.6192C96.28 63.6192 96.019 64.0224 96.251 64.1952L96.57 64.4544C96.57 64.4544 95.671 64.224 95.526 64.4256C95.381 64.6272 95.236 65.0016 95.584 65.1744C95.584 65.1744 95.207 65.232 95.207 65.4624C95.207 65.6928 95.236 65.952 95.468 66.0384C95.7 66.1248 95.932 66.2112 95.932 66.2112C95.932 66.2112 95.555 66.1536 95.555 66.3552C95.555 66.5568 95.468 66.7008 95.7 66.9312C95.932 67.1616 96.367 67.6224 96.367 67.6224L95.99 68.4288Z" fill="#A8605D"/>
<path d="M95.961 66.2112C95.961 66.2112 96.077 66.2112 96.222 66.24C96.425 66.2688 96.628 66.3552 96.802 66.4704C96.976 66.5856 97.121 66.7584 97.237 66.9312C97.324 67.0752 97.353 67.1904 97.353 67.1616C97.353 67.0752 97.324 66.9888 97.266 66.9024C97.179 66.7008 97.034 66.528 96.831 66.384C96.657 66.24 96.425 66.1824 96.193 66.1536C96.164 66.1824 96.048 66.1824 95.961 66.2112Z" fill="#844949"/>
<path d="M97.962 66.0384C97.875 65.952 97.788 65.8656 97.672 65.7792C97.44 65.6064 97.15 65.4624 96.889 65.3472C96.599 65.232 96.309 65.1744 95.99 65.1168C95.874 65.088 95.729 65.088 95.613 65.1168C96.019 65.1744 96.454 65.2608 96.86 65.4048C97.237 65.6064 97.614 65.808 97.962 66.0384Z" fill="#844949"/>
<path d="M98.397 65.0016C97.846 64.656 97.208 64.4544 96.57 64.3968C96.57 64.4256 97.005 64.4832 97.498 64.656C97.991 64.8288 98.397 65.0304 98.397 65.0016Z" fill="#844949"/>
<path d="M27.028 101.462C27.347 102.643 27.579 103.853 27.666 105.062C27.637 105.12 27.637 105.35 27.666 105.293C27.666 105.494 27.985 105.466 27.985 105.264C27.985 105.149 27.985 105.005 27.985 104.89C28.681 104.026 29.725 103.45 30.537 102.701C31.204 102.096 31.697 101.347 31.929 100.483C32.625 98.1216 31.987 95.616 32.799 93.2832C33.524 91.2672 34.8 89.4816 35.873 87.6672C37.004 85.7088 37.845 83.6928 37.932 81.4176C37.99 79.6896 37.787 77.3568 36.453 76.0608C35.032 74.6784 33.292 75.7152 32.19 76.9536C29.058 80.5248 27.608 85.0752 26.999 89.6832C26.68 92.2464 26.332 94.8384 26.419 97.4016C26.506 98.7264 26.709 100.109 27.028 101.462Z" fill="#67A143"/>
<path d="M27.637 105.984C27.463 103.565 27.492 101.146 27.724 98.7264V98.6976C27.695 96.7392 27.521 94.7808 27.608 92.8224C27.695 90.6912 27.985 88.5888 28.478 86.5152C28.478 86.4864 28.536 86.4864 28.507 86.5152C28.13 88.56 27.898 90.6048 27.811 92.6784C27.782 93.8016 27.782 94.896 27.84 95.9904C27.869 96.3648 27.898 96.7104 27.927 97.0848C28.739 91.584 30.769 86.3136 33.814 81.648C33.872 81.5904 33.959 81.648 33.93 81.7344C31.755 85.2768 30.131 89.136 29.145 93.1968C30.653 90.4032 32.944 88.128 34.626 85.4496H34.655C33.118 88.416 30.624 90.7776 29.029 93.7152C28.739 94.896 28.536 96.1056 28.362 97.3152C28.13 98.9856 28.014 100.656 27.985 102.326C28.913 100.627 29.87 98.9856 30.624 97.1712C30.653 97.1136 30.711 97.1712 30.711 97.2C30.073 99.072 29.203 101.088 28.014 102.701C28.014 103.882 28.043 105.091 28.101 106.272C28.275 109.44 28.826 112.579 29.087 115.718C29.087 115.747 29.058 115.805 29.029 115.805C29 115.805 28.942 115.776 28.942 115.747C28.275 112.522 27.84 109.267 27.637 105.984Z" fill="#263238"/>
<path d="M31.03 81.5328C31.03 81.504 31.088 81.5328 31.059 81.5616C30.479 83.1456 30.131 84.7872 29.725 86.4288C29.725 86.4576 29.696 86.4864 29.667 86.4864C29.638 86.4864 29.609 86.4576 29.609 86.4288C29.783 84.7296 30.392 83.088 31.03 81.5328Z" fill="#263238"/>
<path d="M16.24 88.2432C16.617 89.1936 17.081 90.0864 17.574 90.9792C18.618 92.88 19.72 94.608 19.923 96.8256C20.01 97.8048 20.039 98.8128 20.329 99.7344C20.59 100.541 20.996 101.318 21.489 102.01C22.62 103.651 24.041 105.062 25.114 106.79C26.216 108.576 27.028 110.506 27.521 112.55C27.55 112.666 27.724 112.637 27.695 112.522V112.493V112.464C27.869 107.741 27.492 102.96 26.042 98.4384C25.404 96.4512 24.621 94.4928 23.722 92.6208C22.939 90.9792 21.982 89.3952 20.619 88.1856C19.749 87.3792 17.806 85.8816 16.559 86.688C15.95 87.0624 16.008 87.6672 16.24 88.2432Z" fill="#67A143"/>
<path d="M21.025 98.9568C21.866 100.339 22.794 101.635 23.78 102.902C24.244 103.507 24.708 104.083 25.172 104.688C25.404 104.976 25.636 105.264 25.839 105.552C25.723 105.062 25.578 104.544 25.462 104.054C24.853 101.664 24.244 99.2736 23.345 96.9696C22.417 94.752 21.315 92.592 20.039 90.5472C20.01 90.4896 20.097 90.4608 20.126 90.5184C21.141 92.16 22.156 93.8016 22.997 95.5296C23.461 96.5088 23.867 97.488 24.215 98.5248C23.838 96.3648 23.287 94.2336 22.591 92.16C22.591 92.1312 22.62 92.1312 22.62 92.16C23.519 94.2624 24.099 96.5088 24.302 98.784C24.505 99.3888 24.708 100.022 24.882 100.656C25.636 103.306 26.274 105.984 26.912 108.662C26.912 106.906 26.767 105.149 26.448 103.392C26.448 103.363 26.448 103.363 26.477 103.363C26.506 103.363 26.506 103.363 26.506 103.392C26.97 105.206 27.115 107.05 26.941 108.922C27.173 109.93 27.405 110.966 27.608 111.974C28.072 114.163 28.652 116.381 28.942 118.598C28.942 118.627 28.913 118.656 28.884 118.656C28.855 118.656 28.855 118.656 28.826 118.627C28.507 117.446 28.304 116.208 28.043 114.998C27.782 113.789 27.492 112.579 27.202 111.37C26.796 109.613 26.361 107.856 25.926 106.099C25.636 105.466 25.056 104.89 24.621 104.342C24.157 103.766 23.693 103.162 23.229 102.557C22.417 101.405 21.663 100.224 21.025 98.9568C20.996 98.9568 20.967 98.9568 21.025 98.9568Z" fill="#263238"/>
<path d="M20.822 96.9408C21.866 98.2656 22.765 99.7056 23.519 101.203C23.519 101.232 23.49 101.232 23.49 101.232C22.591 99.8208 21.692 98.3808 20.764 96.9696C20.764 96.9408 20.793 96.912 20.822 96.9408Z" fill="#263238"/>
<path d="M41.064 92.736C40.455 93.8016 39.73 95.0688 40.02 96.336C40.194 97.1424 40.774 97.776 40.89 98.6112C41.122 100.426 39.324 101.606 38.019 102.47C34.742 104.602 30.276 106.502 29.667 110.851C29.638 110.995 29.377 110.966 29.406 110.822V110.794C29.406 110.794 29.377 110.794 29.377 110.765C28.942 108.576 28.971 106.301 29.435 104.141C29.928 101.894 30.914 99.8784 32.074 97.92C34.046 94.5792 36.134 91.1808 39.092 88.6176C39.904 87.8976 41.615 86.6304 42.253 88.2432C42.891 89.7408 41.818 91.44 41.064 92.736Z" fill="#67A143"/>
<path d="M38.077 99.792C35.902 102.125 32.48 103.421 30.595 106.042C31.639 102.067 33.611 98.4096 36.337 95.328C36.366 95.2992 36.366 95.2416 36.337 95.2128C36.308 95.184 36.25 95.184 36.221 95.2128C34.22 97.1424 32.625 99.4176 31.523 101.952C32.045 100.195 32.712 98.4672 33.553 96.8256C33.582 96.7968 33.553 96.768 33.524 96.7392C33.495 96.7104 33.466 96.7392 33.437 96.768C32.393 98.5536 31.668 100.512 31.233 102.528C28.768 108.432 28.536 115.373 29.058 121.594C29.058 121.68 29.203 121.68 29.203 121.594C29.058 116.698 29.145 111.686 30.334 106.906L30.421 106.618C32.451 103.795 35.873 102.499 38.077 99.8496C38.135 99.8208 38.106 99.7632 38.077 99.792Z" fill="#263238"/>
<path d="M38.57 97.8048C37.439 98.8416 36.308 99.9072 35.177 100.944C35.177 100.944 35.177 100.973 35.206 100.973C36.482 100.109 37.642 99.072 38.657 97.8912C38.686 97.8624 38.657 97.8336 38.657 97.8336C38.628 97.776 38.599 97.776 38.57 97.8048Z" fill="#263238"/>
<path d="M38.773 93.312C37.758 94.9536 36.627 96.5088 35.38 97.9488C35.351 97.9776 35.38 98.0064 35.409 97.9776C36.83 96.6528 37.99 95.0688 38.831 93.312C38.831 93.312 38.773 93.2832 38.773 93.312Z" fill="#263238"/>
<path d="M33.64 126H23.693L25.027 112.694H32.103L33.64 126Z" fill="#455A64"/>
<path d="M32.364 114.854H24.795L25.027 112.694H32.103L32.364 114.854Z" fill="#263238"/>
<path d="M33.321 111.197H23.983V113.328H33.321V111.197Z" fill="#455A64"/>
</svg>
