<svg width="38" height="38" viewBox="0 0 38 38" fill="none" xmlns="http://www.w3.org/2000/svg">
    <path d="M5.54163 29.6875C4.89246 29.6875 4.35413 29.1491 4.35413 28.5V11.0833C4.35413 4.10079 6.47579 1.97913 13.4583 1.97913H24.5416C31.5241 1.97913 33.6458 4.10079 33.6458 11.0833V26.9166C33.6458 27.17 33.6458 27.4075 33.63 27.6608C33.5825 28.31 32.9966 28.8166 32.3633 28.7691C31.7141 28.7216 31.2075 28.1516 31.255 27.5025C31.2708 27.3125 31.2708 27.1066 31.2708 26.9166V11.0833C31.2708 5.43079 30.21 4.35413 24.5416 4.35413H13.4583C7.78996 4.35413 6.72913 5.43079 6.72913 11.0833V28.5C6.72913 29.1491 6.19079 29.6875 5.54163 29.6875Z" fill="#FF387B"/>
    <path d="M26.9166 36.0208H11.0833C7.37829 36.0208 4.35413 32.9967 4.35413 29.2917V28.2625C4.35413 25.1117 6.91913 22.5625 10.0541 22.5625H32.4583C33.1075 22.5625 33.6458 23.1008 33.6458 23.75V29.2917C33.6458 32.9967 30.6216 36.0208 26.9166 36.0208ZM10.0541 24.9375C8.21746 24.9375 6.72913 26.4258 6.72913 28.2625V29.2917C6.72913 31.6983 8.67663 33.6458 11.0833 33.6458H26.9166C29.3233 33.6458 31.2708 31.6983 31.2708 29.2917V24.9375H10.0541Z" fill="#FF387B"/>
    <path d="M25.3333 12.2709H12.6666C12.0175 12.2709 11.4791 11.7325 11.4791 11.0834C11.4791 10.4342 12.0175 9.89587 12.6666 9.89587H25.3333C25.9825 9.89587 26.5208 10.4342 26.5208 11.0834C26.5208 11.7325 25.9825 12.2709 25.3333 12.2709Z" fill="#FF387B"/>
    <path d="M20.5833 17.8125H12.6666C12.0175 17.8125 11.4791 17.2742 11.4791 16.625C11.4791 15.9758 12.0175 15.4375 12.6666 15.4375H20.5833C21.2325 15.4375 21.7708 15.9758 21.7708 16.625C21.7708 17.2742 21.2325 17.8125 20.5833 17.8125Z" fill="#FF387B"/>
</svg>
