<svg width="100" height="108" viewBox="0 0 100 108" fill="none" xmlns="http://www.w3.org/2000/svg">
    <g opacity="0.1">
        <path d="M18.9586 101.562C16.7378 101.562 14.8961 99.7208 14.8961 97.4999V37.9166C14.8961 14.0291 22.1545 6.77075 46.042 6.77075H83.9586C107.846 6.77075 115.104 14.0291 115.104 37.9166V92.0833C115.104 92.9499 115.104 93.7624 115.05 94.6291C114.888 96.8499 112.884 98.5833 110.717 98.4208C108.496 98.2583 106.763 96.3083 106.925 94.0874C106.979 93.4374 106.979 92.7333 106.979 92.0833V37.9166C106.979 18.5791 103.35 14.8958 83.9586 14.8958H46.042C26.6503 14.8958 23.0211 18.5791 23.0211 37.9166V97.4999C23.0211 99.7208 21.1795 101.562 18.9586 101.562Z" fill="#FF387B"/>
        <path d="M92.0836 123.229H37.917C25.242 123.229 14.8961 112.883 14.8961 100.208V96.6875C14.8961 85.9083 23.6711 77.1875 34.3961 77.1875H111.042C113.263 77.1875 115.104 79.0292 115.104 81.25V100.208C115.104 112.883 104.759 123.229 92.0836 123.229ZM34.3961 85.3125C28.1128 85.3125 23.0211 90.4042 23.0211 96.6875V100.208C23.0211 108.442 29.6836 115.104 37.917 115.104H92.0836C100.317 115.104 106.979 108.442 106.979 100.208V85.3125H34.3961Z" fill="#FF387B"/>
        <path d="M86.667 41.9792H43.3336C41.1128 41.9792 39.2711 40.1376 39.2711 37.9167C39.2711 35.6959 41.1128 33.8542 43.3336 33.8542H86.667C88.8878 33.8542 90.7295 35.6959 90.7295 37.9167C90.7295 40.1376 88.8878 41.9792 86.667 41.9792Z" fill="#FF387B"/>
        <path d="M70.417 60.9375H43.3336C41.1128 60.9375 39.2711 59.0958 39.2711 56.875C39.2711 54.6542 41.1128 52.8125 43.3336 52.8125H70.417C72.6378 52.8125 74.4795 54.6542 74.4795 56.875C74.4795 59.0958 72.6378 60.9375 70.417 60.9375Z" fill="#FF387B"/>
    </g>
</svg>
