<svg width="28" height="28" viewBox="0 0 28 28" fill="none" xmlns="http://www.w3.org/2000/svg">
    <path d="M9.33325 6.70825C8.85492 6.70825 8.45825 6.31158 8.45825 5.83325V2.33325C8.45825 1.85492 8.85492 1.45825 9.33325 1.45825C9.81159 1.45825 10.2083 1.85492 10.2083 2.33325V5.83325C10.2083 6.31158 9.81159 6.70825 9.33325 6.70825Z" fill="#8F8F8F"/>
    <path d="M18.6667 6.70825C18.1884 6.70825 17.7917 6.31158 17.7917 5.83325V2.33325C17.7917 1.85492 18.1884 1.45825 18.6667 1.45825C19.1451 1.45825 19.5417 1.85492 19.5417 2.33325V5.83325C19.5417 6.31158 19.1451 6.70825 18.6667 6.70825Z" fill="#8F8F8F"/>
    <path d="M21.2333 25.8417C18.69 25.8417 16.625 23.7767 16.625 21.2333C16.625 18.69 18.69 16.625 21.2333 16.625C23.7767 16.625 25.8417 18.69 25.8417 21.2333C25.8417 23.7767 23.7767 25.8417 21.2333 25.8417ZM21.2333 18.375C19.6583 18.375 18.375 19.6583 18.375 21.2333C18.375 22.8083 19.6583 24.0917 21.2333 24.0917C22.8083 24.0917 24.0917 22.8083 24.0917 21.2333C24.0917 19.6583 22.8083 18.375 21.2333 18.375Z" fill="#8F8F8F"/>
    <path d="M25.6667 26.5417C25.445 26.5417 25.2233 26.46 25.0483 26.285L23.8817 25.1183C23.5433 24.78 23.5433 24.22 23.8817 23.8817C24.22 23.5433 24.78 23.5433 25.1183 23.8817L26.285 25.0483C26.6233 25.3867 26.6233 25.9467 26.285 26.285C26.11 26.46 25.8883 26.5417 25.6667 26.5417Z" fill="#8F8F8F"/>
    <path d="M9.91667 16.9165C9.765 16.9165 9.61333 16.8815 9.47333 16.8232C9.32166 16.7649 9.19333 16.6832 9.08833 16.5782C9.04166 16.5198 8.98333 16.4615 8.94833 16.4032C8.90166 16.3332 8.86667 16.2632 8.84334 16.1932C8.80834 16.1232 8.785 16.0532 8.77334 15.9832C8.76167 15.9015 8.75 15.8199 8.75 15.7499C8.75 15.4465 8.87833 15.1432 9.08833 14.9215C9.19333 14.8165 9.32166 14.7348 9.47333 14.6765C9.89333 14.4898 10.4183 14.5949 10.745 14.9215C10.955 15.1432 11.0833 15.4465 11.0833 15.7499C11.0833 15.8199 11.0717 15.9015 11.06 15.9832C11.0483 16.0532 11.025 16.1232 10.99 16.1932C10.9667 16.2632 10.9317 16.3332 10.885 16.4032C10.8383 16.4615 10.7917 16.5198 10.745 16.5782C10.5233 16.7882 10.22 16.9165 9.91667 16.9165Z" fill="#8F8F8F"/>
    <path d="M13.9999 16.9166C13.6966 16.9166 13.3932 16.7883 13.1716 16.5783C12.9616 16.3566 12.8333 16.065 12.8333 15.75C12.8333 15.5983 12.8683 15.4466 12.9266 15.3066C12.9849 15.1666 13.0666 15.0383 13.1716 14.9217C13.6032 14.49 14.3849 14.49 14.8283 14.9217C15.0383 15.1433 15.1666 15.4466 15.1666 15.75C15.1666 15.82 15.1549 15.9017 15.1432 15.9833C15.1316 16.0533 15.1082 16.1233 15.0732 16.1933C15.0499 16.2633 15.0149 16.3333 14.9683 16.4033C14.9216 16.4616 14.8749 16.52 14.8283 16.5783C14.6066 16.7883 14.3033 16.9166 13.9999 16.9166Z" fill="#8F8F8F"/>
    <path d="M9.91667 20.9999C9.61333 20.9999 9.30999 20.8715 9.08833 20.6615C8.87833 20.4399 8.75 20.1366 8.75 19.8332C8.75 19.6816 8.785 19.5299 8.84334 19.3899C8.90167 19.2382 8.98333 19.1099 9.08833 19.0049C9.51999 18.5732 10.3133 18.5732 10.745 19.0049C10.955 19.2266 11.0833 19.5299 11.0833 19.8332C11.0833 20.1366 10.955 20.4399 10.745 20.6615C10.5233 20.8715 10.22 20.9999 9.91667 20.9999Z" fill="#8F8F8F"/>
    <path d="M23.9166 11.4797H4.08325C3.60492 11.4797 3.20825 11.0831 3.20825 10.6047C3.20825 10.1264 3.60492 9.72974 4.08325 9.72974H23.9166C24.3949 9.72974 24.7916 10.1264 24.7916 10.6047C24.7916 11.0831 24.3949 11.4797 23.9166 11.4797Z" fill="#8F8F8F"/>
    <path d="M15.5983 26.5416H9.33333C5.075 26.5416 2.625 24.0916 2.625 19.8333V9.91659C2.625 5.65825 5.075 3.20825 9.33333 3.20825H18.6667C22.925 3.20825 25.375 5.65825 25.375 9.91659V15.1666C25.375 15.6449 24.9783 16.0416 24.5 16.0416C24.0217 16.0416 23.625 15.6449 23.625 15.1666V9.91659C23.625 6.57992 22.0033 4.95825 18.6667 4.95825H9.33333C5.99667 4.95825 4.375 6.57992 4.375 9.91659V19.8333C4.375 23.1699 5.99667 24.7916 9.33333 24.7916H15.5983C16.0767 24.7916 16.4733 25.1883 16.4733 25.6666C16.4733 26.1449 16.0767 26.5416 15.5983 26.5416Z" fill="#8F8F8F"/>
</svg>
