<svg width="81" height="128" viewBox="0 0 81 128" fill="none" xmlns="http://www.w3.org/2000/svg">
    <g opacity="0.1">
        <path d="M41.9795 100.208C22.5878 100.208 6.77112 84.3918 6.77112 65.0001C6.77112 45.6084 22.5878 29.7917 41.9795 29.7917C44.2003 29.7917 46.042 31.6334 46.042 33.8542C46.042 36.0751 44.2003 37.9167 41.9795 37.9167C27.0295 37.9167 14.8961 50.0501 14.8961 65.0001C14.8961 79.9501 27.0295 92.0834 41.9795 92.0834C56.9295 92.0834 69.0628 79.9501 69.0628 65.0001C69.0628 62.7793 70.9045 60.9376 73.1253 60.9376C75.3461 60.9376 77.1878 62.7793 77.1878 65.0001C77.1878 84.3918 61.3711 100.208 41.9795 100.208Z" fill="#FF387B"/>
        <path d="M86.6664 101.562C84.4455 101.562 82.6039 99.7208 82.6039 97.5C82.6039 95.2792 84.4455 93.4375 86.6664 93.4375C102.321 93.4375 115.104 80.6542 115.104 65C115.104 49.3458 102.321 36.5625 86.6664 36.5625C71.0122 36.5625 58.2289 49.3458 58.2289 65C58.2289 67.2208 56.3872 69.0625 54.1664 69.0625C51.9455 69.0625 50.1039 67.2208 50.1039 65C50.1039 44.85 66.5164 28.4375 86.6664 28.4375C106.816 28.4375 123.229 44.85 123.229 65C123.229 85.15 106.816 101.562 86.6664 101.562Z" fill="#FF387B"/>
    </g>
</svg>
