<svg width="38" height="38" viewBox="0 0 38 38" fill="none" xmlns="http://www.w3.org/2000/svg">
    <path d="M12.2708 29.2917C6.60246 29.2917 1.97913 24.6684 1.97913 19C1.97913 13.3317 6.60246 8.70837 12.2708 8.70837C12.92 8.70837 13.4583 9.24671 13.4583 9.89587C13.4583 10.545 12.92 11.0834 12.2708 11.0834C7.90079 11.0834 4.35413 14.63 4.35413 19C4.35413 23.37 7.90079 26.9167 12.2708 26.9167C16.6408 26.9167 20.1875 23.37 20.1875 19C20.1875 18.3509 20.7258 17.8125 21.375 17.8125C22.0241 17.8125 22.5625 18.3509 22.5625 19C22.5625 24.6684 17.9391 29.2917 12.2708 29.2917Z" fill="#FF387B"/>
    <path d="M25.3334 29.6875C24.6842 29.6875 24.1459 29.1492 24.1459 28.5C24.1459 27.8508 24.6842 27.3125 25.3334 27.3125C29.9092 27.3125 33.6459 23.5758 33.6459 19C33.6459 14.4242 29.9092 10.6875 25.3334 10.6875C20.7575 10.6875 17.0209 14.4242 17.0209 19C17.0209 19.6492 16.4825 20.1875 15.8334 20.1875C15.1842 20.1875 14.6459 19.6492 14.6459 19C14.6459 13.11 19.4434 8.3125 25.3334 8.3125C31.2234 8.3125 36.0209 13.11 36.0209 19C36.0209 24.89 31.2234 29.6875 25.3334 29.6875Z" fill="#FF387B"/>
</svg>
