<svg width="95" height="104" viewBox="0 0 95 104" fill="none" xmlns="http://www.w3.org/2000/svg">
    <g opacity="0.1">
        <path d="M81.25 123.229H48.75C19.3375 123.229 6.77087 110.662 6.77087 81.2499V48.7499C6.77087 19.3374 19.3375 6.77075 48.75 6.77075H81.25C110.663 6.77075 123.229 19.3374 123.229 48.7499V81.2499C123.229 110.662 110.663 123.229 81.25 123.229ZM48.75 14.8958C23.7792 14.8958 14.8959 23.7791 14.8959 48.7499V81.2499C14.8959 106.221 23.7792 115.104 48.75 115.104H81.25C106.221 115.104 115.104 106.221 115.104 81.2499V48.7499C115.104 23.7791 106.221 14.8958 81.25 14.8958H48.75Z" fill="#FF387B"/>
        <path d="M48.75 58.2292C40.5166 58.2292 33.8541 51.5667 33.8541 43.3333C33.8541 35.1 40.5166 28.4375 48.75 28.4375C56.9833 28.4375 63.6458 35.1 63.6458 43.3333C63.6458 51.5667 56.9833 58.2292 48.75 58.2292ZM48.75 36.5625C45.0125 36.5625 41.9791 39.5958 41.9791 43.3333C41.9791 47.0708 45.0125 50.1042 48.75 50.1042C52.4875 50.1042 55.5208 47.0708 55.5208 43.3333C55.5208 39.5958 52.4875 36.5625 48.75 36.5625Z" fill="#FF387B"/>
        <path d="M14.4626 106.708C13.1626 106.708 11.8626 106.058 11.1042 104.921C9.8584 103.079 10.3459 100.533 12.2417 99.2876L38.9459 81.3584C44.7959 77.4043 52.8667 77.8918 58.1751 82.3876L59.9626 83.9584C62.6709 86.2876 67.2751 86.2876 69.9292 83.9584L92.4626 64.6209C98.2042 59.6918 107.25 59.6918 113.046 64.6209L121.875 72.2043C123.554 73.6668 123.771 76.2126 122.308 77.9459C120.846 79.6251 118.3 79.8418 116.567 78.3793L107.738 70.7959C105.029 68.4668 100.425 68.4668 97.7167 70.7959L75.1834 90.1334C69.4417 95.0626 60.3959 95.0626 54.6001 90.1334L52.8126 88.5626C50.3209 86.4501 46.2042 86.2334 43.4417 88.1293L16.7376 106.058C16.0334 106.492 15.2209 106.708 14.4626 106.708Z" fill="#FF387B"/>
    </g>
</svg>
