<svg width="38" height="38" viewBox="0 0 38 38" fill="none" xmlns="http://www.w3.org/2000/svg">
    <path d="M9.94317 36.0209C6.57067 36.0209 3.81567 33.2659 3.81567 29.8934C3.81567 26.5209 6.57067 23.7659 9.94317 23.7659C13.3157 23.7659 16.0707 26.5209 16.0707 29.8934C16.0707 33.2659 13.3157 36.0209 9.94317 36.0209ZM9.94317 26.1409C7.86901 26.1409 6.19067 27.8192 6.19067 29.8934C6.19067 31.9675 7.86901 33.6459 9.94317 33.6459C12.0173 33.6459 13.6957 31.9675 13.6957 29.8934C13.6957 27.8192 12.0173 26.1409 9.94317 26.1409Z" fill="#FF387B"/>
    <path d="M14.8832 31.0808C14.234 31.0808 13.6957 30.5425 13.6957 29.8933V9.97501C13.6957 7.47334 15.1998 5.51 17.6065 4.86084L27.4865 2.16917C29.4973 1.615 31.1915 1.82084 32.379 2.73917C33.5823 3.65751 34.184 5.19334 34.184 7.29917V26.6158C34.184 27.265 33.6457 27.8033 32.9965 27.8033C32.3473 27.8033 31.809 27.265 31.809 26.6158V7.28334C31.809 6.36501 31.6507 5.16167 30.9382 4.62334C30.1623 4.02167 28.8323 4.25917 28.104 4.465L18.224 7.15667C16.8465 7.53667 16.0707 8.56584 16.0707 9.99084V29.9092C16.0707 30.5425 15.5323 31.0808 14.8832 31.0808Z" fill="#FF387B"/>
    <path d="M28.0568 32.7275C24.6843 32.7275 21.9293 29.9725 21.9293 26.6C21.9293 23.2275 24.6843 20.4725 28.0568 20.4725C31.4293 20.4725 34.1843 23.2275 34.1843 26.6C34.1843 29.9725 31.4293 32.7275 28.0568 32.7275ZM28.0568 22.8475C25.9827 22.8475 24.3043 24.5259 24.3043 26.6C24.3043 28.6742 25.9827 30.3525 28.0568 30.3525C30.131 30.3525 31.8093 28.6742 31.8093 26.6C31.8093 24.5259 30.131 22.8475 28.0568 22.8475Z" fill="#FF387B"/>
    <path d="M14.8834 16.2609C14.3609 16.2609 13.8859 15.9126 13.7434 15.3901C13.5693 14.7568 13.9334 14.0918 14.5668 13.9176L32.6801 8.97761C33.3134 8.80344 33.9626 9.18344 34.1368 9.81677C34.3109 10.4501 33.9309 11.0993 33.2976 11.2734L15.2001 16.2134C15.0893 16.2451 14.9784 16.2609 14.8834 16.2609Z" fill="#FF387B"/>
</svg>
