<svg width="104" height="108" viewBox="0 0 104 108" fill="none" xmlns="http://www.w3.org/2000/svg">
    <g opacity="0.1">
        <path d="M34.0161 123.229C22.4786 123.229 13.0536 113.804 13.0536 102.267C13.0536 90.7293 22.4786 81.3043 34.0161 81.3043C45.5536 81.3043 54.9786 90.7293 54.9786 102.267C54.9786 113.804 45.5536 123.229 34.0161 123.229ZM34.0161 89.4293C26.9203 89.4293 21.1786 95.171 21.1786 102.267C21.1786 109.363 26.9203 115.104 34.0161 115.104C41.1119 115.104 46.8536 109.363 46.8536 102.267C46.8536 95.171 41.1119 89.4293 34.0161 89.4293Z" fill="#FF387B"/>
        <path d="M50.9165 106.329C48.6957 106.329 46.854 104.488 46.854 102.267V34.1251C46.854 25.5667 51.9998 18.8501 60.2332 16.6292L94.0332 7.42089C100.912 5.52506 106.708 6.22923 110.771 9.3709C114.887 12.5126 116.946 17.7667 116.946 24.9709V91.0542C116.946 93.2751 115.104 95.1167 112.883 95.1167C110.662 95.1167 108.821 93.2751 108.821 91.0542V24.9167C108.821 21.7751 108.279 17.6584 105.842 15.8167C103.187 13.7584 98.6373 14.5709 96.1457 15.2751L62.3457 24.4834C57.6332 25.7834 54.979 29.3042 54.979 34.1792V102.321C54.979 104.488 53.1373 106.329 50.9165 106.329Z" fill="#FF387B"/>
        <path d="M95.9835 111.963C84.446 111.963 75.021 102.538 75.021 91.0001C75.021 79.4626 84.446 70.0376 95.9835 70.0376C107.521 70.0376 116.946 79.4626 116.946 91.0001C116.946 102.538 107.521 111.963 95.9835 111.963ZM95.9835 78.1626C88.8877 78.1626 83.146 83.9043 83.146 91.0001C83.146 98.0959 88.8877 103.838 95.9835 103.838C103.079 103.838 108.821 98.0959 108.821 91.0001C108.821 83.9043 103.079 78.1626 95.9835 78.1626Z" fill="#FF387B"/>
        <path d="M50.917 55.6295C49.1295 55.6295 47.5045 54.4378 47.017 52.6503C46.4212 50.4837 47.667 48.2087 49.8337 47.6128L111.8 30.7128C113.967 30.117 116.188 31.417 116.784 33.5837C117.38 35.7503 116.08 37.9712 113.913 38.567L52.0004 55.467C51.6212 55.5753 51.242 55.6295 50.917 55.6295Z" fill="#FF387B"/>
    </g>
</svg>
