<svg width="38" height="38" viewBox="0 0 38 38" fill="none" xmlns="http://www.w3.org/2000/svg">
    <path d="M23.75 36.0208H14.25C5.65246 36.0208 1.97913 32.3475 1.97913 23.75V14.25C1.97913 5.65246 5.65246 1.97913 14.25 1.97913H23.75C32.3475 1.97913 36.0208 5.65246 36.0208 14.25V23.75C36.0208 32.3475 32.3475 36.0208 23.75 36.0208ZM14.25 4.35413C6.95079 4.35413 4.35413 6.95079 4.35413 14.25V23.75C4.35413 31.0491 6.95079 33.6458 14.25 33.6458H23.75C31.0491 33.6458 33.6458 31.0491 33.6458 23.75V14.25C33.6458 6.95079 31.0491 4.35413 23.75 4.35413H14.25Z" fill="#FF387B"/>
    <path d="M34.01 12.4449H3.98999C3.34082 12.4449 2.80249 11.9066 2.80249 11.2574C2.80249 10.6083 3.32499 10.0699 3.98999 10.0699H34.01C34.6592 10.0699 35.1975 10.6083 35.1975 11.2574C35.1975 11.9066 34.675 12.4449 34.01 12.4449Z" fill="#FF387B"/>
    <path d="M13.49 12.2233C12.8408 12.2233 12.3025 11.685 12.3025 11.0358V3.34082C12.3025 2.69165 12.8408 2.15332 13.49 2.15332C14.1392 2.15332 14.6775 2.69165 14.6775 3.34082V11.0358C14.6775 11.685 14.1392 12.2233 13.49 12.2233Z" fill="#FF387B"/>
    <path d="M24.51 11.5108C23.8608 11.5108 23.3225 10.9725 23.3225 10.3233V3.34082C23.3225 2.69165 23.8608 2.15332 24.51 2.15332C25.1592 2.15332 25.6975 2.69165 25.6975 3.34082V10.3233C25.6975 10.9883 25.175 11.5108 24.51 11.5108Z" fill="#FF387B"/>
    <path d="M17.5592 28.69C16.9892 28.69 16.4508 28.5475 15.96 28.2783C14.8833 27.645 14.25 26.3783 14.25 24.7792V20.9792C14.25 19.38 14.8833 18.0975 15.9758 17.4642C17.0683 16.8308 18.4933 16.9258 19.8708 17.7333L23.1642 19.6333C24.5417 20.425 25.3492 21.6125 25.3492 22.8792C25.3492 24.1458 24.5417 25.3333 23.1483 26.125L19.855 28.025C19.095 28.4683 18.3033 28.69 17.5592 28.69ZM17.575 19.4275C17.4167 19.4275 17.2742 19.4592 17.1633 19.5225C16.8308 19.7125 16.625 20.2508 16.625 20.9792V24.7792C16.625 25.4917 16.8308 26.03 17.1633 26.2358C17.4958 26.4258 18.0658 26.3308 18.6833 25.9667L21.9767 24.0667C22.5942 23.7025 22.9742 23.2592 22.9742 22.8792C22.9742 22.4992 22.61 22.0558 21.9767 21.6917L18.6833 19.7917C18.2717 19.5542 17.8758 19.4275 17.575 19.4275Z" fill="#FF387B"/>
</svg>
