<svg width="91" height="108" viewBox="0 0 91 108" fill="none" xmlns="http://www.w3.org/2000/svg">
    <g opacity="0.1">
        <path d="M81.2503 123.229H48.7503C19.3378 123.229 6.77112 110.662 6.77112 81.2499V48.7499C6.77112 19.3374 19.3378 6.77075 48.7503 6.77075H81.2503C110.663 6.77075 123.229 19.3374 123.229 48.7499V81.2499C123.229 110.662 110.663 123.229 81.2503 123.229ZM48.7503 14.8958C23.7795 14.8958 14.8961 23.7791 14.8961 48.7499V81.2499C14.8961 106.221 23.7795 115.104 48.7503 115.104H81.2503C106.221 115.104 115.104 106.221 115.104 81.2499V48.7499C115.104 23.7791 106.221 14.8958 81.2503 14.8958H48.7503Z" fill="#FF387B"/>
        <path d="M116.35 42.5748H13.65C11.4292 42.5748 9.58752 40.7332 9.58752 38.5123C9.58752 36.2915 11.375 34.4498 13.65 34.4498H116.35C118.571 34.4498 120.413 36.2915 120.413 38.5123C120.413 40.7332 118.625 42.5748 116.35 42.5748Z" fill="#FF387B"/>
        <path d="M46.15 41.8166C43.9292 41.8166 42.0875 39.9749 42.0875 37.7541V11.4291C42.0875 9.20824 43.9292 7.36658 46.15 7.36658C48.3709 7.36658 50.2125 9.20824 50.2125 11.4291V37.7541C50.2125 39.9749 48.3709 41.8166 46.15 41.8166Z" fill="#FF387B"/>
        <path d="M83.8501 39.3791C81.6293 39.3791 79.7876 37.5374 79.7876 35.3166V11.4291C79.7876 9.20824 81.6293 7.36658 83.8501 7.36658C86.0709 7.36658 87.9126 9.20824 87.9126 11.4291V35.3166C87.9126 37.5916 86.1251 39.3791 83.8501 39.3791Z" fill="#FF387B"/>
        <path d="M60.0708 98.1499C58.1208 98.1499 56.2792 97.6624 54.6 96.7416C50.9167 94.5749 48.75 90.2416 48.75 84.7708V71.7708C48.75 66.2999 50.9167 61.9124 54.6542 59.7458C58.3917 57.5791 63.2667 57.9041 67.9792 60.6666L79.2458 67.1666C83.9583 69.8749 86.7208 73.9374 86.7208 78.2708C86.7208 82.6041 83.9583 86.6666 79.1917 89.3749L67.925 95.875C65.325 97.3916 62.6167 98.1499 60.0708 98.1499ZM60.125 66.4624C59.5833 66.4624 59.0958 66.5708 58.7167 66.7874C57.5792 67.4374 56.875 69.2791 56.875 71.7708V84.7708C56.875 87.2083 57.5792 89.0499 58.7167 89.7541C59.8542 90.4041 61.8042 90.0791 63.9167 88.8333L75.1833 82.3333C77.2958 81.0874 78.5958 79.5708 78.5958 78.2708C78.5958 76.9708 77.35 75.4541 75.1833 74.2083L63.9167 67.7083C62.5083 66.8958 61.1542 66.4624 60.125 66.4624Z" fill="#FF387B"/>
    </g>
</svg>
