<svg width="38" height="38" viewBox="0 0 38 38" fill="none" xmlns="http://www.w3.org/2000/svg">
    <path d="M26.9166 36.0208H11.0833C4.10079 36.0208 1.97913 33.8991 1.97913 26.9166V11.0833C1.97913 4.10079 4.10079 1.97913 11.0833 1.97913H13.4583C16.2291 1.97913 17.1 2.88163 18.2083 4.35413L20.5833 7.52079C21.1058 8.21746 21.185 8.31246 22.1666 8.31246H26.9166C33.8991 8.31246 36.0208 10.4341 36.0208 17.4166V26.9166C36.0208 33.8991 33.8991 36.0208 26.9166 36.0208ZM11.0833 4.35413C5.41496 4.35413 4.35413 5.43079 4.35413 11.0833V26.9166C4.35413 32.5691 5.41496 33.6458 11.0833 33.6458H26.9166C32.585 33.6458 33.6458 32.5691 33.6458 26.9166V17.4166C33.6458 11.7641 32.585 10.6875 26.9166 10.6875H22.1666C20.14 10.6875 19.475 9.99079 18.6833 8.94579L16.3083 5.77913C15.485 4.68663 15.2316 4.35413 13.4583 4.35413H11.0833Z" fill="#FF387B"/>
    <path d="M31.6666 11.2891C31.0175 11.2891 30.4791 10.7508 30.4791 10.1016V7.91663C30.4791 5.41496 29.4183 4.35413 26.9166 4.35413H12.6666C12.0175 4.35413 11.4791 3.81579 11.4791 3.16663C11.4791 2.51746 12.0175 1.97913 12.6666 1.97913H26.9166C30.7483 1.97913 32.8541 4.08496 32.8541 7.91663V10.1016C32.8541 10.7508 32.3158 11.2891 31.6666 11.2891Z" fill="#FF387B"/>
</svg>
