<svg width="92" height="113" viewBox="0 0 92 113" fill="none" xmlns="http://www.w3.org/2000/svg">
    <g opacity="0.1">
        <path d="M92.0836 123.229H37.917C14.0295 123.229 6.77112 115.971 6.77112 92.0833V37.9166C6.77112 14.0291 14.0295 6.77075 37.917 6.77075H46.042C55.5211 6.77075 58.5003 9.85825 62.292 14.8958L70.417 25.7291C72.2045 28.1124 72.4753 28.4374 75.8336 28.4374H92.0836C115.971 28.4374 123.229 35.6958 123.229 59.5833V92.0833C123.229 115.971 115.971 123.229 92.0836 123.229ZM37.917 14.8958C18.5253 14.8958 14.8961 18.5791 14.8961 37.9166V92.0833C14.8961 111.421 18.5253 115.104 37.917 115.104H92.0836C111.475 115.104 115.104 111.421 115.104 92.0833V59.5833C115.104 40.2458 111.475 36.5624 92.0836 36.5624H75.8336C68.9003 36.5624 66.6253 34.1791 63.917 30.6041L55.792 19.7708C52.9753 16.0333 52.1086 14.8958 46.042 14.8958H37.917Z" fill="#FF387B"/>
        <path d="M108.334 38.6208C106.113 38.6208 104.271 36.7791 104.271 34.5583V27.0833C104.271 18.5249 100.642 14.8958 92.0836 14.8958H43.3336C41.1128 14.8958 39.2711 13.0541 39.2711 10.8333C39.2711 8.61242 41.1128 6.77075 43.3336 6.77075H92.0836C105.192 6.77075 112.396 13.9749 112.396 27.0833V34.5583C112.396 36.7791 110.554 38.6208 108.334 38.6208Z" fill="#FF387B"/>
    </g>
</svg>
